<svg xmlns:xlink="http://www.w3.org/1999/xlink" xmlns="http://www.w3.org/2000/svg" name="eatLate" viewBox="0 0 24 24" class="sc-43615ed2-0 cCXfEq sc-b47950c5-6 gMyOhV" width="24"  height="24" ><defs><symbol viewBox="0 0 24 24" fill="none" id="eatLate"><path fill="#F8CD3D" d="M16.55 1.969s2.59 1.296 1.993 4.186c-.598 2.89-3.09 3.19-4.785 2.89-1.694-.298-.797 1.894 3.29 2.293 3.987.399 5.183-1.794 5.681-4.087.399-1.993-.698-4.884-3.588-5.88-2.89-.997-4.186.299-2.592.598"></path><path fill="#FBB49B" d="M5.485 11.737c-1.694 1.395-3.588 4.485-2.69 6.778-.1.1-.1.299.099.398C4.788 20.907 6.98 22.9 9.87 23c2.691 0 4.087-1.994 4.186-4.585.1-2.293-.897-4.585-2.591-6.18-1.695-1.495-4.087-1.993-5.98-.498"></path><path fill="#32B2A8" d="M5.087 10.242c-.598-.698-1.296-1.396-1.894-2.094C2.495 8.746 1.698 9.245 1 9.743c.498.598 1.096 1.196 1.595 1.894C1.1 13.83.9 16.82 2.096 19.212c.4.698 1.396 2.093 2.293 1.196.598-.598.498-1.794.399-2.79.996.996 2.491 2.093 3.588 1.196.897-.798.598-2.094.1-3.29.996.598 2.292.997 2.99.2.797-.798-.1-2.094-.897-2.99.598.1 1.295.1 1.794-.499.797-.897-.1-1.694-.897-2.093-1.994-1.096-4.386-.997-6.38.1"></path></symbol></defs><use xlink:href="#eatLate" xmlns="http://www.w3.org/2000/svg"></use></svg>