<svg xmlns:xlink="http://www.w3.org/1999/xlink" xmlns="http://www.w3.org/2000/svg" name="hardDrinks" viewBox="0 0 24 24" class="sc-43615ed2-0 cCXfEq sc-b47950c5-6 gMyOhV" width="24"  height="24" ><defs><symbol viewBox="0 0 24 24" fill="none" id="hardDrinks"><path fill="#A0DFDA" d="M8.85 13.22v.038h6.552v-.038h.266l2.5-5.644H5.25L8.13 13.22z"></path><path fill="#000" stroke="#000" stroke-width=".3" d="M16.576 13.41h-9.47c-.113 0-.189-.077-.189-.152L3.016 5.492c-.038-.075 0-.113.038-.189.037-.076.113-.076.151-.076l12.16-.038c.113 0 .188.076.188.19 0 .113-.075.19-.189.19L3.47 5.605l3.826 7.424h9.129l3.295-7.424h-2.159c-.114 0-.19-.076-.19-.19 0-.113.076-.189.19-.189h2.386c.076 0 .114.038.152.076s.076.114.038.152l-3.371 7.803c-.038.113-.114.151-.19.151Z"></path><path fill="#020202" stroke="#000" stroke-width=".3" d="M17.22 23.18H6.273c-.075 0-.151-.075-.189-.15 0-.077.038-.19.114-.228l4.886-1.818v-7.727c0-.114.076-.19.19-.19.113 0 .189.076.189.19v7.878a.21.21 0 0 1-.114.19L7.334 22.84h8.94l-3.713-1.553a.21.21 0 0 1-.113-.19V13.22c0-.114.075-.19.189-.19s.19.076.19.19v7.765l4.507 1.856q.114.056.114.227c-.076.038-.152.114-.228.114Z"></path><path fill="#F38059" d="M14.076 11.06c-.038 0-.114 0-.152-.037-.189-.076-.265-.303-.189-.493l4.091-8.94c.038-.113.151-.189.227-.189l3.485-.946c.19-.038.417.075.455.265s-.076.416-.266.454l-3.295.91-4.015 8.75c-.038.15-.19.226-.341.226"></path><path fill="#020202" stroke="#000" stroke-width=".3" d="M8.054 10.834c-.53 0-.985-.455-.985-.986s.455-.985.985-.985.985.455.985.985-.417.986-.985.986Zm0-1.592a.6.6 0 0 0-.606.606c0 .341.265.607.606.607a.6.6 0 0 0 .606-.607.6.6 0 0 0-.606-.606ZM11.122 12.122a.84.84 0 0 1-.834-.833.84.84 0 0 1 .834-.834c.454 0 .833.379.833.834a.84.84 0 0 1-.833.833Zm0-1.25a.46.46 0 0 0-.455.454c0 .266.19.455.455.455s.454-.19.454-.455a.46.46 0 0 0-.454-.454ZM12.94 9.243a.857.857 0 0 1-.871-.872c0-.492.379-.871.871-.871.493 0 .872.379.872.871 0 .455-.417.872-.872.872Zm0-1.402a.5.5 0 0 0-.492.493c0 .265.227.492.492.492a.5.5 0 0 0 .493-.492.5.5 0 0 0-.493-.493Z"></path></symbol></defs><use xlink:href="#hardDrinks" xmlns="http://www.w3.org/2000/svg"></use></svg>