<svg xmlns:xlink="http://www.w3.org/1999/xlink" xmlns="http://www.w3.org/2000/svg" name="sweets" viewBox="0 0 24 24" class="sc-43615ed2-0 cCXfEq sc-b47950c5-6 gMyOhV" width="24"  height="24" ><defs><symbol viewBox="0 0 24 24" fill="none" id="sweets"><path fill="#C6896B" d="M18.144 13.193c-.1 0-.3-.1-.4-.1-4-.2-8.1-.2-12.1-.1-.4 0-.7.2-1 .4-.2.1-.4.3-.5.5.9 3.1 2.2 6.1 3.5 9.1h9c.8-.9 1.6-2.7 2-3.8.5-1.4 1.1-2.9 1.7-4.3.5-1.3-1.2-2.2-2.2-1.7"></path><path fill="#A0DFDA" d="M18.443 7.092c-.1-1.1-.7-2.1-1.8-2.7-1.3-.7-2.7-.5-3.8.2-1.3-1.3-3.2-1.8-5-1-2.2.9-3.2 2.9-3.2 5.1-1.6.4-2.9 1.9-2.6 3.8.5 3.4 4.4 4.1 6.9 2.4l.1-.1c1.6 1.9 4.6 2.3 6.6.5 2.4 1.3 5.6.2 6.4-2.7.8-2.8-1.2-5.1-3.6-5.5"></path><path fill="#F38059" d="M15.543 3.693c0-.5-.1-1-.4-1.5-.8-1.1-2.4-1.6-3.6-.8-.3.2-.5.5-.6.8-.2.3-.4.6-.5.9-.3 1 .1 2 .9 2.7s1.9.9 2.9.5 1.5-1.5 1.3-2.6"></path><path fill="#000" d="M9.143 21.893c-.2 0-.5-.2-.5-.4l-.8-5c0-.3.1-.5.4-.6s.5.1.6.4l.8 5c0 .3-.2.6-.5.6M12.043 22.693c-.3 0-.5-.3-.5-.6.2-1.8.5-3.5.9-5.3.1-.3.3-.4.6-.4.3.1.4.3.4.6-.4 1.7-.7 3.4-.9 5.2 0 .3-.3.5-.5.5M14.843 22.792h-.2c-.3-.1-.4-.4-.3-.7l2.3-5.6c.1-.3.4-.4.7-.3s.4.4.3.7l-2.3 5.6c-.1.2-.3.3-.5.3"></path></symbol></defs><use xlink:href="#sweets" xmlns="http://www.w3.org/2000/svg"></use></svg>