<svg width="311" height="228" viewBox="0 0 311 228" fill="none" xmlns="http://www.w3.org/2000/svg">
<g clip-path="url(#clip0_6342_15149)">
<path d="M48.4645 105.574L71.8185 128.683C71.8185 128.683 41.4075 164.163 32.3902 169.421C8.71544 183.214 5.87305 153.586 5.87305 153.586L48.4645 105.574Z" fill="#C6896B"/>
<path d="M28.2913 99.7035L32.8801 139.669C32.8801 139.669 39.1886 175.158 19.5681 173C-3.55427 170.46 4.34029 129.456 10.1142 108.158C13.3397 96.2487 15.6297 91.8259 15.6297 91.8259L28.2913 99.7035Z" fill="#C6896B"/>
<path d="M30.5103 121.134C31.7844 130.699 32.925 143.568 32.1587 149.918" stroke="black" stroke-width="1.4" stroke-miterlimit="10" stroke-linecap="round" stroke-linejoin="round"/>
<path d="M13.161 99.3215C13.161 99.3215 11.5215 88.7351 10.1048 82.9978C9.61469 81.0261 7.93063 76.0349 7.51185 73.6636C6.62972 68.5836 7.2178 62.2423 8.5098 62.1358C11.4235 62.571 11.0314 67.1803 11.6552 69.9957C12.4749 73.8323 13.357 73.486 13.357 73.486C13.357 73.486 13.1075 69.0099 12.6709 65.0755C12.2165 60.7237 12.0027 57.6508 13.5976 57.4287C14.8094 57.3044 15.7896 59.6046 16.1816 62.7131C17.2152 70.6884 17.7944 72.6778 17.7944 72.6778C17.7944 72.6778 17.7053 67.8109 17.2419 62.9706C16.939 58.8142 16.9123 55.1907 18.7478 55.1729C20.5833 55.1551 21.1358 60.0132 21.6793 64.3739C22.2228 68.7345 22.6594 72.6689 22.6594 72.6689C23.8178 72.8643 23.4079 67.7043 23.4524 65.8215C23.5505 60.9102 23.194 58.1392 25.0207 58.2014C26.1879 58.3169 27.2037 63.166 27.7918 67.7842C28.5135 73.2462 28.7987 79.1256 28.7987 79.1256C28.7987 79.1256 29.8412 79.3831 31.846 75.1201C32.8439 72.9886 33.7083 70.2532 35.2765 69.596C36.1319 69.4095 37.5308 68.7079 38.2169 69.6848C37.3971 71.8429 36.4972 75.3599 34.2429 81.5945C32.737 88.8949 28.3888 102.616 28.3888 102.616L13.161 99.3215Z" fill="#C6896B"/>
<path d="M28.6123 79.0192C25.2353 80.076 22.1078 81.9322 19.5684 84.3834" stroke="black" stroke-width="1.4" stroke-miterlimit="10" stroke-linecap="round" stroke-linejoin="round"/>
<path d="M13.2056 75.4399C17.2598 74.5518 21.3853 73.9567 25.5286 73.6814" stroke="black" stroke-width="1.4" stroke-miterlimit="10" stroke-linecap="round" stroke-linejoin="round"/>
<mask id="mask0_6342_15149" style="mask-type:alpha" maskUnits="userSpaceOnUse" x="5" y="35" width="306" height="308">
<path d="M13.8402 253.338C-1.80284 210.06 -1.80309 91.0458 56.8583 61.2924C201.556 -15.796 294.111 95.1037 308.451 157.315C322.79 219.527 275.861 322.312 187.217 339.893C98.5735 357.475 29.4832 296.615 13.8402 253.338Z" fill="#FAF2E8"/>
</mask>
<g mask="url(#mask0_6342_15149)">
<path d="M161.911 233.89C161.911 233.89 164.094 246.839 161.956 250.382C159.826 253.926 150.782 259.885 148.43 260.089C148.43 260.089 147.619 241.927 150.515 228.685C150.515 228.685 153.892 225.124 157.438 226.305C160.984 227.486 161.911 233.89 161.911 233.89Z" fill="#C6896B"/>
<path d="M87.0729 74.5606C87.0729 74.5606 88.7747 70.0934 91.3409 67.7665C93.9071 65.4396 107.246 63.5746 112.797 63.4236C118.348 63.2726 129.691 65.7505 132.426 67.6155C135.162 69.4806 135.786 74.5695 135.786 74.5695C135.786 74.5695 118.357 100.21 102.621 95.8667C86.8857 91.5238 87.0729 74.5606 87.0729 74.5606Z" fill="#F8CD3E"/>
<path d="M147.841 123.691L179.232 117.874C179.232 117.874 186.743 152.573 181.887 175.318C179.535 186.348 160.948 186.224 158.275 174.084C155.611 161.952 147.841 123.691 147.841 123.691Z" fill="#C6896B"/>
<path d="M63.3263 195.043C58.7464 235.24 53.2665 357.374 75.0612 419.845H105.437C107.29 405.093 112.128 243.846 112.128 243.846C112.128 243.846 117.305 405.173 116.851 419.845H148.474C165.679 367.152 162.89 190.842 162.89 190.842L63.3263 195.043Z" fill="#AB8DDB"/>
<path d="M48.465 105.574L71.819 128.683C71.819 128.683 41.408 164.163 32.3907 169.421C8.71593 183.214 5.87354 153.586 5.87354 153.586L48.465 105.574Z" fill="#C6896B"/>
<path d="M28.2918 99.7036L32.8806 139.669C32.8806 139.669 39.1891 175.158 19.5686 173C-3.55378 170.46 4.34078 129.456 10.1147 108.158C13.3402 96.2488 15.6302 91.8259 15.6302 91.8259L28.2918 99.7036Z" fill="#C6896B"/>
<path d="M30.5107 121.134C31.7849 130.699 32.9255 143.568 32.1592 149.918" stroke="black" stroke-width="1.4" stroke-miterlimit="10" stroke-linecap="round" stroke-linejoin="round"/>
<path d="M13.1615 99.3215C13.1615 99.3215 11.522 88.7351 10.1052 82.9978C9.61518 81.0262 7.93112 76.035 7.51234 73.6637C6.63021 68.5836 7.21829 62.2424 8.51029 62.1358C11.424 62.571 11.0319 67.1804 11.6556 69.9957C12.4754 73.8324 13.3575 73.486 13.3575 73.486C13.3575 73.486 13.108 69.0099 12.6714 65.0755C12.217 60.7237 12.0031 57.6508 13.5981 57.4288C14.8099 57.3045 15.79 59.6047 16.1821 62.7131C17.2157 70.6885 17.7949 72.6779 17.7949 72.6779C17.7949 72.6779 17.7058 67.8109 17.2424 62.9707C16.9395 58.8143 16.9127 55.1907 18.7483 55.173C20.5838 55.1552 21.1362 60.0132 21.6798 64.3739C22.2233 68.7346 22.6599 72.669 22.6599 72.669C23.8183 72.8644 23.4084 67.7044 23.4529 65.8216C23.5509 60.9102 23.1945 58.1393 25.0212 58.2015C26.1884 58.3169 27.2042 63.1661 27.7923 67.7843C28.514 73.2463 28.7991 79.1256 28.7991 79.1256C28.7991 79.1256 29.8416 79.3832 31.8465 75.1202C32.8444 72.9887 33.7087 70.2533 35.277 69.5961C36.1324 69.4096 37.5313 68.7079 38.2174 69.6849C37.3976 71.843 36.4977 75.36 34.2434 81.5946C32.7375 88.895 28.3893 102.616 28.3893 102.616L13.1615 99.3215Z" fill="#C6896B"/>
<path d="M28.6128 79.0192C25.2358 80.0761 22.1083 81.9323 19.5688 84.3835" stroke="black" stroke-width="1.4" stroke-miterlimit="10" stroke-linecap="round" stroke-linejoin="round"/>
<path d="M13.2061 75.4399C17.2603 74.5518 21.3857 73.9568 25.5291 73.6815" stroke="black" stroke-width="1.4" stroke-miterlimit="10" stroke-linecap="round" stroke-linejoin="round"/>
<path d="M111.46 70.0933C96.2234 70.6351 72.8962 77.7845 65.3848 84.9427C55.815 94.0638 48.2323 102.501 35.0005 120.761L59.1564 147.182L66.6144 137.653C65.0105 165.993 59.1564 169.465 62.0077 207.255C62.0077 207.255 120.504 204.297 162.204 211.314L154.907 145.832L184.676 140.681C184.676 140.681 180.328 121.027 177.824 112.927C173.485 98.904 165.68 87.0831 151.824 80.3334C143.359 76.2125 126.902 69.5427 111.46 70.0933Z" fill="#F8CD3E"/>
<path d="M67.1047 114.189C64.69 137.111 68.3522 136.685 64.2891 153.586" stroke="black" stroke-width="1.4" stroke-miterlimit="10" stroke-linecap="round" stroke-linejoin="round"/>
<path d="M160.386 114.189C153.792 123.008 155.842 136.587 154.915 145.833" stroke="black" stroke-width="1.4" stroke-miterlimit="10" stroke-linecap="round" stroke-linejoin="round"/>
<path d="M145.864 222.921L157.154 160.335C157.154 160.335 159.853 149.66 175.349 155.175C188.607 159.9 183.528 179.981 170.323 209.608C165.699 219.982 159.274 232.664 159.274 232.664L145.864 222.921Z" fill="#C6896B"/>
<path d="M160.388 153.586C157.216 161.152 155.042 169.137 153.928 177.254" stroke="black" stroke-width="1.4" stroke-miterlimit="10" stroke-linecap="round" stroke-linejoin="round"/>
<path d="M88.6063 45.746C91.1196 45.3858 92.7654 42.3782 92.2822 39.0283C91.799 35.6784 89.3699 33.2548 86.8565 33.6149C84.3431 33.9751 82.6974 36.9827 83.1805 40.3326C83.6637 43.6825 86.0929 46.1061 88.6063 45.746Z" fill="#C6896B"/>
<path d="M86.2974 36.4781C87.5983 37.535 88.5071 39.0714 88.8012 40.7233" stroke="black" stroke-miterlimit="10" stroke-linecap="round" stroke-linejoin="round"/>
<path d="M89.0777 20.2166C89.0777 20.2166 85.8878 37.233 89.3896 43.9116C89.3896 43.9116 102.31 24.7637 102.621 20.7317C102.933 16.6996 90.1291 13.8043 89.0777 20.2166Z" fill="black"/>
<path d="M94.3882 72.598C94.3882 72.598 96.7672 64.0454 97.979 56.4342C99.5829 46.3362 121.315 38.7872 122.572 49.0805C123.596 57.5266 126.243 72.1095 126.243 72.1095C126.243 72.1095 109.064 89.3391 105.446 89.4901C102.532 89.6144 94.3882 72.598 94.3882 72.598Z" fill="#C6896B"/>
<path d="M89.2995 34.4797C86.6887 46.7091 85.8512 59.3471 95.0823 63.2637C104.304 67.1803 115.54 64.3206 122.188 52.2332C129.69 38.5828 126.874 24.3284 112.805 20.4207C95.2872 15.5627 92.5072 19.4971 89.2995 34.4797Z" fill="#C6896B"/>
<path d="M132.32 28.4495C130.422 39.3645 125.905 45.8833 124.542 50.1019L119.899 46.0165C118.563 39.622 118.295 33.6361 120.086 28.4583C120.077 28.4583 130.859 25.3854 132.32 28.4495Z" fill="black"/>
<path d="M126.665 48.8768C129.094 46.5118 129.624 43.127 127.85 41.3166C126.075 39.5062 122.668 39.9558 120.239 42.3208C117.81 44.6859 117.28 48.0707 119.054 49.8811C120.829 51.6915 124.236 51.2419 126.665 48.8768Z" fill="#C6896B"/>
<path d="M125.307 43.45C123.774 44.1516 122.518 45.4127 121.814 46.9314" stroke="black" stroke-miterlimit="10" stroke-linecap="round" stroke-linejoin="round"/>
<path d="M99.8767 40.5633L97.1501 45.7766C96.4284 47.1532 97.5511 48.7695 99.1015 48.5919L101.329 48.3344" stroke="black" stroke-miterlimit="10" stroke-linecap="round" stroke-linejoin="round"/>
<path d="M114.793 42.2773C114.793 42.2773 114.143 39.7107 109.902 39.6751C107.576 39.6574 105.438 42.2063 105.438 42.2063C105.438 42.2063 107.763 43.352 110.641 43.6983C112.726 43.9559 114.793 42.2773 114.793 42.2773Z" fill="white"/>
<path d="M110.926 43.5475C111.96 43.5475 112.798 42.7125 112.798 41.6824C112.798 40.6524 111.96 39.8174 110.926 39.8174C109.893 39.8174 109.055 40.6524 109.055 41.6824C109.055 42.7125 109.893 43.5475 110.926 43.5475Z" fill="black"/>
<path d="M105.438 42.2153C105.438 42.2153 107.87 39.4622 110.392 39.6931C113.403 39.9773 114.793 42.2775 114.793 42.2775" stroke="black" stroke-miterlimit="10" stroke-linecap="round" stroke-linejoin="round"/>
<path d="M114.953 38.6185C112.708 37.1531 110.721 36.3893 108.27 35.9363C107.593 35.812 106.72 35.6521 106.56 34.9949C106.444 34.542 106.729 34.0624 107.13 33.8137C107.531 33.5739 108.021 33.5206 108.484 33.5206C110.133 33.5206 111.737 34.0535 113.278 34.6575C114.517 35.1459 115.871 35.8209 116.29 37.0909C116.441 37.5438 116.441 38.0767 116.156 38.4675C115.88 38.8494 115.354 38.8849 114.953 38.6185Z" stroke="black" stroke-miterlimit="10" stroke-linecap="round" stroke-linejoin="round"/>
<path d="M89.8707 36.0341C89.8707 36.0341 91.2161 35.6522 93.4259 36.3005C96.1257 37.0998 96.6069 40.3415 96.6069 40.3415C96.6069 40.3415 93.016 40.9188 90.7528 39.2313C89.6925 38.4409 89.8707 36.0341 89.8707 36.0341Z" fill="white"/>
<path d="M93.212 40.1905C94.2454 40.1905 95.0832 39.3555 95.0832 38.3254C95.0832 37.2954 94.2454 36.4604 93.212 36.4604C92.1786 36.4604 91.3408 37.2954 91.3408 38.3254C91.3408 39.3555 92.1786 40.1905 93.212 40.1905Z" fill="black"/>
<path d="M96.6166 40.3412C96.6166 40.3412 95.6186 37.2949 93.4356 36.3002C91.6981 35.5098 89.8804 36.0338 89.8804 36.0338" stroke="black" stroke-miterlimit="10" stroke-linecap="round" stroke-linejoin="round"/>
<path d="M96.8125 52.1355L106.712 52.8371C106.712 52.8371 104.645 57.6685 101.259 57.1001C97.0709 56.3896 96.8125 52.1355 96.8125 52.1355Z" fill="white"/>
<path d="M114.124 23.5203C114.124 23.5203 111.299 27.3658 106.523 26.3179C102.781 25.4919 102.113 21.9749 102.113 21.9749C102.113 21.9749 99.6714 25.6784 95.1093 25.5452C90.5383 25.412 89.1216 22.8897 88.6404 20.9003C87.9454 18.0139 88.6404 11.948 94.3787 11.0866C98.522 10.4649 102.63 13.3957 102.63 13.3957C102.63 13.3957 105.436 10.8645 109.054 11.2731C113.892 11.8148 115.755 15.8824 115.755 15.8824C118.036 14.0174 123.141 14.1417 125.173 15.1541C135.473 20.3319 132.399 30.4387 130.368 35.8652C129.129 39.169 112.253 32.286 114.124 23.5203Z" fill="black"/>
<path d="M106.024 49.1871C106.443 51.434 107.691 53.5122 109.491 54.9332" stroke="black" stroke-miterlimit="10" stroke-linecap="round" stroke-linejoin="round"/>
<path d="M97.979 64.2495C104.083 64.9777 111.371 63.5123 115.862 59.3293" stroke="black" stroke-miterlimit="10" stroke-linecap="round" stroke-linejoin="round"/>
<path d="M106.115 91.124C106.97 90.4136 108.03 89.9606 109.135 89.8185C109.456 89.7741 109.786 89.7652 110.089 89.8718C110.418 89.9872 110.677 90.227 110.917 90.4757C113.145 92.696 114.776 95.4936 115.613 98.5132C122.358 91.648 128.907 84.7917 134.886 77.2516" stroke="black" stroke-width="1.4" stroke-miterlimit="10" stroke-linecap="round" stroke-linejoin="round"/>
<path d="M102.675 90.4757C102.346 89.854 101.481 89.6853 100.831 89.9428C100.18 90.2004 99.6992 90.7599 99.2982 91.3371C98.0597 93.1134 97.2756 95.2094 97.035 97.3586C93.1412 91.5236 89.8087 85.3068 87.1089 78.8324" stroke="black" stroke-width="1.4" stroke-miterlimit="10" stroke-linecap="round" stroke-linejoin="round"/>
<path d="M92.9985 68.0953C93.6401 71.488 94.8251 74.774 96.5003 77.7936" stroke="black" stroke-width="1.4" stroke-miterlimit="10" stroke-linecap="round" stroke-linejoin="round"/>
<path d="M128.649 68.5481C127.321 71.248 125.388 73.6459 123.026 75.5287" stroke="black" stroke-width="1.4" stroke-miterlimit="10" stroke-linecap="round" stroke-linejoin="round"/>
<path d="M134.957 212.495C141.916 221.092 150.755 228.179 160.681 233.117" stroke="black" stroke-width="1.4" stroke-miterlimit="10" stroke-linecap="round" stroke-linejoin="round"/>
<path d="M82.5648 211.038C76.6662 217.291 69.5201 222.371 61.6611 225.888" stroke="black" stroke-width="1.4" stroke-miterlimit="10" stroke-linecap="round" stroke-linejoin="round"/>
<path d="M135.011 117.084H137.256C138.004 117.084 138.601 117.688 138.601 118.425V120.663C138.601 121.409 137.995 122.004 137.256 122.004H135.011C134.262 122.004 133.665 121.4 133.665 120.663V118.425C133.665 117.688 134.271 117.084 135.011 117.084Z" fill="black"/>
<path d="M127.374 117.084H129.62C130.368 117.084 130.965 117.688 130.965 118.425V120.663C130.965 121.409 130.359 122.004 129.62 122.004H127.374C126.626 122.004 126.029 121.4 126.029 120.663V118.425C126.029 117.688 126.635 117.084 127.374 117.084Z" fill="black"/>
<path d="M138.832 113.274H141.078C141.826 113.274 142.423 113.878 142.423 114.615V116.853C142.423 117.599 141.817 118.194 141.078 118.194H138.832C138.084 118.194 137.487 117.59 137.487 116.853V114.615C137.478 113.878 138.084 113.274 138.832 113.274Z" fill="black"/>
<path d="M131.197 113.274H133.442C134.191 113.274 134.788 113.878 134.788 114.615V116.853C134.788 117.599 134.182 118.194 133.442 118.194H131.197C130.449 118.194 129.852 117.59 129.852 116.853V114.615C129.852 113.878 130.449 113.274 131.197 113.274Z" fill="black"/>
<path d="M123.56 113.185H125.806C126.554 113.185 127.151 113.789 127.151 114.526V116.764C127.151 117.51 126.545 118.105 125.806 118.105H123.56C122.812 118.105 122.215 117.501 122.215 116.764V114.526C122.215 113.789 122.821 113.185 123.56 113.185Z" fill="black"/>
<path d="M240.71 260.456C254.907 268.349 268.258 267.126 280.755 256.766C283.109 254.82 284.297 251.802 284.015 248.763L270.432 102.265C270.039 98.0124 266.82 94.5525 262.594 93.8505C250.993 91.925 239.664 92.968 228.616 96.9794C224.591 98.4436 222.056 102.435 222.458 106.687L236.041 253.186C236.313 256.224 238.034 258.972 240.71 260.456Z" fill="#AB8DDB"/>
<path d="M222.62 102.966C227.792 98.4835 234.674 96.2671 241.516 95.9763C248.358 95.6955 255.169 97.2399 261.598 99.5966" stroke="black" stroke-width="1.4" stroke-miterlimit="10" stroke-linecap="round" stroke-linejoin="round"/>
<path d="M261.074 103.307C264.183 129.542 265.189 155.968 266.185 182.363C266.889 200.896 267.594 219.429 268.298 237.952" stroke="black" stroke-width="1.4" stroke-miterlimit="10" stroke-linecap="round" stroke-linejoin="round"/>
<path d="M223.535 126.774C223.535 126.774 243.094 111.932 272.243 121.85L272.615 125.852C272.615 125.852 238.808 116.445 224.722 131.187L223.535 126.774Z" fill="black"/>
<path d="M230.598 201.318C230.598 201.318 246.908 186.425 279.306 196.393L279.678 200.395C279.678 200.395 245.872 190.988 231.785 205.73L230.598 201.318Z" fill="black"/>
<path d="M162.199 122.252C162.199 122.252 138.233 171.011 135.747 180.308C133.262 189.604 145.99 200.295 161.887 183.968C174.263 171.262 187.615 141.286 191.448 128.5C193.984 120.076 173.75 105.293 162.199 122.252Z" fill="#FEB095"/>
<path d="M207.637 36.6571C207.637 36.6571 180.37 29.5568 178.408 57.2359C177.221 73.9136 189.576 90.4408 202.586 89.5783C218.473 88.5353 226.613 64.6772 224.942 56.4938C221.511 39.6858 207.637 36.6571 207.637 36.6571Z" fill="#A16E45"/>
<path d="M182.764 64.0459C180.46 60.8467 177.482 59.7436 175.077 61.4685C172.683 63.1834 172.562 66.6433 174.866 69.8424C177.17 73.0416 180.984 74.245 183.378 72.5301C185.793 70.8052 185.068 67.245 182.764 64.0459Z" fill="#FEB095"/>
<path d="M177.131 63.9756C178.358 65.0086 179.193 66.4928 179.435 68.0774" stroke="black" stroke-width="1.4" stroke-miterlimit="10" stroke-linecap="round" stroke-linejoin="round"/>
<path d="M215.847 65.9212C217.427 62.3109 220.103 60.6161 222.81 61.7894C225.516 62.9628 226.361 66.3224 224.782 69.9327C223.202 73.543 219.731 75.5187 217.024 74.3453C214.318 73.1619 214.267 69.5316 215.847 65.9212Z" fill="#FEB095"/>
<path d="M218.565 69.732C217.196 86.7005 204.428 93.0888 193.662 93.0186C186.247 92.9684 178.701 79.871 178.469 64.0358C178.359 47.5186 186.408 37.2292 201.893 39.7664C212.508 41.4914 219.752 54.9899 218.565 69.732Z" fill="#FEB095"/>
<path d="M221.753 99.8482C221.753 99.8482 214.589 94.6634 218.292 72.0388L191.679 86.2995C193.218 98.9757 188.469 102.757 188.469 102.757C188.469 102.757 188.6 112.224 201.268 115.974C220.083 118.161 221.753 99.8482 221.753 99.8482Z" fill="#FEB095"/>
<path d="M195.724 92.9487C203.531 92.9487 209.83 89.8297 214.297 82.3584" stroke="black" stroke-width="1.4" stroke-miterlimit="10" stroke-linecap="round" stroke-linejoin="round"/>
<path d="M219.952 65.2495C218.976 66.5131 218.463 68.1477 218.563 69.7423" stroke="black" stroke-width="1.4" stroke-miterlimit="10" stroke-linecap="round" stroke-linejoin="round"/>
<path d="M191.448 67.2852L188.751 75.5387L193.219 75.5588" stroke="black" stroke-width="1.4" stroke-miterlimit="10" stroke-linecap="round" stroke-linejoin="round"/>
<path d="M196.941 59.5932C200.755 58.0287 205.504 57.3568 209.408 59.4728" stroke="black" stroke-width="1.4" stroke-miterlimit="10" stroke-linecap="round" stroke-linejoin="round"/>
<path d="M208.451 64.417C208.451 64.417 208.592 64.3869 205.101 63.7451C200.674 63.3941 198.782 66.5331 198.782 66.5331C198.782 66.5331 201.921 68.1577 204.88 67.7165C207.506 67.3254 208.451 64.417 208.451 64.417Z" fill="white"/>
<path d="M204.237 67.8166C205.404 67.8166 206.35 66.8737 206.35 65.7106C206.35 64.5475 205.404 63.6046 204.237 63.6046C203.07 63.6046 202.124 64.5475 202.124 65.7106C202.124 66.8737 203.07 67.8166 204.237 67.8166Z" fill="black"/>
<path d="M198.421 66.4731C198.421 66.4731 200.373 64.2166 203.311 63.7854C205.645 63.645 208.14 65.751 210.122 64.6077" stroke="black" stroke-width="1.4" stroke-miterlimit="10" stroke-linecap="round" stroke-linejoin="round"/>
<path d="M188.47 58.9515C185.653 56.9858 181.256 57.1062 179.606 57.5374" stroke="black" stroke-width="1.4" stroke-miterlimit="10" stroke-linecap="round" stroke-linejoin="round"/>
<path d="M180.329 62.9029C180.329 62.9029 180.329 62.9029 183.035 62.7625C187.553 62.8427 188.75 66.4731 188.75 66.4731C188.75 66.4731 185.923 67.7367 182.764 66.7639C180.469 66.0619 180.329 62.9029 180.329 62.9029Z" fill="white"/>
<path d="M184.354 67.0547C185.526 67.0547 186.477 66.1073 186.477 64.9387C186.477 63.77 185.526 62.8226 184.354 62.8226C183.181 62.8226 182.231 63.77 182.231 64.9387C182.231 66.1073 183.181 67.0547 184.354 67.0547Z" fill="black"/>
<path d="M188.751 66.4732C188.751 66.4732 186.869 62.9431 183.378 62.7826C181.144 62.6924 180.862 63.3743 178.971 62.9331" stroke="black" stroke-width="1.4" stroke-miterlimit="10" stroke-linecap="round" stroke-linejoin="round"/>
<path d="M199.618 78.9586C196.589 84.9156 190.603 83.0503 187.775 79.7409L199.618 78.9586Z" fill="white"/>
<path d="M218.453 62.361C218.453 62.361 206.812 54.8596 204.558 42.2737C204.558 42.2737 190.291 56.4441 178.298 58.841C178.298 58.841 178.469 31.8639 206.581 37.6103C223.082 40.9699 218.453 62.361 218.453 62.361Z" fill="#A16E45"/>
<path d="M189.274 102.415C189.274 102.415 192.162 109.756 201.409 108.914C210.675 108.061 217.99 98.9352 217.99 98.9352C217.99 98.9352 244.734 103.899 252.743 122.934C243.939 144.385 237.67 170.189 232.489 197.838C242.56 213.924 256.093 233.289 251.284 279.491C251.284 279.491 217.91 265.401 195.643 265.471C175.178 265.531 156.917 259.955 156.917 259.955C159.814 233.289 173.266 198.911 174.132 186.586C175.178 171.673 164.312 149.74 159.593 128.74C159.603 128.75 164.986 106.587 189.274 102.415Z" fill="#FEB095"/>
<path d="M179.053 55.6517C187.374 52.7333 194.92 47.6789 200.766 41.1001" stroke="black" stroke-width="1.4" stroke-miterlimit="10" stroke-linecap="round" stroke-linejoin="round"/>
<path d="M182.04 49.7545C186.316 48.4107 190.26 46.0439 193.45 42.915" stroke="black" stroke-width="1.4" stroke-miterlimit="10" stroke-linecap="round" stroke-linejoin="round"/>
<path d="M207.497 39.2546C208.734 45.9538 211.682 52.322 215.978 57.6171" stroke="black" stroke-width="1.4" stroke-miterlimit="10" stroke-linecap="round" stroke-linejoin="round"/>
<path d="M215.021 50.0855C215.756 52.1915 216.823 54.1772 218.171 55.9623" stroke="black" stroke-width="1.4" stroke-miterlimit="10" stroke-linecap="round" stroke-linejoin="round"/>
<path d="M209.92 39.1945C209.92 39.1945 214.579 27.2002 225.053 25.365C237.982 23.0884 254.433 31.4323 254.805 51.4395C255.137 69.4008 259.272 73.5125 261.576 78.0053C263.88 82.4982 264.977 93.0283 251.827 98.0125C238.676 102.987 224.399 88.0741 226.894 72.7905C229.379 57.5168 232.086 39.2245 228.383 36.4566C224.691 33.6887 220.757 37.0884 216.984 42.9351L209.92 39.1945Z" fill="#A16E45"/>
<path d="M210.233 37.2689C213.101 38.8334 215.717 40.8391 217.961 43.1959" stroke="black" stroke-width="1.4" stroke-miterlimit="10" stroke-linecap="round" stroke-linejoin="round"/>
<path d="M227.881 29.6673C230.93 30.3593 233.364 32.6358 235.256 35.1229C239.542 40.749 241.756 47.9094 241.414 54.9696C240.931 64.8277 235.658 74.385 237.288 84.1128" stroke="black" stroke-width="1.4" stroke-miterlimit="10" stroke-linecap="round" stroke-linejoin="round"/>
<path d="M233.132 46.8461C234.752 52.1613 234.893 57.9177 233.535 63.3031" stroke="black" stroke-width="1.4" stroke-miterlimit="10" stroke-linecap="round" stroke-linejoin="round"/>
<path d="M246.968 63.5336C245.811 68.4978 245.308 73.6023 245.469 78.6969C245.61 83.1596 246.435 87.9634 249.685 91.0422" stroke="black" stroke-width="1.4" stroke-miterlimit="10" stroke-linecap="round" stroke-linejoin="round"/>
<path d="M251.535 51.5898C251.877 55.4508 252.48 59.3219 253.849 62.9523C255.831 68.1972 259.363 72.7502 261.314 78.0053C263.266 83.2603 263.196 89.9694 258.91 93.5898" stroke="black" stroke-width="1.4" stroke-miterlimit="10" stroke-linecap="round" stroke-linejoin="round"/>
<path d="M234.27 28.0322C238.486 29.3159 241.917 32.5752 244 36.4463C246.082 40.3173 246.897 44.76 247.008 49.1526" stroke="black" stroke-width="1.4" stroke-miterlimit="10" stroke-linecap="round" stroke-linejoin="round"/>
<path d="M254.04 74.5158C257.351 79.4298 258.125 85.9585 256.043 91.5044C255.761 92.2565 255.429 92.9886 254.966 93.6404C253.688 95.4456 251.575 96.4284 249.563 97.341" stroke="black" stroke-width="1.4" stroke-miterlimit="10" stroke-linecap="round" stroke-linejoin="round"/>
<path d="M232.207 67.5355C231.181 72.6702 230.648 77.9954 231.664 83.1401C232.68 88.2848 235.407 93.249 239.794 96.1172" stroke="black" stroke-width="1.4" stroke-miterlimit="10" stroke-linecap="round" stroke-linejoin="round"/>
<path d="M213.542 36.8675C215.233 33.548 218.241 30.9205 221.753 29.687" stroke="black" stroke-width="1.4" stroke-miterlimit="10" stroke-linecap="round" stroke-linejoin="round"/>
<path d="M217.145 38.3923C218.815 36.0857 221.994 35.3737 224.821 35.6846C227.015 35.9253 229.5 37.0585 229.852 39.2347" stroke="black" stroke-width="1.4" stroke-miterlimit="10" stroke-linecap="round" stroke-linejoin="round"/>
<path d="M232.498 197.848C232.498 197.848 195.462 204.276 172.934 193.726C172.934 193.726 163.536 218.436 160.518 236.428C157.983 251.521 155.256 265.812 155.256 265.812C155.256 265.812 182.694 267.326 197.122 272.36C211.56 277.395 250.75 290.532 250.75 290.532C250.75 290.532 257.3 249.585 248.657 228.194C240.024 206.793 232.498 197.848 232.498 197.848Z" fill="#33B3A8"/>
<path d="M172.583 172.606C192.867 177.811 213.131 179.114 236.213 179.325L242.622 150.813C242.622 150.813 231.725 148.497 229.21 138.097C226.694 127.697 234.884 112.424 237.47 106.737C234.804 104.912 231.977 103.428 228.998 102.315C228.998 102.315 217.196 134.086 193.109 132.651C169.022 131.207 184.788 103.458 184.788 103.458C184.788 103.458 177.131 106.447 174.344 108.031C174.344 108.031 166.748 131.538 164.132 141.838C161.516 152.137 170.219 166.207 172.583 172.606Z" fill="#33B3A8"/>
<path d="M230.97 140.665C230.97 140.665 250.62 181.301 256.104 189.223C261.587 197.146 277.303 198.801 275.17 176.156C273.51 158.516 257.049 128.791 249.785 117.589C244.996 110.187 225.516 120.898 230.97 140.665Z" fill="#FEB095"/>
<path d="M261.034 195C248.97 192.021 230.014 175.845 211.199 158.606L218.544 147.223C218.544 147.223 243.869 156.771 264.404 167.922C283.632 178.362 273.097 197.968 261.034 195Z" fill="#FEB095"/>
<path d="M136.049 185.944C131.572 174.391 133.916 149.901 136.421 122.422L149.22 102.074C149.22 102.074 157.53 150.262 160.156 173.418C162.622 195.1 140.526 197.497 136.049 185.944Z" fill="#FEB095"/>
<path d="M235.97 202.351C235.97 202.351 201.741 177.68 199.618 148.767L202.344 149.7C202.344 149.7 208.794 178.181 237.68 198.82L235.97 202.351Z" fill="black"/>
<path d="M198.642 136.402C198.642 136.402 195.583 134.446 193.178 139.501C190.774 144.555 186.628 150.161 193.661 153.902C200.694 157.643 215.616 159.187 215.616 159.187L220.455 148.918C220.455 148.918 208.975 134.888 202.133 132.019C202.133 132.019 198.783 133.313 203.411 139.431L198.642 136.402Z" fill="#FEB095"/>
<path d="M209.409 143.031C205.867 141.537 204.287 140.644 201.178 138.378" stroke="black" stroke-width="1.4" stroke-miterlimit="10" stroke-linecap="round" stroke-linejoin="round"/>
<path d="M197.746 142.569C196.166 142.218 194.748 141.195 193.913 139.812" stroke="black" stroke-width="1.4" stroke-miterlimit="10" stroke-linecap="round" stroke-linejoin="round"/>
<path d="M195.049 146.782C193.379 146.441 191.86 145.448 190.894 144.054" stroke="black" stroke-width="1.4" stroke-miterlimit="10" stroke-linecap="round" stroke-linejoin="round"/>
<path d="M193.359 150.633C192.192 150.292 191.115 149.64 190.26 148.767" stroke="black" stroke-width="1.4" stroke-miterlimit="10" stroke-linecap="round" stroke-linejoin="round"/>
<path d="M201.178 138.388C201.178 138.388 211.682 109.926 227.882 101.893L231.121 103.237C231.121 103.237 213.151 115.763 204.881 141.386L201.178 138.388Z" fill="black"/>
<path d="M231.916 152.899C245.519 157.282 258.367 163.971 269.747 172.595" stroke="black" stroke-width="1.4" stroke-miterlimit="10" stroke-linecap="round" stroke-linejoin="round"/>
<path d="M187.01 191.69C186.859 192.773 187.282 193.927 188.107 194.659C188.922 195.391 190.119 195.682 191.186 195.421" stroke="black" stroke-width="1.4" stroke-miterlimit="10" stroke-linecap="round" stroke-linejoin="round"/>
<path d="M195.372 164.572C202.294 166.809 209.9 166.849 216.843 164.703" stroke="black" stroke-width="1.4" stroke-miterlimit="10" stroke-linecap="round" stroke-linejoin="round"/>
<path d="M121.159 106.136C121.159 106.136 119.207 108.513 118.915 109.686C118.613 110.849 120.515 114.781 120.515 114.781C120.515 114.781 123.835 112.775 123.433 110.228C123.03 107.67 121.159 106.136 121.159 106.136Z" fill="#FEB095"/>
<path d="M145.779 109.084C147.681 103.197 145.628 101.663 145.628 101.663L146.363 99.2661C146.363 99.2661 148.687 97.6515 149.361 95.4351C150.045 93.2188 148.637 91.173 148.637 91.173L131.019 85.7976C131.019 85.7976 128.715 86.7102 128.031 88.9265C127.347 91.1429 128.363 93.7804 128.363 93.7804L127.628 96.1773C127.628 96.1773 125.053 96.2976 123.332 102.245C121.611 108.182 115.363 128.199 115.363 128.199C115.363 128.199 115.122 132.772 119.478 134.196C121.511 134.868 126.632 136.472 131.029 137.716C135.436 138.959 137.811 135.038 137.811 135.038C137.811 135.038 143.868 114.971 145.779 109.084Z" fill="#AB8DDB"/>
<path d="M150.759 86.3391L149.894 85.7875L150.206 84.5339L144.994 82.809L145.558 80.7531L146.604 80.8735L146.966 79.7001L139.007 77.2732L138.645 78.4465L139.581 78.9279L138.897 80.9437L133.604 79.4695L133.162 80.6829L132.135 80.6528C132.135 80.6528 128.976 83.3104 131.029 85.7875L140.326 88.6256L148.807 91.213C151.886 90.3104 150.759 86.3391 150.759 86.3391Z" fill="black"/>
<path d="M129.511 93.9308C134.562 95.8062 139.653 97.5713 144.784 99.2059" stroke="black" stroke-width="1.4" stroke-miterlimit="10" stroke-linecap="round" stroke-linejoin="round"/>
<path d="M128.262 97.11C133.454 98.6845 138.646 100.259 143.837 101.834" stroke="black" stroke-width="1.4" stroke-miterlimit="10" stroke-linecap="round" stroke-linejoin="round"/>
<path d="M146.986 93.8807C146.986 93.8807 150.336 103.548 150.336 108.633C150.336 108.633 149.049 111.391 144.782 112.243C144.782 112.243 145.416 108.402 145.296 104.742C145.175 101.302 144.289 98.1027 144.521 96.2174C144.813 93.7704 146.986 93.8807 146.986 93.8807Z" fill="#FEB095"/>
<path d="M128.635 93.7104C128.635 93.7104 124.469 93.6603 123.644 95.295C122.819 96.9296 123.393 99.0657 123.393 99.0657C123.393 99.0657 120.817 100.761 120.435 102.596C120.052 104.431 120.062 108.112 121.572 110.669C122.809 112.765 124.62 109.806 124.681 108.031C124.681 108.031 125.616 109.064 126.753 108.282C128.997 106.728 128.665 95.2548 128.635 93.7104Z" fill="#FEB095"/>
<path d="M123.634 95.686C123.09 99.2963 123.171 103.007 123.865 106.597" stroke="black" stroke-width="1.4" stroke-miterlimit="10" stroke-linecap="round" stroke-linejoin="round"/>
<path d="M120.203 105.363C120.182 106.918 120.504 108.482 121.128 109.916" stroke="black" stroke-width="1.4" stroke-miterlimit="10" stroke-linecap="round" stroke-linejoin="round"/>
<path d="M155.126 137.966C158.678 146.631 161.022 170.199 159.875 177.439" stroke="black" stroke-width="1.4" stroke-miterlimit="10" stroke-linecap="round" stroke-linejoin="round"/>
</g>
<path d="M88.6063 45.746C91.1196 45.3858 92.7654 42.3782 92.2822 39.0283C91.799 35.6784 89.3699 33.2548 86.8565 33.6149C84.3431 33.9751 82.6974 36.9827 83.1805 40.3326C83.6637 43.6825 86.0929 46.1061 88.6063 45.746Z" fill="#C6896B"/>
<path d="M86.2974 36.4781C87.5983 37.535 88.5071 39.0714 88.8012 40.7233" stroke="black" stroke-miterlimit="10" stroke-linecap="round" stroke-linejoin="round"/>
<path d="M89.0777 20.2166C89.0777 20.2166 85.8878 37.233 89.3896 43.9116C89.3896 43.9116 102.31 24.7637 102.621 20.7317C102.933 16.6996 90.1291 13.8043 89.0777 20.2166Z" fill="black"/>
<path d="M94.3882 72.598C94.3882 72.598 96.7672 64.0454 97.979 56.4342C99.5829 46.3362 121.315 38.7872 122.572 49.0805C123.596 57.5266 126.243 72.1095 126.243 72.1095C126.243 72.1095 109.064 89.3391 105.446 89.4901C102.532 89.6144 94.3882 72.598 94.3882 72.598Z" fill="#C6896B"/>
<path d="M89.2995 34.4797C86.6887 46.7091 85.8512 59.3471 95.0823 63.2637C104.304 67.1803 115.54 64.3206 122.188 52.2332C129.69 38.5828 126.874 24.3284 112.805 20.4207C95.2872 15.5627 92.5072 19.4971 89.2995 34.4797Z" fill="#C6896B"/>
<path d="M132.32 28.4495C130.422 39.3645 125.905 45.8833 124.542 50.1019L119.899 46.0165C118.563 39.622 118.295 33.6361 120.086 28.4583C120.077 28.4583 130.859 25.3854 132.32 28.4495Z" fill="black"/>
<path d="M126.665 48.8768C129.094 46.5118 129.624 43.127 127.85 41.3166C126.075 39.5062 122.668 39.9558 120.239 42.3208C117.81 44.6859 117.28 48.0707 119.054 49.8811C120.829 51.6915 124.236 51.2419 126.665 48.8768Z" fill="#C6896B"/>
<path d="M125.307 43.45C123.774 44.1516 122.518 45.4127 121.814 46.9314" stroke="black" stroke-miterlimit="10" stroke-linecap="round" stroke-linejoin="round"/>
<path d="M99.8767 40.5633L97.1501 45.7766C96.4284 47.1532 97.5511 48.7695 99.1015 48.5919L101.329 48.3344" stroke="black" stroke-miterlimit="10" stroke-linecap="round" stroke-linejoin="round"/>
<path d="M114.793 42.2773C114.793 42.2773 114.143 39.7107 109.902 39.6751C107.576 39.6574 105.438 42.2063 105.438 42.2063C105.438 42.2063 107.763 43.352 110.641 43.6983C112.726 43.9559 114.793 42.2773 114.793 42.2773Z" fill="white"/>
<path d="M110.926 43.5475C111.96 43.5475 112.798 42.7125 112.798 41.6824C112.798 40.6524 111.96 39.8174 110.926 39.8174C109.893 39.8174 109.055 40.6524 109.055 41.6824C109.055 42.7125 109.893 43.5475 110.926 43.5475Z" fill="black"/>
<path d="M105.438 42.2153C105.438 42.2153 107.87 39.4622 110.392 39.6931C113.403 39.9773 114.793 42.2775 114.793 42.2775" stroke="black" stroke-miterlimit="10" stroke-linecap="round" stroke-linejoin="round"/>
<path d="M96.8483 33.4938C94.5583 32.6412 92.6337 32.3659 90.3705 32.4548C89.7468 32.4814 88.9359 32.5169 88.6597 31.9574C88.4637 31.5755 88.6241 31.0959 88.927 30.794C89.23 30.5009 89.6577 30.3588 90.0765 30.2611C91.5467 29.9236 93.0792 30.0746 94.5673 30.3055C95.7702 30.492 97.1067 30.8206 97.7393 31.8597C97.9621 32.2327 98.069 32.7034 97.8997 33.1031C97.7215 33.5116 97.2582 33.6448 96.8483 33.4938Z" stroke="black" stroke-miterlimit="10" stroke-linecap="round" stroke-linejoin="round"/>
<path d="M114.953 38.6185C112.708 37.1531 110.721 36.3893 108.27 35.9363C107.593 35.812 106.72 35.6521 106.56 34.9949C106.444 34.542 106.729 34.0624 107.13 33.8137C107.531 33.5739 108.021 33.5206 108.484 33.5206C110.133 33.5206 111.737 34.0535 113.278 34.6575C114.517 35.1459 115.871 35.8209 116.29 37.0909C116.441 37.5438 116.441 38.0767 116.156 38.4675C115.88 38.8494 115.354 38.8849 114.953 38.6185Z" stroke="black" stroke-miterlimit="10" stroke-linecap="round" stroke-linejoin="round"/>
<path d="M89.8707 36.0341C89.8707 36.0341 91.2161 35.6522 93.4259 36.3005C96.1257 37.0998 96.6069 40.3415 96.6069 40.3415C96.6069 40.3415 93.016 40.9188 90.7528 39.2313C89.6925 38.4409 89.8707 36.0341 89.8707 36.0341Z" fill="white"/>
<path d="M93.212 40.1905C94.2454 40.1905 95.0832 39.3555 95.0832 38.3254C95.0832 37.2954 94.2454 36.4604 93.212 36.4604C92.1786 36.4604 91.3408 37.2954 91.3408 38.3254C91.3408 39.3555 92.1786 40.1905 93.212 40.1905Z" fill="black"/>
<path d="M96.6166 40.3412C96.6166 40.3412 95.6186 37.2949 93.4356 36.3002C91.6981 35.5098 89.8804 36.0338 89.8804 36.0338" stroke="black" stroke-miterlimit="10" stroke-linecap="round" stroke-linejoin="round"/>
<path d="M96.8125 52.1355L106.712 52.8371C106.712 52.8371 104.645 57.6685 101.259 57.1001C97.0709 56.3896 96.8125 52.1355 96.8125 52.1355Z" fill="white"/>
<path d="M114.124 23.5203C114.124 23.5203 111.299 27.3658 106.523 26.3179C102.781 25.4919 102.113 21.9749 102.113 21.9749C102.113 21.9749 99.6714 25.6784 95.1093 25.5452C90.5383 25.412 89.1216 22.8897 88.6404 20.9003C87.9454 18.0139 88.6404 11.948 94.3787 11.0866C98.522 10.4649 102.63 13.3957 102.63 13.3957C102.63 13.3957 105.436 10.8645 109.054 11.2731C113.892 11.8148 115.755 15.8824 115.755 15.8824C118.036 14.0174 123.141 14.1417 125.173 15.1541C135.473 20.3319 132.399 30.4387 130.368 35.8652C129.129 39.169 112.253 32.286 114.124 23.5203Z" fill="black"/>
<path d="M106.024 49.1871C106.443 51.434 107.691 53.5122 109.491 54.9332" stroke="black" stroke-miterlimit="10" stroke-linecap="round" stroke-linejoin="round"/>
<path d="M97.979 64.2495C104.083 64.9777 111.371 63.5123 115.862 59.3293" stroke="black" stroke-miterlimit="10" stroke-linecap="round" stroke-linejoin="round"/>
<path d="M207.606 36.6569C207.606 36.6569 180.339 29.5566 178.377 57.2357C177.19 73.9134 189.545 90.4406 202.555 89.5781C218.442 88.5351 226.582 64.677 224.912 56.4936C221.481 39.6856 207.606 36.6569 207.606 36.6569Z" fill="#A16E45"/>
<path d="M182.733 64.0453C180.429 60.8461 177.45 59.743 175.046 61.4679C172.651 63.1828 172.53 66.6427 174.834 69.8418C177.138 73.041 180.952 74.2444 183.346 72.5295C185.761 70.8046 185.037 67.2444 182.733 64.0453Z" fill="#FEB095"/>
<path d="M177.098 63.9748C178.326 65.0077 179.161 66.492 179.402 68.0765" stroke="black" stroke-width="1.4" stroke-miterlimit="10" stroke-linecap="round" stroke-linejoin="round"/>
<path d="M215.815 65.9204C217.395 62.3101 220.071 60.6153 222.778 61.7886C225.484 62.962 226.33 66.3216 224.75 69.9319C223.17 73.5422 219.699 75.5179 216.992 74.3445C214.286 73.1611 214.236 69.5308 215.815 65.9204Z" fill="#FEB095"/>
<path d="M218.532 69.7312C217.164 86.6996 204.395 93.0879 193.63 93.0177C186.214 92.9676 178.668 79.8701 178.437 64.0349C178.326 47.5177 186.375 37.2283 201.86 39.7656C212.475 41.4905 219.719 54.989 218.532 69.7312Z" fill="#FEB095"/>
<path d="M221.721 99.8476C221.721 99.8476 214.557 94.6628 218.26 72.0381L191.647 86.2989C193.187 98.9751 188.438 102.756 188.438 102.756C188.438 102.756 188.568 112.223 201.236 115.974C220.051 118.16 221.721 99.8476 221.721 99.8476Z" fill="#FEB095"/>
<path d="M195.692 92.9478C203.5 92.9478 209.798 89.8289 214.266 82.3575" stroke="black" stroke-width="1.4" stroke-miterlimit="10" stroke-linecap="round" stroke-linejoin="round"/>
<path d="M219.92 65.2488C218.944 66.5125 218.431 68.1471 218.531 69.7417" stroke="black" stroke-width="1.4" stroke-miterlimit="10" stroke-linecap="round" stroke-linejoin="round"/>
<path d="M191.415 67.2845L188.719 75.5381L193.186 75.5582" stroke="black" stroke-width="1.4" stroke-miterlimit="10" stroke-linecap="round" stroke-linejoin="round"/>
<path d="M196.91 59.5921C200.723 58.0276 205.472 57.3557 209.376 59.4717" stroke="black" stroke-width="1.4" stroke-miterlimit="10" stroke-linecap="round" stroke-linejoin="round"/>
<path d="M208.421 64.4165C208.421 64.4165 208.561 64.3864 205.07 63.7445C200.643 63.3935 198.751 66.5325 198.751 66.5325C198.751 66.5325 201.891 68.1572 204.849 67.7159C207.475 67.3248 208.421 64.4165 208.421 64.4165Z" fill="white"/>
<path d="M204.205 67.816C205.372 67.816 206.318 66.8731 206.318 65.71C206.318 64.5469 205.372 63.604 204.205 63.604C203.038 63.604 202.092 64.5469 202.092 65.71C202.092 66.8731 203.038 67.816 204.205 67.816Z" fill="black"/>
<path d="M198.389 66.4723C198.389 66.4723 200.341 64.2158 203.279 63.7846C205.613 63.6442 208.109 65.7502 210.091 64.6069" stroke="black" stroke-width="1.4" stroke-miterlimit="10" stroke-linecap="round" stroke-linejoin="round"/>
<path d="M188.437 58.9504C185.62 56.9848 181.223 57.1051 179.573 57.5364" stroke="black" stroke-width="1.4" stroke-miterlimit="10" stroke-linecap="round" stroke-linejoin="round"/>
<path d="M180.297 62.9021C180.297 62.9021 180.297 62.9021 183.003 62.7617C187.521 62.8419 188.718 66.4723 188.718 66.4723C188.718 66.4723 185.891 67.7359 182.732 66.7631C180.438 66.0611 180.297 62.9021 180.297 62.9021Z" fill="white"/>
<path d="M184.322 67.0537C185.494 67.0537 186.445 66.1063 186.445 64.9377C186.445 63.769 185.494 62.8217 184.322 62.8217C183.149 62.8217 182.199 63.769 182.199 64.9377C182.199 66.1063 183.149 67.0537 184.322 67.0537Z" fill="black"/>
<path d="M188.719 66.4723C188.719 66.4723 186.837 62.9422 183.346 62.7817C181.112 62.6915 180.831 63.3734 178.939 62.9321" stroke="black" stroke-width="1.4" stroke-miterlimit="10" stroke-linecap="round" stroke-linejoin="round"/>
<path d="M199.586 78.9578C196.558 84.9148 190.571 83.0495 187.744 79.74L199.586 78.9578Z" fill="white"/>
<path d="M218.421 62.3609C218.421 62.3609 206.78 54.8594 204.526 42.2735C204.526 42.2735 190.259 56.4439 178.266 58.8408C178.266 58.8408 178.437 31.8637 206.549 37.6101C223.05 40.9697 218.421 62.3609 218.421 62.3609Z" fill="#A16E45"/>
<path d="M179.021 55.6513C187.341 52.7329 194.888 47.6785 200.733 41.0997" stroke="black" stroke-width="1.4" stroke-miterlimit="10" stroke-linecap="round" stroke-linejoin="round"/>
<path d="M182.008 49.7543C186.284 48.4105 190.229 46.0437 193.418 42.9148" stroke="black" stroke-width="1.4" stroke-miterlimit="10" stroke-linecap="round" stroke-linejoin="round"/>
<path d="M207.464 39.2545C208.701 45.9536 211.649 52.3218 215.946 57.6169" stroke="black" stroke-width="1.4" stroke-miterlimit="10" stroke-linecap="round" stroke-linejoin="round"/>
<path d="M214.99 50.0853C215.724 52.1913 216.791 54.177 218.139 55.9621" stroke="black" stroke-width="1.4" stroke-miterlimit="10" stroke-linecap="round" stroke-linejoin="round"/>
<path d="M209.888 39.1942C209.888 39.1942 214.547 27.2 225.021 25.3647C237.95 23.0882 254.4 31.432 254.773 51.4392C255.105 69.4005 259.24 73.5123 261.544 78.0051C263.848 82.4979 264.945 93.028 251.794 98.0123C238.644 102.986 224.367 88.0739 226.862 72.7902C229.347 57.5166 232.054 39.2243 228.351 36.4564C224.659 33.6885 220.724 37.0882 216.951 42.9349L209.888 39.1942Z" fill="#A16E45"/>
<path d="M210.201 37.2687C213.069 38.8332 215.685 40.8389 217.928 43.1957" stroke="black" stroke-width="1.4" stroke-miterlimit="10" stroke-linecap="round" stroke-linejoin="round"/>
<path d="M227.85 29.6671C230.898 30.3591 233.333 32.6356 235.225 35.1227C239.511 40.7488 241.724 47.9092 241.382 54.9694C240.899 64.8276 235.627 74.3849 237.257 84.1127" stroke="black" stroke-width="1.4" stroke-miterlimit="10" stroke-linecap="round" stroke-linejoin="round"/>
<path d="M233.101 46.8459C234.721 52.1611 234.862 57.9176 233.504 63.3029" stroke="black" stroke-width="1.4" stroke-miterlimit="10" stroke-linecap="round" stroke-linejoin="round"/>
<path d="M246.936 63.5334C245.779 68.4976 245.276 73.6021 245.437 78.6967C245.577 83.1595 246.402 87.9632 249.652 91.042" stroke="black" stroke-width="1.4" stroke-miterlimit="10" stroke-linecap="round" stroke-linejoin="round"/>
<path d="M251.503 51.5896C251.846 55.4506 252.449 59.3217 253.818 62.9521C255.8 68.1971 259.331 72.7501 261.283 78.0051C263.235 83.2601 263.165 89.9693 258.879 93.5896" stroke="black" stroke-width="1.4" stroke-miterlimit="10" stroke-linecap="round" stroke-linejoin="round"/>
<path d="M234.238 28.032C238.454 29.3157 241.885 32.575 243.967 36.4461C246.05 40.3171 246.865 44.7598 246.976 49.1524" stroke="black" stroke-width="1.4" stroke-miterlimit="10" stroke-linecap="round" stroke-linejoin="round"/>
<path d="M254.009 74.5154C257.319 79.4294 258.094 85.9581 256.011 91.5039C255.73 92.2561 255.398 92.9881 254.935 93.64C253.657 95.4452 251.544 96.428 249.532 97.3406" stroke="black" stroke-width="1.4" stroke-miterlimit="10" stroke-linecap="round" stroke-linejoin="round"/>
<path d="M232.176 67.5353C231.15 72.67 230.616 77.9953 231.633 83.14C232.649 88.2847 235.376 93.2488 239.762 96.117" stroke="black" stroke-width="1.4" stroke-miterlimit="10" stroke-linecap="round" stroke-linejoin="round"/>
<path d="M213.511 36.8673C215.202 33.5478 218.21 30.9203 221.721 29.6868" stroke="black" stroke-width="1.4" stroke-miterlimit="10" stroke-linecap="round" stroke-linejoin="round"/>
<path d="M217.114 38.3921C218.784 36.0855 221.963 35.3735 224.791 35.6844C226.984 35.9251 229.469 37.0583 229.821 39.2345" stroke="black" stroke-width="1.4" stroke-miterlimit="10" stroke-linecap="round" stroke-linejoin="round"/>
<path d="M9.44652 210.923C5.67012 213.545 4.68661 221.256 10.0438 225.7C15.4011 230.144 22.3691 234.478 26.2448 232.093C32.158 228.459 30.1245 216.168 26.9456 209.82C23.7667 203.472 17.6963 205.203 9.44652 210.923Z" fill="#F38059"/>
<path d="M9.77582 211.79C9.77582 211.79 4.84782 210.631 1.21471 208.226C1.21471 208.226 5.69891 206.283 8.95786 208.221C8.95786 208.221 7.73127 204.211 6.63865 200.956C6.63865 200.956 11.7195 204.565 13.1956 206.641C13.1956 206.641 14.504 201.749 15.9723 199.674C15.9723 199.674 18.1703 205.161 17.835 207.926L9.77582 211.79Z" fill="#32B2A8"/>
<path d="M11.5212 217.829C10.4353 217.366 9.90608 219.118 10.9902 219.571C12.0891 220.053 12.6183 218.301 11.5212 217.829Z" fill="black"/>
<path d="M16.8424 213.021C15.7566 212.558 15.2275 214.309 16.3114 214.762C17.4008 215.246 17.9299 213.494 16.8424 213.021Z" fill="black"/>
<path d="M22.8895 220.039C21.8036 219.576 21.2743 221.328 22.3585 221.781C23.4556 222.254 23.9867 220.512 22.8895 220.039Z" fill="black"/>
<path d="M23.2488 209.668C22.1629 209.205 21.6337 210.957 22.7178 211.41C23.8149 211.882 24.3365 210.141 23.2488 209.668Z" fill="black"/>
<path d="M25.5779 214.596C24.4921 214.133 23.9629 215.885 25.0469 216.338C26.1345 216.811 26.6655 215.07 25.5779 214.596Z" fill="black"/>
<path d="M18.5419 226.23C17.456 225.767 16.9268 227.519 18.0109 227.972C19.108 228.444 19.6278 226.693 18.5419 226.23Z" fill="black"/>
<path d="M16.6414 219.347C15.5555 218.883 15.0263 220.635 16.1104 221.088C17.198 221.562 17.729 219.82 16.6414 219.347Z" fill="black"/>
<path d="M9.33782 205.032C10.421 206.852 11.6785 208.552 13.0793 210.113" stroke="black" stroke-width="1.4" stroke-miterlimit="10" stroke-linecap="round" stroke-linejoin="round"/>
<path d="M16.3777 203.408C16.1273 204.863 16.1485 206.408 16.4473 207.921" stroke="black" stroke-width="1.4" stroke-miterlimit="10" stroke-linecap="round" stroke-linejoin="round"/>
<path d="M5.12132 209.293C7.11403 209.777 9.04839 210.7 10.7492 212.007" stroke="black" stroke-width="1.4" stroke-miterlimit="10" stroke-linecap="round" stroke-linejoin="round"/>
<path d="M303.441 78.5005C305.323 75.7252 306.863 72.5544 307.972 69.3501C308.974 66.4474 309.276 63.0219 307.475 60.4879C305.975 58.3696 303.145 57.7864 301.122 59.2277C300.658 58.2154 299.844 57.4311 298.762 57.1361C297.969 56.9216 297.176 57.0155 296.463 57.344C295.952 56.5462 295.246 55.9027 294.399 55.5206C292.752 54.7698 290.803 55.0848 289.33 56.2043C288.349 54.7899 286.305 54.4279 284.745 55.1854C282.251 56.392 280.846 59.6031 279.764 62.1169C278.581 64.8721 277.707 67.7814 277.243 70.7511C276.846 73.2851 276.759 76.1945 278.379 78.2257C279.556 79.7071 281.64 80.3641 283.334 79.6401C283.737 81.3361 284.846 82.7908 286.406 83.4276C287.992 84.0779 289.808 83.7896 291.233 82.7841C292.208 84.6745 294.614 85.3918 296.577 84.7952C299.468 83.9036 301.734 81.021 303.441 78.5005Z" fill="#F8CD3D"/>
<path d="M304.214 62.1638C302.399 60.9706 300.765 60.0388 298.365 59.6299C298.553 59.0399 299.972 55.3865 300.348 53.6838C299.69 53.4156 299.024 53.1676 298.325 53C297.626 54.8435 296.812 56.6266 295.871 58.3495C293.579 56.8948 290.843 56.5462 288.207 57.3976C287.454 57.6389 287.717 58.6846 288.322 58.8522C289.774 59.2612 291.125 59.9315 292.348 60.8365C290.93 62.613 289.807 64.6173 289.021 66.796C288.779 67.4731 289.458 68.1769 290.056 67.701C291.696 66.4072 293.444 65.348 295.313 64.5235C296.321 66.0117 297.263 67.5468 298.143 69.1288C298.5 69.7657 299.521 69.33 299.427 68.5993C299.219 67.0105 298.903 65.4553 298.479 63.9269C300.261 63.7861 302.042 63.6386 303.817 63.4978C304.382 63.4643 304.745 62.5057 304.214 62.1638Z" fill="#32B2A8"/>
<path d="M286.527 69.5378C284.577 72.655 283.367 76.2213 283.024 79.8747" stroke="black" stroke-width="2" stroke-miterlimit="10" stroke-linecap="round" stroke-linejoin="round"/>
<path d="M297.512 71.3947C295.703 75.2828 293.882 79.191 291.401 82.6903" stroke="black" stroke-width="2" stroke-miterlimit="10" stroke-linecap="round" stroke-linejoin="round"/>
<path d="M277.134 218.697C281.075 218.697 284.269 216.464 284.269 213.71C284.269 210.956 281.075 208.723 277.134 208.723C273.194 208.723 270 210.956 270 213.71C270 216.464 273.194 218.697 277.134 218.697Z" fill="#F887A8"/>
<path d="M277.15 211.435C277.669 212.631 277.99 213.87 278.067 215.119L277.15 211.435Z" fill="#F887A8"/>
<path d="M277.15 211.435C277.669 212.631 277.99 213.87 278.067 215.119" stroke="black" stroke-width="2" stroke-linecap="round" stroke-linejoin="round"/>
<path d="M274.552 213.432C276.6 213.122 278.662 212.898 280.74 212.749L274.552 213.432Z" fill="#F887A8"/>
<path d="M274.552 213.432C276.6 213.122 278.662 212.898 280.74 212.749" stroke="black" stroke-width="2" stroke-linecap="round" stroke-linejoin="round"/>
<path d="M30.2581 11.3008C28.8714 13.4959 31.3321 14.7562 33.951 15.0901C38.1595 15.6216 42.1127 14.2877 45.3033 12.1936C46.5836 11.3172 47.7411 10.3509 48.7636 9.31176C49.8974 8.15187 50.7078 6.99561 51.3153 5.80055C51.3021 5.78555 51.2889 5.77054 51.2756 5.75554C51.2841 5.52419 51.2388 5.28738 51.105 5.05527C50.6128 4.16303 49.3381 3.67408 48.0691 3.46343C45.0637 2.96289 41.7697 3.75347 39.0654 5.07739C37.6553 5.76305 36.3747 6.57114 35.1518 7.42604C33.1441 8.46545 31.2799 9.69243 30.2581 11.3008Z" fill="#32B2A8"/>
<path d="M31.8508 13.5062C36.0373 12.2022 39.849 10.2506 43.6187 8.31298C47.509 6.3148 51.3993 4.31662 55.2972 2.31466" stroke="black" stroke-miterlimit="10" stroke-linecap="round" stroke-linejoin="round"/>
<path d="M38.1087 14.8029C39.198 13.2596 40.4116 11.1569 41.157 9.51925" stroke="black" stroke-miterlimit="10" stroke-linecap="round" stroke-linejoin="round"/>
<path d="M32.773 9.00397C35.4692 8.6352 38.5555 9.10424 41.1463 9.47267" stroke="black" stroke-miterlimit="10" stroke-linecap="round" stroke-linejoin="round"/>
<path d="M45.8149 12.2743C46.5995 10.7626 47.2808 8.06384 47.6417 6.48056" stroke="black" stroke-miterlimit="10" stroke-linecap="round" stroke-linejoin="round"/>
<path d="M39.5825 5.29071C41.8107 5.56617 45.3594 6.21048 47.5893 6.48033" stroke="black" stroke-miterlimit="10" stroke-linecap="round" stroke-linejoin="round"/>
</g>
<defs>
<clipPath id="clip0_6342_15149">
<rect width="311" height="228" fill="white"/>
</clipPath>
</defs>
</svg>
