<svg width="309" height="340" viewBox="0 0 309 340" fill="none" xmlns="http://www.w3.org/2000/svg">
<path d="M48.4645 102.574L71.8185 125.683C71.8185 125.683 41.4075 161.163 32.3902 166.421C8.71544 180.214 5.87305 150.586 5.87305 150.586L48.4645 102.574Z" fill="#C6896B"/>
<path d="M28.2913 96.7035L32.8801 136.669C32.8801 136.669 39.1886 172.158 19.5681 170C-3.55427 167.46 4.34029 126.456 10.1142 105.158C13.3397 93.2487 15.6297 88.8259 15.6297 88.8259L28.2913 96.7035Z" fill="#C6896B"/>
<path d="M30.5103 118.134C31.7844 127.699 32.925 140.568 32.1587 146.918" stroke="black" stroke-width="1.4" stroke-miterlimit="10" stroke-linecap="round" stroke-linejoin="round"/>
<path d="M13.1608 96.3215C13.1608 96.3215 11.5213 85.7351 10.1045 79.9978C9.61445 78.0261 7.93039 73.0349 7.5116 70.6636C6.62948 65.5836 7.21756 59.2423 8.50956 59.1358C11.4232 59.571 11.0312 64.1803 11.6549 66.9957C12.4747 70.8323 13.3568 70.486 13.3568 70.486C13.3568 70.486 13.1073 66.0099 12.6707 62.0755C12.2163 57.7237 12.0024 54.6508 13.5974 54.4287C14.8092 54.3044 15.7893 56.6046 16.1814 59.7131C17.215 67.6884 17.7941 69.6778 17.7941 69.6778C17.7941 69.6778 17.705 64.8109 17.2417 59.9706C16.9387 55.8142 16.912 52.1907 18.7475 52.1729C20.5831 52.1551 21.1355 57.0132 21.679 61.3739C22.2226 65.7345 22.6592 69.6689 22.6592 69.6689C23.8175 69.8643 23.4077 64.7043 23.4522 62.8215C23.5502 57.9102 23.1938 55.1392 25.0204 55.2014C26.1877 55.3169 27.2035 60.166 27.7915 64.7842C28.5133 70.2462 28.7984 76.1256 28.7984 76.1256C28.7984 76.1256 29.8409 76.3831 31.8457 72.1201C32.8437 69.9886 33.708 67.2532 35.2762 66.596C36.1316 66.4095 37.5305 65.7079 38.2166 66.6848C37.3969 68.8429 36.4969 72.3599 34.2426 78.5945C32.7368 85.8949 28.3885 99.6164 28.3885 99.6164L13.1608 96.3215Z" fill="#C6896B"/>
<path d="M28.6123 76.0191C25.2353 77.076 22.1078 78.9322 19.5684 81.3834" stroke="black" stroke-width="1.4" stroke-miterlimit="10" stroke-linecap="round" stroke-linejoin="round"/>
<path d="M13.2053 72.4399C17.2595 71.5518 21.385 70.9567 25.5283 70.6814" stroke="black" stroke-width="1.4" stroke-miterlimit="10" stroke-linecap="round" stroke-linejoin="round"/>
<mask id="mask0_6342_14150" style="mask-type:alpha" maskUnits="userSpaceOnUse" x="5" y="32" width="306" height="308">
<path d="M13.8402 250.338C-1.80284 207.06 -1.80309 88.0459 56.8583 58.2924C201.556 -18.796 294.111 92.1037 308.451 154.315C322.79 216.527 275.861 319.312 187.217 336.893C98.5735 354.475 29.4832 293.615 13.8402 250.338Z" fill="#FAF2E8"/>
</mask>
<g mask="url(#mask0_6342_14150)">
<path d="M161.911 230.89C161.911 230.89 164.094 243.839 161.956 247.382C159.826 250.926 150.782 256.885 148.43 257.089C148.43 257.089 147.619 238.927 150.515 225.685C150.515 225.685 153.892 222.124 157.438 223.305C160.985 224.486 161.911 230.89 161.911 230.89Z" fill="#C6896B"/>
<path d="M87.0731 71.5606C87.0731 71.5606 88.775 67.0934 91.3412 64.7665C93.9073 62.4396 107.246 60.5746 112.797 60.4236C118.348 60.2726 129.691 62.7505 132.427 64.6155C135.162 66.4806 135.786 71.5695 135.786 71.5695C135.786 71.5695 118.357 97.2096 102.622 92.8667C86.886 88.5238 87.0731 71.5606 87.0731 71.5606Z" fill="#F8CD3E"/>
<path d="M147.841 120.691L179.232 114.874C179.232 114.874 186.744 149.573 181.887 172.318C179.535 183.348 160.948 183.224 158.275 171.084C155.611 158.952 147.841 120.691 147.841 120.691Z" fill="#C6896B"/>
<path d="M63.3266 192.043C58.7467 232.24 53.2668 354.374 75.0615 416.845H105.437C107.29 402.093 112.129 240.846 112.129 240.846C112.129 240.846 117.305 402.173 116.851 416.845H148.474C165.68 364.152 162.891 187.842 162.891 187.842L63.3266 192.043Z" fill="#AB8DDB"/>
<path d="M48.4652 102.574L71.8192 125.683C71.8192 125.683 41.4082 161.163 32.3909 166.421C8.71617 180.214 5.87378 150.586 5.87378 150.586L48.4652 102.574Z" fill="#C6896B"/>
<path d="M28.292 96.7036L32.8808 136.669C32.8808 136.669 39.1894 172.158 19.5688 170C-3.55354 167.46 4.34103 126.456 10.1149 105.158C13.3405 93.2488 15.6304 88.8259 15.6304 88.8259L28.292 96.7036Z" fill="#C6896B"/>
<path d="M30.511 118.134C31.7852 127.699 32.9257 140.568 32.1594 146.918" stroke="black" stroke-width="1.4" stroke-miterlimit="10" stroke-linecap="round" stroke-linejoin="round"/>
<path d="M13.1615 96.3215C13.1615 96.3215 11.522 85.7351 10.1052 79.9978C9.61518 78.0262 7.93112 73.035 7.51234 70.6637C6.63021 65.5836 7.21829 59.2424 8.51029 59.1358C11.424 59.571 11.0319 64.1804 11.6556 66.9957C12.4754 70.8324 13.3575 70.486 13.3575 70.486C13.3575 70.486 13.108 66.0099 12.6714 62.0755C12.217 57.7237 12.0031 54.6508 13.5981 54.4288C14.8099 54.3045 15.79 56.6047 16.1821 59.7131C17.2157 67.6885 17.7949 69.6779 17.7949 69.6779C17.7949 69.6779 17.7058 64.8109 17.2424 59.9707C16.9395 55.8143 16.9127 52.1907 18.7483 52.173C20.5838 52.1552 21.1362 57.0132 21.6798 61.3739C22.2233 65.7346 22.6599 69.669 22.6599 69.669C23.8183 69.8644 23.4084 64.7044 23.4529 62.8216C23.5509 57.9102 23.1945 55.1393 25.0212 55.2015C26.1884 55.3169 27.2042 60.1661 27.7923 64.7843C28.514 70.2463 28.7991 76.1256 28.7991 76.1256C28.7991 76.1256 29.8416 76.3832 31.8465 72.1202C32.8444 69.9887 33.7087 67.2533 35.277 66.5961C36.1324 66.4096 37.5313 65.7079 38.2174 66.6849C37.3976 68.843 36.4977 72.36 34.2434 78.5946C32.7375 85.895 28.3893 99.6165 28.3893 99.6165L13.1615 96.3215Z" fill="#C6896B"/>
<path d="M28.6131 76.0192C25.2361 77.0761 22.1085 78.9323 19.5691 81.3835" stroke="black" stroke-width="1.4" stroke-miterlimit="10" stroke-linecap="round" stroke-linejoin="round"/>
<path d="M13.2061 72.44C17.2603 71.5519 21.3857 70.9568 25.5291 70.6815" stroke="black" stroke-width="1.4" stroke-miterlimit="10" stroke-linecap="round" stroke-linejoin="round"/>
<path d="M111.461 67.0934C96.2239 67.6351 72.8967 74.7845 65.3852 81.9428C55.8155 91.0638 48.2328 99.5009 35.001 117.761L59.1569 144.182L66.6149 134.653C65.011 162.993 59.1569 166.465 62.0082 204.255C62.0082 204.255 120.505 201.297 162.205 208.314L154.907 142.832L184.677 137.681C184.677 137.681 180.329 118.027 177.825 109.927C173.485 95.904 165.68 84.0831 151.824 77.3334C143.36 73.2125 126.902 66.5427 111.461 67.0934Z" fill="#F8CD3E"/>
<path d="M67.1052 111.189C64.6905 134.111 68.3527 133.685 64.2896 150.586" stroke="black" stroke-width="1.4" stroke-miterlimit="10" stroke-linecap="round" stroke-linejoin="round"/>
<path d="M160.386 111.189C153.793 120.008 155.842 133.587 154.916 142.833" stroke="black" stroke-width="1.4" stroke-miterlimit="10" stroke-linecap="round" stroke-linejoin="round"/>
<path d="M154.916 241.965C154.613 244.22 154.31 246.476 154.007 248.732C153.66 251.317 153.205 254.114 151.281 255.882" stroke="black" stroke-width="1.4" stroke-miterlimit="10" stroke-linecap="round" stroke-linejoin="round"/>
<path d="M159.149 240.837C159.149 244.301 159.149 248.235 157.154 252.791" stroke="black" stroke-width="1.4" stroke-miterlimit="10" stroke-linecap="round" stroke-linejoin="round"/>
<path d="M145.864 219.921L157.154 157.335C157.154 157.335 159.853 146.66 175.349 152.175C188.607 156.9 183.528 176.981 170.323 206.608C165.699 216.982 159.274 229.664 159.274 229.664L145.864 219.921Z" fill="#C6896B"/>
<path d="M160.388 150.586C157.216 158.152 155.042 166.137 153.928 174.254" stroke="black" stroke-width="1.4" stroke-miterlimit="10" stroke-linecap="round" stroke-linejoin="round"/>
<path d="M88.6063 42.746C91.1196 42.3858 92.7654 39.3782 92.2822 36.0283C91.799 32.6784 89.3699 30.2548 86.8565 30.6149C84.3431 30.9751 82.6974 33.9827 83.1805 37.3326C83.6637 40.6825 86.0929 43.1061 88.6063 42.746Z" fill="#C6896B"/>
<path d="M86.2976 33.4781C87.5985 34.5349 88.5074 36.0714 88.8014 37.7233" stroke="black" stroke-miterlimit="10" stroke-linecap="round" stroke-linejoin="round"/>
<path d="M89.0779 17.2165C89.0779 17.2165 85.888 34.233 89.3898 40.9116C89.3898 40.9116 102.31 21.7637 102.622 17.7316C102.934 13.6996 90.1294 10.8043 89.0779 17.2165Z" fill="black"/>
<path d="M94.3882 69.598C94.3882 69.598 96.7672 61.0454 97.979 53.4342C99.5829 43.3362 121.315 35.7872 122.572 46.0805C123.596 54.5266 126.243 69.1095 126.243 69.1095C126.243 69.1095 109.064 86.3391 105.446 86.4901C102.532 86.6144 94.3882 69.598 94.3882 69.598Z" fill="#C6896B"/>
<path d="M89.2997 31.4797C86.689 43.7091 85.8514 56.3471 95.0825 60.2637C104.305 64.1804 115.541 61.3206 122.188 49.2332C129.69 35.5828 126.875 21.3284 112.805 17.4207C95.2874 12.5627 92.5074 16.4971 89.2997 31.4797Z" fill="#C6896B"/>
<path d="M132.32 25.4495C130.422 36.3645 125.905 42.8833 124.541 47.1019L119.899 43.0165C118.562 36.622 118.295 30.6361 120.086 25.4584C120.077 25.4584 130.859 22.3854 132.32 25.4495Z" fill="black"/>
<path d="M126.665 45.8768C129.094 43.5118 129.624 40.1269 127.85 38.3165C126.075 36.5061 122.668 36.9558 120.239 39.3208C117.81 41.6858 117.28 45.0707 119.054 46.8811C120.829 48.6915 124.236 48.2419 126.665 45.8768Z" fill="#C6896B"/>
<path d="M125.307 40.45C123.774 41.1516 122.518 42.4127 121.814 43.9314" stroke="black" stroke-miterlimit="10" stroke-linecap="round" stroke-linejoin="round"/>
<path d="M99.8769 37.5633L97.1504 42.7766C96.4286 44.1532 97.5513 45.7695 99.1017 45.5919L101.329 45.3344" stroke="black" stroke-miterlimit="10" stroke-linecap="round" stroke-linejoin="round"/>
<path d="M114.793 39.2773C114.793 39.2773 114.143 36.7107 109.902 36.6752C107.576 36.6574 105.438 39.2063 105.438 39.2063C105.438 39.2063 107.763 40.352 110.641 40.6983C112.726 40.9559 114.793 39.2773 114.793 39.2773Z" fill="white"/>
<path d="M110.926 40.5475C111.96 40.5475 112.798 39.7125 112.798 38.6824C112.798 37.6524 111.96 36.8174 110.926 36.8174C109.893 36.8174 109.055 37.6524 109.055 38.6824C109.055 39.7125 109.893 40.5475 110.926 40.5475Z" fill="black"/>
<path d="M105.438 39.2153C105.438 39.2153 107.87 36.4621 110.392 36.6931C113.403 36.9773 114.793 39.2775 114.793 39.2775" stroke="black" stroke-miterlimit="10" stroke-linecap="round" stroke-linejoin="round"/>
<path d="M114.953 35.6185C112.708 34.1531 110.721 33.3893 108.271 32.9363C107.594 32.812 106.72 32.6521 106.56 31.9949C106.444 31.542 106.729 31.0624 107.13 30.8137C107.531 30.5739 108.021 30.5206 108.485 30.5206C110.133 30.5206 111.737 31.0535 113.278 31.6575C114.517 32.1459 115.871 32.8209 116.29 34.0909C116.442 34.5438 116.442 35.0767 116.156 35.4675C115.88 35.8494 115.354 35.8849 114.953 35.6185Z" stroke="black" stroke-miterlimit="10" stroke-linecap="round" stroke-linejoin="round"/>
<path d="M89.8704 33.0341C89.8704 33.0341 91.2159 32.6522 93.4256 33.3005C96.1255 34.0998 96.6066 37.3415 96.6066 37.3415C96.6066 37.3415 93.0158 37.9188 90.7525 36.2314C89.6922 35.4409 89.8704 33.0341 89.8704 33.0341Z" fill="white"/>
<path d="M93.212 37.1905C94.2454 37.1905 95.0832 36.3554 95.0832 35.3254C95.0832 34.2954 94.2454 33.4604 93.212 33.4604C92.1786 33.4604 91.3408 34.2954 91.3408 35.3254C91.3408 36.3554 92.1786 37.1905 93.212 37.1905Z" fill="black"/>
<path d="M96.6163 37.3412C96.6163 37.3412 95.6184 34.2949 93.4353 33.3002C91.6978 32.5098 89.8801 33.0338 89.8801 33.0338" stroke="black" stroke-miterlimit="10" stroke-linecap="round" stroke-linejoin="round"/>
<path d="M96.8125 49.1355L106.712 49.8371C106.712 49.8371 104.645 54.6685 101.259 54.1001C97.0709 53.3896 96.8125 49.1355 96.8125 49.1355Z" fill="white"/>
<path d="M114.124 20.5203C114.124 20.5203 111.299 24.3658 106.523 23.3179C102.781 22.4919 102.113 18.9749 102.113 18.9749C102.113 18.9749 99.6714 22.6784 95.1093 22.5452C90.5383 22.412 89.1216 19.8897 88.6404 17.9003C87.9454 15.0139 88.6404 8.94804 94.3787 8.08656C98.522 7.46488 102.63 10.3957 102.63 10.3957C102.63 10.3957 105.436 7.86452 109.054 8.27306C113.892 8.81481 115.755 12.8824 115.755 12.8824C118.036 11.0174 123.141 11.1417 125.173 12.1541C135.473 17.3319 132.399 27.4387 130.368 32.8652C129.129 36.169 112.253 29.286 114.124 20.5203Z" fill="black"/>
<path d="M106.025 46.187C106.443 48.434 107.691 50.5122 109.491 51.9332" stroke="black" stroke-miterlimit="10" stroke-linecap="round" stroke-linejoin="round"/>
<path d="M97.979 61.2494C104.083 61.9777 111.371 60.5123 115.862 56.3293" stroke="black" stroke-miterlimit="10" stroke-linecap="round" stroke-linejoin="round"/>
<path d="M106.115 88.124C106.97 87.4136 108.03 86.9606 109.135 86.8185C109.456 86.7741 109.786 86.7652 110.089 86.8718C110.418 86.9872 110.677 87.227 110.917 87.4757C113.145 89.696 114.776 92.4936 115.613 95.5132C122.358 88.648 128.907 81.7917 134.886 74.2516" stroke="black" stroke-width="1.4" stroke-miterlimit="10" stroke-linecap="round" stroke-linejoin="round"/>
<path d="M102.675 87.4757C102.346 86.854 101.482 86.6852 100.831 86.9428C100.181 87.2004 99.6994 87.7599 99.2985 88.3371C98.0599 90.1134 97.2758 92.2093 97.0352 94.3586C93.1414 88.5236 89.809 82.3068 87.1091 75.8324" stroke="black" stroke-width="1.4" stroke-miterlimit="10" stroke-linecap="round" stroke-linejoin="round"/>
<path d="M92.9988 65.0953C93.6403 68.488 94.8254 71.774 96.5005 74.7936" stroke="black" stroke-width="1.4" stroke-miterlimit="10" stroke-linecap="round" stroke-linejoin="round"/>
<path d="M128.649 65.5481C127.321 68.248 125.388 70.6459 123.027 72.5287" stroke="black" stroke-width="1.4" stroke-miterlimit="10" stroke-linecap="round" stroke-linejoin="round"/>
<path d="M134.957 209.495C141.916 218.092 150.755 225.179 160.681 230.117" stroke="black" stroke-width="1.4" stroke-miterlimit="10" stroke-linecap="round" stroke-linejoin="round"/>
<path d="M82.5648 208.038C76.6662 214.291 69.5201 219.371 61.6611 222.888" stroke="black" stroke-width="1.4" stroke-miterlimit="10" stroke-linecap="round" stroke-linejoin="round"/>
<path d="M240.71 257.457C254.907 265.349 268.258 264.126 280.755 253.766C283.109 251.82 284.296 248.802 284.015 245.763L270.431 99.2645C270.039 95.0124 266.819 91.5525 262.594 90.8505C250.993 88.925 239.663 89.968 228.616 93.9794C224.591 95.4436 222.056 99.435 222.458 103.687L236.041 250.186C236.313 253.224 238.033 255.972 240.71 257.457Z" fill="#AB8DDB"/>
<path d="M222.62 99.9663C227.791 95.4835 234.673 93.2672 241.515 92.9763C248.357 92.6955 255.169 94.2399 261.598 96.5967" stroke="black" stroke-width="1.4" stroke-miterlimit="10" stroke-linecap="round" stroke-linejoin="round"/>
<path d="M238.375 255.01C237.983 252.001 239.874 249.153 242.098 247.077C247.461 242.053 254.957 239.826 262.301 239.315C266.195 239.044 270.16 239.225 273.872 240.418C277.585 241.611 281.026 243.908 283.079 247.207" stroke="black" stroke-width="1.4" stroke-miterlimit="10" stroke-linecap="round" stroke-linejoin="round"/>
<path d="M261.073 100.307C264.183 126.542 265.189 152.968 266.185 179.363C266.889 197.896 267.593 216.429 268.298 234.952" stroke="black" stroke-width="1.4" stroke-miterlimit="10" stroke-linecap="round" stroke-linejoin="round"/>
<path d="M246.173 257.336C244.221 255.681 243.547 252.692 244.603 250.366C245.74 247.869 248.406 246.475 250.942 245.412C254.655 243.857 258.548 242.574 262.573 242.443C266.598 242.313 270.783 243.426 273.741 246.154C274.758 247.086 275.633 248.24 275.965 249.574C276.478 251.64 275.593 253.876 274.114 255.42C272.624 256.955 270.622 257.887 268.6 258.569C263.519 260.274 257.965 260.565 252.723 259.422C251.425 259.141 250.056 258.71 249.241 257.667C248.688 256.955 248.457 256.032 248.426 255.129C248.346 252.532 249.855 250.035 251.988 248.521C254.111 247.006 256.778 246.395 259.394 246.364C261.446 246.334 263.569 246.675 265.269 247.819C266.97 248.962 268.137 251.048 267.755 253.054C267.231 255.801 264.183 257.326 261.396 257.657C259.534 257.877 257.522 257.707 256.003 256.624C254.484 255.531 253.679 253.304 254.645 251.7C255.651 250.005 257.955 249.714 259.927 249.674C259.846 248.841 260.198 247.949 260.118 247.117" stroke="black" stroke-width="1.4" stroke-miterlimit="10" stroke-linecap="round" stroke-linejoin="round"/>
<path d="M223.534 123.775C223.534 123.775 243.094 108.932 272.242 118.85L272.615 122.852C272.615 122.852 238.808 113.445 224.722 128.187L223.534 123.775Z" fill="black"/>
<path d="M230.598 198.318C230.598 198.318 246.907 183.425 279.306 193.393L279.678 197.395C279.678 197.395 245.871 187.988 231.785 202.73L230.598 198.318Z" fill="black"/>
<path d="M156.837 254.619C156.837 254.619 140.225 340.043 141.171 349.46C142.449 362.256 153.788 415.368 158.054 441.182C164.242 443.97 170.822 443.889 177.453 442.736C177.684 438.404 177.875 433.77 177.986 429.177C178.308 414.746 182.775 382.885 174.857 356.55C172.905 350.051 208.181 269.17 208.986 263.735C209.791 258.299 158.567 240.328 156.837 254.619Z" fill="#33B3A8"/>
<path d="M246.906 446.346C248.818 425.076 253.476 386.475 247.741 363.309C243.063 344.445 253.416 289.097 251.072 259.302C250.599 253.275 197.112 234.862 195.663 262.481C195.663 262.481 214.74 350.773 216.088 363.891C217.184 374.622 226.169 423.692 229.651 447.871C234.068 452.093 242.69 452.093 246.906 446.346Z" fill="#33B3A8"/>
<path d="M162.199 119.252C162.199 119.252 138.232 168.011 135.747 177.308C133.262 186.604 145.99 197.295 161.887 180.968C174.263 168.262 187.614 138.286 191.448 125.5C193.983 117.076 173.75 102.293 162.199 119.252Z" fill="#FEB095"/>
<path d="M207.636 33.6572C207.636 33.6572 180.369 26.5569 178.407 54.2359C177.22 70.9136 189.576 87.4408 202.585 86.5783C218.472 85.5354 226.612 61.6772 224.942 53.4938C221.511 36.6858 207.636 33.6572 207.636 33.6572Z" fill="#A16E45"/>
<path d="M182.764 61.0459C180.46 57.8468 177.482 56.7436 175.077 58.4685C172.683 60.1834 172.562 63.6433 174.866 66.8425C177.17 70.0416 180.983 71.245 183.378 69.5301C185.793 67.8052 185.068 64.2451 182.764 61.0459Z" fill="#FEB095"/>
<path d="M177.13 60.9757C178.358 62.0086 179.193 63.4929 179.434 65.0774" stroke="black" stroke-width="1.4" stroke-miterlimit="10" stroke-linecap="round" stroke-linejoin="round"/>
<path d="M215.847 62.9213C217.426 59.311 220.103 57.6161 222.809 58.7895C225.516 59.9628 226.361 63.3224 224.781 66.9327C223.202 70.5431 219.731 72.5187 217.024 71.3454C214.317 70.162 214.267 66.5316 215.847 62.9213Z" fill="#FEB095"/>
<path d="M218.564 66.732C217.196 83.7005 204.428 90.0888 193.662 90.0186C186.246 89.9684 178.7 76.871 178.469 61.0358C178.358 44.5186 186.407 34.2292 201.892 36.7664C212.507 38.4914 219.751 51.9899 218.564 66.732Z" fill="#FEB095"/>
<path d="M221.752 96.8482C221.752 96.8482 214.588 91.6634 218.291 69.0388L191.678 83.2995C193.218 95.9758 188.469 99.7566 188.469 99.7566C188.469 99.7566 188.6 109.224 201.267 112.974C220.082 115.161 221.752 96.8482 221.752 96.8482Z" fill="#FEB095"/>
<path d="M195.723 89.9487C203.531 89.9487 209.83 86.8297 214.297 79.3584" stroke="black" stroke-width="1.4" stroke-miterlimit="10" stroke-linecap="round" stroke-linejoin="round"/>
<path d="M219.951 62.2495C218.976 63.5131 218.462 65.1478 218.563 66.7423" stroke="black" stroke-width="1.4" stroke-miterlimit="10" stroke-linecap="round" stroke-linejoin="round"/>
<path d="M191.448 64.2852L188.751 72.5387L193.219 72.5588" stroke="black" stroke-width="1.4" stroke-miterlimit="10" stroke-linecap="round" stroke-linejoin="round"/>
<path d="M196.941 56.5931C200.754 55.0287 205.503 54.3568 209.407 56.4728" stroke="black" stroke-width="1.4" stroke-miterlimit="10" stroke-linecap="round" stroke-linejoin="round"/>
<path d="M208.451 61.4171C208.451 61.4171 208.592 61.387 205.101 60.7452C200.674 60.3942 198.782 63.5331 198.782 63.5331C198.782 63.5331 201.921 65.1578 204.879 64.7165C207.505 64.3254 208.451 61.4171 208.451 61.4171Z" fill="white"/>
<path d="M204.236 64.8166C205.403 64.8166 206.349 63.8737 206.349 62.7106C206.349 61.5475 205.403 60.6046 204.236 60.6046C203.07 60.6046 202.124 61.5475 202.124 62.7106C202.124 63.8737 203.07 64.8166 204.236 64.8166Z" fill="black"/>
<path d="M198.421 63.4731C198.421 63.4731 200.373 61.2166 203.311 60.7854C205.645 60.645 208.14 62.751 210.122 61.6078" stroke="black" stroke-width="1.4" stroke-miterlimit="10" stroke-linecap="round" stroke-linejoin="round"/>
<path d="M188.47 55.9515C185.652 53.9859 181.256 54.1062 179.605 54.5374" stroke="black" stroke-width="1.4" stroke-miterlimit="10" stroke-linecap="round" stroke-linejoin="round"/>
<path d="M180.328 59.9029C180.328 59.9029 180.328 59.9029 183.035 59.7625C187.553 59.8427 188.75 63.4731 188.75 63.4731C188.75 63.4731 185.923 64.7367 182.763 63.7639C180.469 63.0619 180.328 59.9029 180.328 59.9029Z" fill="white"/>
<path d="M184.353 64.0548C185.526 64.0548 186.476 63.1074 186.476 61.9387C186.476 60.77 185.526 59.8227 184.353 59.8227C183.181 59.8227 182.23 60.77 182.23 61.9387C182.23 63.1074 183.181 64.0548 184.353 64.0548Z" fill="black"/>
<path d="M188.75 63.4732C188.75 63.4732 186.869 59.9431 183.377 59.7827C181.144 59.6924 180.862 60.3744 178.97 59.9331" stroke="black" stroke-width="1.4" stroke-miterlimit="10" stroke-linecap="round" stroke-linejoin="round"/>
<path d="M199.617 75.9586C196.589 81.9157 190.602 80.0503 187.775 76.7409L199.617 75.9586Z" fill="white"/>
<path d="M218.453 59.361C218.453 59.361 206.812 51.8596 204.558 39.2737C204.558 39.2737 190.291 53.4441 178.298 55.841C178.298 55.841 178.469 28.8639 206.581 34.6103C223.082 37.9699 218.453 59.361 218.453 59.361Z" fill="#A16E45"/>
<path d="M189.274 99.4151C189.274 99.4151 192.162 106.756 201.409 105.914C210.675 105.061 217.99 95.9352 217.99 95.9352C217.99 95.9352 244.734 100.899 252.743 119.934C243.939 141.385 237.67 167.189 232.489 194.838C242.56 210.924 256.093 230.289 251.284 276.491C251.284 276.491 217.91 262.401 195.643 262.471C175.178 262.531 156.917 256.955 156.917 256.955C159.814 230.289 173.266 195.911 174.132 183.586C175.178 168.673 164.312 146.74 159.593 125.74C159.603 125.75 164.986 103.587 189.274 99.4151Z" fill="#FEB095"/>
<path d="M179.053 52.6517C187.374 49.7333 194.92 44.6789 200.766 38.1001" stroke="black" stroke-width="1.4" stroke-miterlimit="10" stroke-linecap="round" stroke-linejoin="round"/>
<path d="M182.04 46.7545C186.316 45.4107 190.26 43.0439 193.449 39.915" stroke="black" stroke-width="1.4" stroke-miterlimit="10" stroke-linecap="round" stroke-linejoin="round"/>
<path d="M207.496 36.2547C208.734 42.9538 211.682 49.322 215.978 54.6171" stroke="black" stroke-width="1.4" stroke-miterlimit="10" stroke-linecap="round" stroke-linejoin="round"/>
<path d="M215.021 47.0855C215.755 49.1915 216.822 51.1772 218.17 52.9623" stroke="black" stroke-width="1.4" stroke-miterlimit="10" stroke-linecap="round" stroke-linejoin="round"/>
<path d="M209.92 36.1945C209.92 36.1945 214.579 24.2002 225.053 22.3649C237.982 20.0884 254.432 28.4323 254.805 48.4394C255.137 66.4008 259.272 70.5125 261.576 75.0053C263.88 79.4982 264.977 90.0283 251.826 95.0125C238.676 99.9867 224.399 85.0741 226.894 69.7904C229.379 54.5168 232.086 36.2245 228.383 33.4566C224.691 30.6887 220.756 34.0884 216.983 39.9351L209.92 36.1945Z" fill="#A16E45"/>
<path d="M210.233 34.269C213.101 35.8334 215.717 37.8392 217.96 40.1959" stroke="black" stroke-width="1.4" stroke-miterlimit="10" stroke-linecap="round" stroke-linejoin="round"/>
<path d="M227.881 26.6673C230.93 27.3593 233.364 29.6358 235.256 32.1229C239.542 37.749 241.756 44.9094 241.414 51.9696C240.931 61.8278 235.658 71.3851 237.288 81.1129" stroke="black" stroke-width="1.4" stroke-miterlimit="10" stroke-linecap="round" stroke-linejoin="round"/>
<path d="M233.132 43.8461C234.752 49.1613 234.893 54.9177 233.535 60.3031" stroke="black" stroke-width="1.4" stroke-miterlimit="10" stroke-linecap="round" stroke-linejoin="round"/>
<path d="M246.968 60.5336C245.811 65.4978 245.308 70.6024 245.468 75.6969C245.609 80.1597 246.434 84.9634 249.684 88.0422" stroke="black" stroke-width="1.4" stroke-miterlimit="10" stroke-linecap="round" stroke-linejoin="round"/>
<path d="M251.535 48.5898C251.877 52.4508 252.48 56.3219 253.849 59.9523C255.831 65.1973 259.363 69.7503 261.314 75.0053C263.266 80.2603 263.196 86.9695 258.91 90.5898" stroke="black" stroke-width="1.4" stroke-miterlimit="10" stroke-linecap="round" stroke-linejoin="round"/>
<path d="M234.27 25.0322C238.486 26.3159 241.917 29.5752 243.999 33.4463C246.082 37.3173 246.897 41.76 247.008 46.1526" stroke="black" stroke-width="1.4" stroke-miterlimit="10" stroke-linecap="round" stroke-linejoin="round"/>
<path d="M254.04 71.5158C257.35 76.4298 258.125 82.9585 256.042 88.5043C255.761 89.2565 255.429 89.9886 254.966 90.6404C253.688 92.4456 251.575 93.4284 249.563 94.341" stroke="black" stroke-width="1.4" stroke-miterlimit="10" stroke-linecap="round" stroke-linejoin="round"/>
<path d="M232.207 64.5355C231.181 69.6702 230.647 74.9955 231.664 80.1402C232.68 85.2848 235.407 90.249 239.793 93.1172" stroke="black" stroke-width="1.4" stroke-miterlimit="10" stroke-linecap="round" stroke-linejoin="round"/>
<path d="M213.542 33.8675C215.233 30.548 218.241 27.9205 221.753 26.687" stroke="black" stroke-width="1.4" stroke-miterlimit="10" stroke-linecap="round" stroke-linejoin="round"/>
<path d="M217.144 35.3923C218.815 33.0857 221.994 32.3737 224.821 32.6846C227.015 32.9253 229.5 34.0585 229.852 36.2347" stroke="black" stroke-width="1.4" stroke-miterlimit="10" stroke-linecap="round" stroke-linejoin="round"/>
<path d="M232.498 194.848C232.498 194.848 195.462 201.276 172.934 190.726C172.934 190.726 163.536 215.436 160.518 233.428C157.983 248.521 155.256 262.812 155.256 262.812C155.256 262.812 182.694 264.326 197.122 269.36C211.56 274.395 250.75 287.532 250.75 287.532C250.75 287.532 257.3 246.585 248.657 225.194C240.024 203.793 232.498 194.848 232.498 194.848Z" fill="#33B3A8"/>
<path d="M172.583 169.606C192.867 174.811 213.131 176.114 236.212 176.325L242.621 147.813C242.621 147.813 231.725 145.497 229.209 135.097C226.694 124.697 234.884 109.424 237.47 103.737C234.804 101.912 231.976 100.428 228.998 99.3148C228.998 99.3148 217.196 131.086 193.109 129.651C169.021 128.207 184.788 100.458 184.788 100.458C184.788 100.458 177.131 103.447 174.344 105.031C174.344 105.031 166.747 128.538 164.131 138.838C161.515 149.137 170.219 163.207 172.583 169.606Z" fill="#33B3A8"/>
<path d="M230.97 137.665C230.97 137.665 250.62 178.301 256.104 186.223C261.587 194.146 277.303 195.801 275.17 173.156C273.51 155.516 257.049 125.791 249.785 114.589C244.996 107.187 225.516 117.898 230.97 137.665Z" fill="#FEB095"/>
<path d="M261.033 192C248.969 189.021 230.013 172.845 211.198 155.606L218.543 144.223C218.543 144.223 243.868 153.771 264.404 164.922C283.631 175.362 273.097 194.968 261.033 192Z" fill="#FEB095"/>
<path d="M136.049 182.944C131.571 171.391 133.916 146.901 136.421 119.422L149.219 99.0742C149.219 99.0742 157.53 147.262 160.156 170.418C162.621 192.1 140.526 194.497 136.049 182.944Z" fill="#FEB095"/>
<path d="M235.97 199.351C235.97 199.351 201.74 174.68 199.617 145.767L202.344 146.7C202.344 146.7 208.794 175.181 237.68 195.82L235.97 199.351Z" fill="black"/>
<path d="M198.642 133.402C198.642 133.402 195.583 131.446 193.178 136.501C190.774 141.555 186.628 147.161 193.661 150.902C200.694 154.643 215.616 156.187 215.616 156.187L220.455 145.918C220.455 145.918 208.975 131.888 202.133 129.019C202.133 129.019 198.783 130.313 203.411 136.431L198.642 133.402Z" fill="#FEB095"/>
<path d="M209.409 140.031C205.867 138.537 204.287 137.644 201.178 135.378" stroke="black" stroke-width="1.4" stroke-miterlimit="10" stroke-linecap="round" stroke-linejoin="round"/>
<path d="M197.746 139.569C196.166 139.218 194.748 138.196 193.913 136.812" stroke="black" stroke-width="1.4" stroke-miterlimit="10" stroke-linecap="round" stroke-linejoin="round"/>
<path d="M195.049 143.782C193.379 143.441 191.86 142.448 190.894 141.054" stroke="black" stroke-width="1.4" stroke-miterlimit="10" stroke-linecap="round" stroke-linejoin="round"/>
<path d="M193.359 147.633C192.192 147.292 191.115 146.64 190.26 145.767" stroke="black" stroke-width="1.4" stroke-miterlimit="10" stroke-linecap="round" stroke-linejoin="round"/>
<path d="M201.178 135.388C201.178 135.388 211.682 106.926 227.881 98.8934L231.121 100.237C231.121 100.237 213.151 112.763 204.88 138.386L201.178 135.388Z" fill="black"/>
<path d="M231.915 149.899C245.518 154.282 258.367 160.971 269.747 169.595" stroke="black" stroke-width="1.4" stroke-miterlimit="10" stroke-linecap="round" stroke-linejoin="round"/>
<path d="M187.01 188.69C186.859 189.773 187.282 190.927 188.107 191.659C188.922 192.391 190.119 192.682 191.185 192.421" stroke="black" stroke-width="1.4" stroke-miterlimit="10" stroke-linecap="round" stroke-linejoin="round"/>
<path d="M195.371 161.572C202.293 163.809 209.9 163.849 216.842 161.703" stroke="black" stroke-width="1.4" stroke-miterlimit="10" stroke-linecap="round" stroke-linejoin="round"/>
<path d="M181.879 244.861C186.236 247.739 190.733 250.757 193.43 255.22C195.703 258.981 196.488 263.424 197.223 267.756C198.46 274.997 199.688 282.227 200.925 289.468" stroke="black" stroke-width="1.4" stroke-miterlimit="10" stroke-linecap="round" stroke-linejoin="round"/>
<path d="M178.569 340.01C176.929 346.479 174.193 352.676 170.53 358.262" stroke="black" stroke-width="1.4" stroke-miterlimit="10" stroke-linecap="round" stroke-linejoin="round"/>
<path d="M121.159 103.136C121.159 103.136 119.207 105.513 118.915 106.686C118.613 107.849 120.515 111.781 120.515 111.781C120.515 111.781 123.835 109.775 123.433 107.228C123.03 104.67 121.159 103.136 121.159 103.136Z" fill="#FEB095"/>
<path d="M145.779 106.084C147.681 100.197 145.628 98.6629 145.628 98.6629L146.363 96.266C146.363 96.266 148.687 94.6514 149.361 92.4351C150.045 90.2188 148.637 88.1729 148.637 88.1729L131.019 82.7976C131.019 82.7976 128.715 83.7102 128.03 85.9265C127.346 88.1428 128.363 90.7804 128.363 90.7804L127.628 93.1772C127.628 93.1772 125.052 93.2976 123.332 99.2445C121.611 105.182 115.363 125.199 115.363 125.199C115.363 125.199 115.122 129.772 119.478 131.196C121.511 131.868 126.632 133.472 131.029 134.716C135.436 135.959 137.81 132.038 137.81 132.038C137.81 132.038 143.867 111.971 145.779 106.084Z" fill="#AB8DDB"/>
<path d="M150.759 83.3391L149.894 82.7875L150.206 81.5339L144.994 79.809L145.557 77.7531L146.604 77.8735L146.966 76.7001L139.007 74.2732L138.645 75.4465L139.581 75.9279L138.897 77.9437L133.604 76.4695L133.161 77.6829L132.135 77.6528C132.135 77.6528 128.976 80.3104 131.028 82.7875L140.325 85.6256L148.807 88.213C151.886 87.3104 150.759 83.3391 150.759 83.3391Z" fill="black"/>
<path d="M129.51 90.9308C134.561 92.8062 139.652 94.5712 144.784 96.2059" stroke="black" stroke-width="1.4" stroke-miterlimit="10" stroke-linecap="round" stroke-linejoin="round"/>
<path d="M128.262 94.11C133.454 95.6845 138.646 97.259 143.837 98.8335" stroke="black" stroke-width="1.4" stroke-miterlimit="10" stroke-linecap="round" stroke-linejoin="round"/>
<path d="M146.986 90.8807C146.986 90.8807 150.336 100.548 150.336 105.633C150.336 105.633 149.048 108.391 144.782 109.243C144.782 109.243 145.416 105.402 145.295 101.742C145.175 98.3018 144.289 95.1027 144.521 93.2173C144.812 90.7703 146.986 90.8807 146.986 90.8807Z" fill="#FEB095"/>
<path d="M128.634 90.7104C128.634 90.7104 124.469 90.6603 123.644 92.295C122.819 93.9296 123.392 96.0657 123.392 96.0657C123.392 96.0657 120.817 97.7606 120.434 99.5958C120.052 101.431 120.062 105.112 121.571 107.669C122.809 109.765 124.62 106.806 124.68 105.031C124.68 105.031 125.616 106.064 126.753 105.282C128.997 103.728 128.665 92.2548 128.634 90.7104Z" fill="#FEB095"/>
<path d="M123.633 92.686C123.09 96.2963 123.17 100.007 123.865 103.597" stroke="black" stroke-width="1.4" stroke-miterlimit="10" stroke-linecap="round" stroke-linejoin="round"/>
<path d="M120.202 102.363C120.182 103.918 120.504 105.482 121.128 106.916" stroke="black" stroke-width="1.4" stroke-miterlimit="10" stroke-linecap="round" stroke-linejoin="round"/>
<path d="M155.126 134.966C158.677 143.631 161.022 167.199 159.875 174.439" stroke="black" stroke-width="1.4" stroke-miterlimit="10" stroke-linecap="round" stroke-linejoin="round"/>
</g>
<path d="M88.6063 42.746C91.1196 42.3858 92.7654 39.3782 92.2822 36.0283C91.799 32.6784 89.3699 30.2548 86.8565 30.6149C84.3431 30.9751 82.6974 33.9827 83.1805 37.3326C83.6637 40.6825 86.0929 43.1061 88.6063 42.746Z" fill="#C6896B"/>
<path d="M86.2976 33.4781C87.5985 34.5349 88.5074 36.0714 88.8014 37.7233" stroke="black" stroke-miterlimit="10" stroke-linecap="round" stroke-linejoin="round"/>
<path d="M89.0779 17.2165C89.0779 17.2165 85.888 34.233 89.3898 40.9116C89.3898 40.9116 102.31 21.7637 102.622 17.7316C102.934 13.6996 90.1294 10.8043 89.0779 17.2165Z" fill="black"/>
<path d="M94.3882 69.598C94.3882 69.598 96.7672 61.0454 97.979 53.4342C99.5829 43.3362 121.315 35.7872 122.572 46.0805C123.596 54.5266 126.243 69.1095 126.243 69.1095C126.243 69.1095 109.064 86.3391 105.446 86.4901C102.532 86.6144 94.3882 69.598 94.3882 69.598Z" fill="#C6896B"/>
<path d="M89.2997 31.4797C86.689 43.7091 85.8514 56.3471 95.0825 60.2637C104.305 64.1804 115.541 61.3206 122.188 49.2332C129.69 35.5828 126.875 21.3284 112.805 17.4207C95.2874 12.5627 92.5074 16.4971 89.2997 31.4797Z" fill="#C6896B"/>
<path d="M132.32 25.4495C130.422 36.3645 125.905 42.8833 124.541 47.1019L119.899 43.0165C118.562 36.622 118.295 30.6361 120.086 25.4584C120.077 25.4584 130.859 22.3854 132.32 25.4495Z" fill="black"/>
<path d="M126.665 45.8768C129.094 43.5118 129.624 40.1269 127.85 38.3165C126.075 36.5061 122.668 36.9558 120.239 39.3208C117.81 41.6858 117.28 45.0707 119.054 46.8811C120.829 48.6915 124.236 48.2419 126.665 45.8768Z" fill="#C6896B"/>
<path d="M125.307 40.45C123.774 41.1516 122.518 42.4127 121.814 43.9314" stroke="black" stroke-miterlimit="10" stroke-linecap="round" stroke-linejoin="round"/>
<path d="M99.8769 37.5633L97.1504 42.7766C96.4286 44.1532 97.5513 45.7695 99.1017 45.5919L101.329 45.3344" stroke="black" stroke-miterlimit="10" stroke-linecap="round" stroke-linejoin="round"/>
<path d="M114.793 39.2773C114.793 39.2773 114.143 36.7107 109.902 36.6752C107.576 36.6574 105.438 39.2063 105.438 39.2063C105.438 39.2063 107.763 40.352 110.641 40.6983C112.726 40.9559 114.793 39.2773 114.793 39.2773Z" fill="white"/>
<path d="M110.926 40.5475C111.96 40.5475 112.798 39.7125 112.798 38.6824C112.798 37.6524 111.96 36.8174 110.926 36.8174C109.893 36.8174 109.055 37.6524 109.055 38.6824C109.055 39.7125 109.893 40.5475 110.926 40.5475Z" fill="black"/>
<path d="M105.438 39.2153C105.438 39.2153 107.87 36.4621 110.392 36.6931C113.403 36.9773 114.793 39.2775 114.793 39.2775" stroke="black" stroke-miterlimit="10" stroke-linecap="round" stroke-linejoin="round"/>
<path d="M96.8481 30.4939C94.5581 29.6413 92.6335 29.366 90.3702 29.4548C89.7465 29.4814 88.9357 29.5169 88.6595 28.9574C88.4634 28.5755 88.6238 28.096 88.9268 27.794C89.2297 27.5009 89.6574 27.3588 90.0762 27.2611C91.5464 26.9236 93.079 27.0746 94.567 27.3055C95.7699 27.492 97.1065 27.8206 97.7391 28.8597C97.9619 29.2327 98.0688 29.7035 97.8995 30.1031C97.7213 30.5116 97.2579 30.6448 96.8481 30.4939Z" stroke="black" stroke-miterlimit="10" stroke-linecap="round" stroke-linejoin="round"/>
<path d="M114.953 35.6185C112.708 34.1531 110.721 33.3893 108.271 32.9363C107.594 32.812 106.72 32.6521 106.56 31.9949C106.444 31.542 106.729 31.0624 107.13 30.8137C107.531 30.5739 108.021 30.5206 108.485 30.5206C110.133 30.5206 111.737 31.0535 113.278 31.6575C114.517 32.1459 115.871 32.8209 116.29 34.0909C116.442 34.5438 116.442 35.0767 116.156 35.4675C115.88 35.8494 115.354 35.8849 114.953 35.6185Z" stroke="black" stroke-miterlimit="10" stroke-linecap="round" stroke-linejoin="round"/>
<path d="M89.8704 33.0341C89.8704 33.0341 91.2159 32.6522 93.4256 33.3005C96.1255 34.0998 96.6066 37.3415 96.6066 37.3415C96.6066 37.3415 93.0158 37.9188 90.7525 36.2314C89.6922 35.4409 89.8704 33.0341 89.8704 33.0341Z" fill="white"/>
<path d="M93.212 37.1905C94.2454 37.1905 95.0832 36.3554 95.0832 35.3254C95.0832 34.2954 94.2454 33.4604 93.212 33.4604C92.1786 33.4604 91.3408 34.2954 91.3408 35.3254C91.3408 36.3554 92.1786 37.1905 93.212 37.1905Z" fill="black"/>
<path d="M96.6163 37.3412C96.6163 37.3412 95.6184 34.2949 93.4353 33.3002C91.6978 32.5098 89.8801 33.0338 89.8801 33.0338" stroke="black" stroke-miterlimit="10" stroke-linecap="round" stroke-linejoin="round"/>
<path d="M96.8125 49.1355L106.712 49.8371C106.712 49.8371 104.645 54.6685 101.259 54.1001C97.0709 53.3896 96.8125 49.1355 96.8125 49.1355Z" fill="white"/>
<path d="M114.124 20.5203C114.124 20.5203 111.299 24.3658 106.523 23.3179C102.781 22.4919 102.113 18.9749 102.113 18.9749C102.113 18.9749 99.6714 22.6784 95.1093 22.5452C90.5383 22.412 89.1216 19.8897 88.6404 17.9003C87.9454 15.0139 88.6404 8.94804 94.3787 8.08656C98.522 7.46488 102.63 10.3957 102.63 10.3957C102.63 10.3957 105.436 7.86452 109.054 8.27306C113.892 8.81481 115.755 12.8824 115.755 12.8824C118.036 11.0174 123.141 11.1417 125.173 12.1541C135.473 17.3319 132.399 27.4387 130.368 32.8652C129.129 36.169 112.253 29.286 114.124 20.5203Z" fill="black"/>
<path d="M106.025 46.187C106.443 48.434 107.691 50.5122 109.491 51.9332" stroke="black" stroke-miterlimit="10" stroke-linecap="round" stroke-linejoin="round"/>
<path d="M97.979 61.2494C104.083 61.9777 111.371 60.5123 115.862 56.3293" stroke="black" stroke-miterlimit="10" stroke-linecap="round" stroke-linejoin="round"/>
<path d="M207.606 33.6569C207.606 33.6569 180.339 26.5566 178.377 54.2357C177.19 70.9134 189.545 87.4406 202.555 86.5781C218.442 85.5351 226.582 61.677 224.912 53.4936C221.481 36.6856 207.606 33.6569 207.606 33.6569Z" fill="#A16E45"/>
<path d="M182.732 61.0453C180.428 57.8461 177.45 56.743 175.045 58.4679C172.651 60.1828 172.53 63.6427 174.834 66.8418C177.138 70.041 180.952 71.2444 183.346 69.5295C185.761 67.8046 185.037 64.2444 182.732 61.0453Z" fill="#FEB095"/>
<path d="M177.098 60.9748C178.325 62.0077 179.16 63.492 179.402 65.0765" stroke="black" stroke-width="1.4" stroke-miterlimit="10" stroke-linecap="round" stroke-linejoin="round"/>
<path d="M215.815 62.9204C217.395 59.3101 220.071 57.6153 222.778 58.7886C225.484 59.962 226.329 63.3216 224.75 66.9319C223.17 70.5422 219.699 72.5178 216.992 71.3445C214.286 70.1611 214.235 66.5307 215.815 62.9204Z" fill="#FEB095"/>
<path d="M218.531 66.7311C217.163 83.6996 204.395 90.0879 193.629 90.0177C186.214 89.9675 178.668 76.8701 178.436 61.0349C178.326 44.5177 186.375 34.2283 201.859 36.7656C212.474 38.4905 219.719 51.989 218.531 66.7311Z" fill="#FEB095"/>
<path d="M221.721 96.8476C221.721 96.8476 214.557 91.6628 218.259 69.0381L191.647 83.2989C193.186 95.9751 188.437 99.7559 188.437 99.7559C188.437 99.7559 188.568 109.223 201.235 112.974C220.05 115.16 221.721 96.8476 221.721 96.8476Z" fill="#FEB095"/>
<path d="M195.692 89.9478C203.499 89.9478 209.798 86.8289 214.265 79.3575" stroke="black" stroke-width="1.4" stroke-miterlimit="10" stroke-linecap="round" stroke-linejoin="round"/>
<path d="M219.92 62.2488C218.944 63.5125 218.431 65.1471 218.531 66.7417" stroke="black" stroke-width="1.4" stroke-miterlimit="10" stroke-linecap="round" stroke-linejoin="round"/>
<path d="M191.415 64.2845L188.719 72.5381L193.186 72.5582" stroke="black" stroke-width="1.4" stroke-miterlimit="10" stroke-linecap="round" stroke-linejoin="round"/>
<path d="M196.909 56.592C200.723 55.0276 205.472 54.3557 209.375 56.4717" stroke="black" stroke-width="1.4" stroke-miterlimit="10" stroke-linecap="round" stroke-linejoin="round"/>
<path d="M208.42 61.4165C208.42 61.4165 208.561 61.3864 205.07 60.7445C200.643 60.3935 198.751 63.5325 198.751 63.5325C198.751 63.5325 201.89 65.1572 204.848 64.7159C207.474 64.3248 208.42 61.4165 208.42 61.4165Z" fill="white"/>
<path d="M204.204 64.816C205.371 64.816 206.317 63.8731 206.317 62.71C206.317 61.5469 205.371 60.604 204.204 60.604C203.038 60.604 202.092 61.5469 202.092 62.71C202.092 63.8731 203.038 64.816 204.204 64.816Z" fill="black"/>
<path d="M198.389 63.4722C198.389 63.4722 200.341 61.2158 203.279 60.7846C205.613 60.6442 208.108 62.7502 210.09 61.6069" stroke="black" stroke-width="1.4" stroke-miterlimit="10" stroke-linecap="round" stroke-linejoin="round"/>
<path d="M188.437 55.9504C185.62 53.9848 181.223 54.1051 179.573 54.5363" stroke="black" stroke-width="1.4" stroke-miterlimit="10" stroke-linecap="round" stroke-linejoin="round"/>
<path d="M180.296 59.9021C180.296 59.9021 180.296 59.9021 183.003 59.7617C187.52 59.8419 188.718 63.4723 188.718 63.4723C188.718 63.4723 185.89 64.7359 182.731 63.7631C180.437 63.0611 180.296 59.9021 180.296 59.9021Z" fill="white"/>
<path d="M184.321 64.0537C185.494 64.0537 186.444 63.1063 186.444 61.9377C186.444 60.769 185.494 59.8216 184.321 59.8216C183.149 59.8216 182.198 60.769 182.198 61.9377C182.198 63.1063 183.149 64.0537 184.321 64.0537Z" fill="black"/>
<path d="M188.718 63.4722C188.718 63.4722 186.837 59.9422 183.345 59.7817C181.112 59.6914 180.83 60.3734 178.938 59.9321" stroke="black" stroke-width="1.4" stroke-miterlimit="10" stroke-linecap="round" stroke-linejoin="round"/>
<path d="M199.586 75.9578C196.557 81.9148 190.57 80.0495 187.743 76.74L199.586 75.9578Z" fill="white"/>
<path d="M218.421 59.3608C218.421 59.3608 206.78 51.8594 204.526 39.2734C204.526 39.2734 190.258 53.4439 178.265 55.8407C178.265 55.8407 178.436 28.8637 206.548 34.6101C223.049 37.9697 218.421 59.3608 218.421 59.3608Z" fill="#A16E45"/>
<path d="M179.02 52.6512C187.341 49.7329 194.887 44.6784 200.733 38.0996" stroke="black" stroke-width="1.4" stroke-miterlimit="10" stroke-linecap="round" stroke-linejoin="round"/>
<path d="M182.008 46.7543C186.284 45.4105 190.229 43.0437 193.418 39.9148" stroke="black" stroke-width="1.4" stroke-miterlimit="10" stroke-linecap="round" stroke-linejoin="round"/>
<path d="M207.464 36.2544C208.701 42.9536 211.649 49.3218 215.946 54.6169" stroke="black" stroke-width="1.4" stroke-miterlimit="10" stroke-linecap="round" stroke-linejoin="round"/>
<path d="M214.99 47.0853C215.724 49.1913 216.791 51.177 218.139 52.9621" stroke="black" stroke-width="1.4" stroke-miterlimit="10" stroke-linecap="round" stroke-linejoin="round"/>
<path d="M209.888 36.1942C209.888 36.1942 214.546 24.2 225.02 22.3647C237.95 20.0882 254.4 28.432 254.772 48.4392C255.104 66.4005 259.24 70.5123 261.544 75.0051C263.848 79.4979 264.945 90.028 251.794 95.0123C238.644 99.9865 224.366 85.0739 226.862 69.7902C229.347 54.5166 232.054 36.2243 228.351 33.4564C224.658 30.6885 220.724 34.0882 216.951 39.9349L209.888 36.1942Z" fill="#A16E45"/>
<path d="M210.201 34.2687C213.068 35.8332 215.684 37.8389 217.928 40.1957" stroke="black" stroke-width="1.4" stroke-miterlimit="10" stroke-linecap="round" stroke-linejoin="round"/>
<path d="M227.849 26.6671C230.898 27.3591 233.333 29.6356 235.224 32.1227C239.511 37.7487 241.724 44.9092 241.382 51.9694C240.899 61.8275 235.627 71.3848 237.257 81.1126" stroke="black" stroke-width="1.4" stroke-miterlimit="10" stroke-linecap="round" stroke-linejoin="round"/>
<path d="M233.101 43.8459C234.72 49.1611 234.861 54.9175 233.503 60.3029" stroke="black" stroke-width="1.4" stroke-miterlimit="10" stroke-linecap="round" stroke-linejoin="round"/>
<path d="M246.935 60.5334C245.778 65.4976 245.275 70.6021 245.436 75.6967C245.577 80.1594 246.402 84.9632 249.652 88.042" stroke="black" stroke-width="1.4" stroke-miterlimit="10" stroke-linecap="round" stroke-linejoin="round"/>
<path d="M251.503 48.5896C251.845 52.4506 252.449 56.3217 253.817 59.9521C255.799 65.197 259.331 69.75 261.283 75.005C263.235 80.2601 263.165 86.9692 258.878 90.5896" stroke="black" stroke-width="1.4" stroke-miterlimit="10" stroke-linecap="round" stroke-linejoin="round"/>
<path d="M234.237 25.032C238.453 26.3157 241.884 29.575 243.967 33.446C246.05 37.3171 246.865 41.7598 246.975 46.1523" stroke="black" stroke-width="1.4" stroke-miterlimit="10" stroke-linecap="round" stroke-linejoin="round"/>
<path d="M254.009 71.5153C257.319 76.4294 258.094 82.958 256.011 88.5039C255.729 89.256 255.397 89.9881 254.935 90.6399C253.657 92.4451 251.544 93.4279 249.531 94.3405" stroke="black" stroke-width="1.4" stroke-miterlimit="10" stroke-linecap="round" stroke-linejoin="round"/>
<path d="M232.176 64.5353C231.149 69.67 230.616 74.9952 231.632 80.1399C232.649 85.2846 235.375 90.2488 239.762 93.117" stroke="black" stroke-width="1.4" stroke-miterlimit="10" stroke-linecap="round" stroke-linejoin="round"/>
<path d="M213.511 33.8673C215.201 30.5478 218.21 27.9203 221.721 26.6868" stroke="black" stroke-width="1.4" stroke-miterlimit="10" stroke-linecap="round" stroke-linejoin="round"/>
<path d="M217.114 35.3921C218.784 33.0855 221.963 32.3735 224.791 32.6843C226.984 32.925 229.469 34.0583 229.821 36.2345" stroke="black" stroke-width="1.4" stroke-miterlimit="10" stroke-linecap="round" stroke-linejoin="round"/>
<path d="M9.51172 208.628C5.38409 211.357 3.89387 218.878 9.26705 222.92C14.6402 226.961 21.7144 230.815 25.9326 228.312C32.3679 224.496 30.9549 212.685 27.9858 206.69C25.0167 200.695 18.5284 202.675 9.51172 208.628Z" fill="#F38059"/>
<path d="M9.46178 208.458C9.46178 208.458 4.45642 207.601 0.855576 205.504C0.855576 205.504 5.58299 203.449 8.82557 205.123C8.82557 205.123 7.7942 201.392 6.8572 198.368C6.8572 198.368 11.8787 201.533 13.2784 203.424C13.2784 203.424 14.907 198.736 16.5378 196.703C16.5378 196.703 18.4839 201.783 17.9794 204.413L9.46178 208.458Z" fill="#32B2A8"/>
<path d="M11.5853 214.845C10.4734 214.451 9.81491 216.171 10.9255 216.556C12.0499 216.968 12.7084 215.247 11.5853 214.845Z" fill="black"/>
<path d="M16.9066 210.036C15.7947 209.642 15.1362 211.363 16.2468 211.747C17.3613 212.161 18.0198 210.44 16.9066 210.036Z" fill="black"/>
<path d="M22.9539 217.055C21.842 216.661 21.1835 218.381 22.2941 218.766C23.4172 219.168 24.077 217.457 22.9539 217.055Z" fill="black"/>
<path d="M23.313 206.684C22.2011 206.29 21.5426 208.01 22.6532 208.395C23.7763 208.797 24.4262 207.088 23.313 206.684Z" fill="black"/>
<path d="M25.6419 211.612C24.53 211.218 23.8715 212.938 24.9821 213.323C26.0953 213.727 26.7551 212.016 25.6419 211.612Z" fill="black"/>
<path d="M18.6063 223.246C17.4944 222.852 16.8359 224.572 17.9465 224.957C19.0696 225.359 19.7182 223.64 18.6063 223.246Z" fill="black"/>
<path d="M16.7059 216.362C15.5939 215.968 14.9354 217.688 16.0461 218.073C17.1593 218.477 17.8191 216.766 16.7059 216.362Z" fill="black"/>
<path d="M9.33768 202.169C10.4 203.904 11.6579 205.511 13.0792 206.976" stroke="black" stroke-width="1.4" stroke-miterlimit="10" stroke-linecap="round" stroke-linejoin="round"/>
<path d="M16.5092 200.408C16.122 201.879 16.0531 203.423 16.3169 204.921" stroke="black" stroke-width="1.4" stroke-miterlimit="10" stroke-linecap="round" stroke-linejoin="round"/>
<path d="M5.12123 206.507C7.14136 206.867 9.07629 207.643 10.7491 208.793" stroke="black" stroke-width="1.4" stroke-miterlimit="10" stroke-linecap="round" stroke-linejoin="round"/>
<path d="M303.441 75.5005C305.323 72.7252 306.863 69.5544 307.972 66.3501C308.974 63.4474 309.276 60.0219 307.475 57.4879C305.975 55.3696 303.145 54.7864 301.122 56.2276C300.658 55.2154 299.844 54.4311 298.762 54.1361C297.969 53.9216 297.176 54.0155 296.463 54.3439C295.952 53.5462 295.246 52.9027 294.399 52.5206C292.752 51.7698 290.803 52.0848 289.33 53.2043C288.349 51.7899 286.305 51.4279 284.745 52.1854C282.251 53.392 280.846 56.603 279.764 59.1169C278.581 61.8721 277.707 64.7814 277.243 67.7511C276.846 70.2851 276.759 73.1944 278.379 75.2256C279.556 76.7071 281.64 77.3641 283.334 76.6401C283.737 78.3361 284.846 79.7908 286.406 80.4276C287.992 81.0779 289.808 80.7896 291.233 79.7841C292.208 81.6745 294.614 82.3918 296.577 81.7951C299.468 80.9036 301.734 78.021 303.441 75.5005Z" fill="#F8CD3D"/>
<path d="M304.214 59.1638C302.399 57.9706 300.765 57.0388 298.365 56.6299C298.554 56.0399 299.972 52.3865 300.349 50.6838C299.69 50.4156 299.024 50.1676 298.325 50C297.626 51.8435 296.812 53.6266 295.871 55.3495C293.579 53.8948 290.843 53.5462 288.208 54.3976C287.455 54.6389 287.717 55.6846 288.322 55.8522C289.774 56.2612 291.125 56.9315 292.349 57.8365C290.93 59.613 289.807 61.6173 289.021 63.796C288.779 64.4731 289.458 65.1769 290.056 64.701C291.697 63.4072 293.444 62.348 295.313 61.5235C296.322 63.0117 297.263 64.5468 298.144 66.1288C298.5 66.7657 299.522 66.33 299.428 65.5993C299.219 64.0105 298.903 62.4553 298.48 60.9269C300.261 60.7861 302.043 60.6386 303.817 60.4978C304.382 60.4643 304.745 59.5057 304.214 59.1638Z" fill="#32B2A8"/>
<path d="M286.527 66.5378C284.577 69.655 283.367 73.2213 283.024 76.8747" stroke="black" stroke-width="2" stroke-miterlimit="10" stroke-linecap="round" stroke-linejoin="round"/>
<path d="M297.512 68.3947C295.703 72.2828 293.882 76.1909 291.401 79.6902" stroke="black" stroke-width="2" stroke-miterlimit="10" stroke-linecap="round" stroke-linejoin="round"/>
<path d="M277.135 326.004C281.075 326.004 284.27 322.645 284.27 318.502C284.27 314.359 281.075 311 277.135 311C273.194 311 270 314.359 270 318.502C270 322.645 273.194 326.004 277.135 326.004Z" fill="#F887A8"/>
<path d="M277.15 315.08C277.67 316.88 277.99 318.743 278.067 320.623L277.15 315.08Z" fill="#F887A8"/>
<path d="M277.15 315.08C277.67 316.88 277.99 318.743 278.067 320.623" stroke="black" stroke-width="2" stroke-linecap="round" stroke-linejoin="round"/>
<path d="M274.553 318.084C276.6 317.618 278.663 317.281 280.74 317.056L274.553 318.084Z" fill="#F887A8"/>
<path d="M274.553 318.084C276.6 317.618 278.663 317.281 280.74 317.056" stroke="black" stroke-width="2" stroke-linecap="round" stroke-linejoin="round"/>
<path d="M29.9507 13.1918C28.7396 16.263 31.4739 18.2413 34.2696 18.8951C38.7616 19.9386 42.773 18.2777 45.8951 15.471C47.1437 14.2927 48.2529 12.977 49.2116 11.5473C50.2739 9.95093 50.9961 8.33848 51.5001 6.65674C51.4845 6.63426 51.4688 6.61176 51.4532 6.58927C51.4359 6.25651 51.3612 5.91233 51.194 5.56907C50.5744 4.25106 49.1766 3.46247 47.8164 3.07524C44.5949 2.15574 41.216 3.07742 38.5186 4.80644C37.1115 5.70127 35.8548 6.78105 34.664 7.93208C32.6679 9.29716 30.8441 10.942 29.9507 13.1918Z" fill="#32B2A8"/>
<path d="M31.8504 16.197C36.1159 14.5927 39.9126 12.0297 43.6665 9.48388C47.5408 6.85876 51.4151 4.23364 55.2969 1.60356" stroke="black" stroke-miterlimit="10" stroke-linecap="round" stroke-linejoin="round"/>
<path d="M38.1082 19.1734C39.2387 16.9227 40.4523 13.8358 41.1566 11.4167" stroke="black" stroke-miterlimit="10" stroke-linecap="round" stroke-linejoin="round"/>
<path d="M32.7728 10.3548C35.423 10.0942 38.5383 10.8321 41.1511 11.4221" stroke="black" stroke-miterlimit="10" stroke-linecap="round" stroke-linejoin="round"/>
<path d="M45.8144 15.4475C46.6973 13.2061 47.2972 9.14329 47.5965 6.7565" stroke="black" stroke-miterlimit="10" stroke-linecap="round" stroke-linejoin="round"/>
<path d="M39.5637 4.9593C41.7976 5.39697 45.3729 6.31728 47.6079 6.74896" stroke="black" stroke-miterlimit="10" stroke-linecap="round" stroke-linejoin="round"/>
</svg>
