<svg xmlns:xlink="http://www.w3.org/1999/xlink" xmlns="http://www.w3.org/2000/svg" width="48" height="48" viewBox="0 0 48 48" fill="none">
<g clip-path="url(#clip0_222_32505)">
<path d="M38 0H10C4.47715 0 0 4.47715 0 10V38C0 43.5229 4.47715 48 10 48H38C43.5229 48 48 43.5229 48 38V10C48 4.47715 43.5229 0 38 0Z" fill="#D7EDFD"/>
<path d="M20.2334 24.54C20.2334 24.54 20.8934 27.4133 20.2334 28.9533C19.5734 30.5 11.7334 32.1133 8.50003 36.8C5.14669 41.8267 10.1734 44.34 15.4067 41.7533C19.7867 40.54 25.1934 37.6733 25.1934 37.6733C25.1934 37.6733 36.2267 44.82 40.0934 42.02C43.96 39.22 38.88 34.92 35.3467 32.7133C31.8134 30.5067 28.7267 29.96 28.6134 28.6333C28.5 27.3067 29.2734 24 29.2734 24C29.2734 24 29.2734 20.1333 24.1934 20.4667C19.1134 20.8 20.2267 24.5467 20.2267 24.5467L20.2334 24.54Z" fill="#AB8DDB"/>
<path d="M24.9933 17.04C23.2467 17.74 21.46 13.9533 21.36 11.96C21.2466 9.97334 22.5733 8.64667 24.9933 8.54C27.42 8.42667 27.6933 11.3 27.6933 12.4667C27.6933 14.42 26.6533 16.3733 24.9933 17.0333V17.04Z" fill="#FEB095"/>
<path d="M10.82 37.1001C8.77998 35.3401 12.3866 34.1334 12.3866 34.1334C13.7133 32.7601 15.58 30.1467 16.04 27.7467C16.7 24.3267 16.26 21.1267 18.58 19.4667C20.9 17.8067 23.3266 17.1467 23.8733 14.9401H25.8266C25.8266 14.9401 25.9666 16.9267 27.84 17.8134C29.7133 18.6934 31.3733 19.6867 32.3666 23.0067C33.36 26.3201 33.1466 27.8667 34.1266 29.5134C34.8333 30.7001 35.9466 32.7601 37.0733 34.5801C37.0733 34.5801 40.1533 35.8401 38.8333 37.3534C37.18 38.8467 35.6666 35.8401 35.6666 35.8401C33.8133 34.1001 30.82 31.1401 30.1533 28.0734C29.2733 23.9934 28.4933 22.9934 28.4933 22.9934L20.4333 22.8801C20.4333 22.8801 20.98 31.2401 13.8266 35.3467C13.8266 35.3467 12.1333 38.1867 10.8133 37.1067L10.82 37.1001Z" fill="#FEB095"/>
<path d="M18.2201 36.4267C20.9534 36.14 23.6868 36.9867 26.1668 38.14C29.5734 39.72 31.4934 40.9667 33.5334 41.82C35.4068 42.6067 37.7401 43.1133 39.3534 41.8667" stroke="black" stroke-width="0.857143" stroke-linecap="round" stroke-linejoin="round"/>
<path d="M15.96 41.2934C18.28 40.86 20.5333 40.0267 22.5733 38.8334" stroke="black" stroke-width="0.857143" stroke-linecap="round" stroke-linejoin="round"/>
<path d="M24.3067 10.44C24.3067 10.44 24.0867 13.0266 21.78 13.8C21.78 13.8 19.5933 9.19331 24.16 8.31998C29.3133 8.27331 27.4467 14.1066 27.4467 14.1066C27.4467 14.1066 24.8667 13.0666 24.3067 10.4333V10.44Z" fill="black"/>
<path d="M25.7199 7.78666C25.7799 6.79332 25.1133 5.93999 24.2399 5.88666C23.3666 5.83332 22.6066 6.59999 22.5466 7.59999C22.4866 8.59332 23.1533 9.44666 24.0266 9.49999C24.8999 9.55332 25.6599 8.78666 25.7199 7.78666Z" fill="black"/>
<path d="M20.3133 24.9866L19.26 18.9933L20.3133 18.3533C20.3133 18.3533 21.62 20.4 24.6 20.4333C27.5867 20.48 28.7867 18.2733 28.7867 18.2733L30.1267 19.1866C30.1267 19.1866 29.42 22.9933 29.0733 24.9733C28.72 26.9733 20.94 28.5266 20.3133 24.9866Z" fill="#AB8DDB"/>
</g>
<defs>
<clipPath id="clip0_222_32505">
<rect width="48" height="48" fill="white"/>
</clipPath>
</defs>
</svg>