<svg xmlns:xlink="http://www.w3.org/1999/xlink" xmlns="http://www.w3.org/2000/svg" name="check" viewBox="0 0 24 24" class="sc-43615ed2-0 hIsBOU" width="24"  height="24" ><defs><symbol viewBox="0 0 24 24" fill="none" id="check"><path fill="#32B2A8" d="M16.08 4.936c-1.9 2.2-3.7 4.5-5.4 6.8-.8-1.4-1.6-2.9-2.3-4.4-1.7-3.3-6.8-.4-5 3 1.4 2.8 3 5.6 4.6 8.3 1.2 2 3.8 1.8 5 0 2.3-3.3 4.7-6.4 7.3-9.5 2.3-2.9-1.8-7-4.2-4.2"></path><path fill="#000" d="M10.879 20.336c-.2 0-.3-.1-.4-.2-2.4-2.9-4.6-6-6.7-9.2-.2-.2-.1-.5.1-.7s.5-.1.7.1c1.9 3 4 5.8 6.2 8.6 3.1-3.9 5.6-7.6 8.6-12.4.1-.2.5-.3.7-.2s.3.5.2.7c-3.2 5-5.8 8.8-9.1 13 0 .2-.2.3-.3.3"></path></symbol></defs><use xlink:href="#check" xmlns="http://www.w3.org/2000/svg"></use></svg>