<svg xmlns:xlink="http://www.w3.org/1999/xlink" xmlns="http://www.w3.org/2000/svg" width="48" height="48" viewBox="0 0 48 48" fill="none">
<g clip-path="url(#clip0_222_32484)">
<path d="M38 0H10C4.47715 0 0 4.47715 0 10V38C0 43.5229 4.47715 48 10 48H38C43.5229 48 48 43.5229 48 38V10C48 4.47715 43.5229 0 38 0Z" fill="#FEE3D9"/>
<path d="M31.0467 19.4667C29.3933 16.38 28.9467 20.8467 27.1867 22.22C26.4733 20.3467 27.4067 18.0333 26.7467 16.1C26.14 14.28 24.7067 12.96 22.94 12.2933C22.6667 12.18 22.2733 12.46 22.3333 12.7867C22.6067 14.9933 21.2333 16.7533 20.46 18.6867C19.9667 19.9533 19.7467 21.1667 19.7933 22.4933C17.92 20.84 18.9133 19.46 18.0267 19.1867C16.5333 18.8 16.1533 22.66 16.1 23.5467C15.7267 26.52 16.3467 29.8133 18.4267 31.8733C19.12 32.56 20.5467 33.24 20.6067 33.24C21.8333 33.9133 23.4333 34.08 24.7 33.9133C27.9 33.5267 30.0467 31.5933 31.0933 28.9533C32.1467 26.1467 32.48 22.1733 31.0467 19.4667V19.4667Z" fill="#F38059"/>
<path d="M29.8334 24.3799C29.78 23.9399 29.34 23.0599 28.8934 23.1132C28.6734 23.1666 28.4 23.4999 28.2267 23.6666C27.62 24.3332 27.1934 25.2799 26.56 25.9132C25.8934 25.1399 25.42 23.3399 25.2 22.2332C24.98 21.3532 24.8134 20.5266 24.3734 19.6999C24.26 19.4799 23.9334 19.3666 23.7067 19.5332C22.2134 20.6932 21.6067 22.3466 21.72 24.2199C21.72 24.7732 22.1067 26.6999 22.1067 26.6999C21.44 26.5866 21.28 26.4266 20.7867 25.9866C20.4 25.7132 19.9067 24.7732 19.3534 24.9932C17.9734 25.5999 18.7467 29.0732 19.08 30.1799C19.52 31.6132 20.46 32.6599 21.6134 33.4332C21.8867 33.6532 22.9934 34.0932 23.1067 34.0399C27.3667 34.3199 28.0534 32.3066 28.9867 30.2066C29.6867 28.4932 30.1067 26.3666 29.8334 24.3866V24.3799Z" fill="#F8CD3D"/>
<path d="M20.0734 33.0999C21.5667 33.6866 23.2 34.0999 24.78 33.8333C30.5667 32.8466 31.26 28.4866 31.6667 25.9066" stroke="black" stroke-width="0.857143" stroke-linecap="round" stroke-linejoin="round"/>
<path d="M15.98 24.3666C15.8267 26.8599 16.54 29.3999 17.98 31.4399" stroke="black" stroke-width="0.857143" stroke-linecap="round" stroke-linejoin="round"/>
<path d="M19.8067 22.6599C19.6334 21.4133 19.9 20.1399 20.3334 18.9533C20.7667 17.7666 21.38 16.6599 21.92 15.5266C22.4 14.5199 22.8334 13.3333 22.3667 12.3199" stroke="black" stroke-width="0.857143" stroke-linecap="round" stroke-linejoin="round"/>
<path d="M22.3667 12.3267C25.0734 12.4933 26.6734 14.86 26.84 17.0533C26.9267 18.2 26.4534 19.6067 26.9134 21.28" stroke="black" stroke-width="0.857143" stroke-linecap="round" stroke-linejoin="round"/>
<path d="M24 37.8C32.1002 37.8 38.6667 31.2335 38.6667 23.1333C38.6667 15.0332 32.1002 8.46667 24 8.46667C15.8999 8.46667 9.33337 15.0332 9.33337 23.1333C9.33337 31.2335 15.8999 37.8 24 37.8Z" stroke="#A4DAD8" stroke-width="3.42857"/>
<path d="M24 8.46667C32.1 8.46667 38.6667 15.0333 38.6667 23.1333C38.6667 31.2333 32.1 37.8 24 37.8C19.9467 37.8 16.28 36.16 13.6267 33.5067" stroke="#33B3A8" stroke-width="3.42857" stroke-linecap="round" stroke-linejoin="round"/>
<path d="M17.6666 17.2866C17.7199 17.4533 17.9666 17.4533 18.0199 17.2866C18.1466 16.8666 18.3199 16.5399 18.5999 16.2599C18.8466 16.0199 19.1133 15.8466 19.4399 15.7399C19.6066 15.6866 19.6066 15.4666 19.4466 15.4066C19.0466 15.2599 18.7133 15.0466 18.4799 14.6866C18.2599 14.3533 18.1333 13.9799 18.0399 13.5799C17.9999 13.3933 17.7266 13.3933 17.6799 13.5799C17.5933 13.9199 17.4866 14.2333 17.2733 14.5199C17.0199 14.8666 16.6599 15.1266 16.2066 15.3199C16.0466 15.3866 16.0666 15.6133 16.2333 15.6533C16.4666 15.7066 16.6933 15.7999 16.9066 15.9733C17.0733 16.1066 17.2199 16.2799 17.3133 16.4666C17.4733 16.7733 17.5666 16.9933 17.6599 17.2866H17.6666Z" fill="#FEDA72"/>
<path d="M17.9333 17.5133C17.9467 17.5666 18.02 17.5666 18.0333 17.5133C18.16 16.9533 18.3133 16.5533 18.6267 16.2333C18.92 15.9333 19.2533 15.7599 19.7067 15.6866C19.76 15.6799 19.7667 15.5999 19.7067 15.5866C19.2 15.4533 18.7867 15.2533 18.52 14.8399C18.2467 14.4133 18.14 13.9066 18.04 13.3599C18.0333 13.3066 17.9467 13.2999 17.9333 13.3599C17.8267 13.8599 17.7533 14.3066 17.4733 14.6999C17.1867 15.0933 16.7467 15.3666 16.1867 15.5466C16.1333 15.5666 16.14 15.6399 16.2 15.6466C16.52 15.6799 16.86 15.7399 17.16 15.9933C17.3 16.1133 17.4333 16.2599 17.5133 16.4266C17.7067 16.8199 17.7933 17.0466 17.92 17.5266L17.9333 17.5133Z" stroke="black" stroke-width="0.857143" stroke-linecap="round" stroke-linejoin="round"/>
<path d="M15.7467 18.9067C15.9933 18.6733 16.0267 18.2733 15.82 18.0133C15.6067 17.7533 15.16 17.6933 14.8867 17.8933C14.8 17.96 14.7267 18.0467 14.68 18.14C14.5333 18.4333 14.6 18.82 14.88 19.0133C15.0467 19.1267 15.3667 19.2733 15.7533 18.9L15.7467 18.9067Z" stroke="black" stroke-width="0.857143" stroke-linecap="round" stroke-linejoin="round"/>
</g>
<defs>
<clipPath id="clip0_222_32484">
<rect width="48" height="48" fill="white"/>
</clipPath>
</defs>
</svg>