<svg xmlns:xlink="http://www.w3.org/1999/xlink" xmlns="http://www.w3.org/2000/svg" width="48" height="48" viewBox="0 0 48 48" fill="none">
<g clip-path="url(#clip0_4283_80078)">
<path d="M38 0H10C4.47715 0 0 4.47715 0 10V38C0 43.5229 4.47715 48 10 48H38C43.5229 48 48 43.5229 48 38V10C48 4.47715 43.5229 0 38 0Z" fill="#C4ECE9"/>
<path d="M18.4993 35.3371C32.2688 40.0621 39.8354 19.465 24.7451 14.535C12.959 10.859 3.47579 29.5108 18.4993 35.3371Z" fill="#FEB095"/>
<path d="M20.0289 30.7099C27.6063 33.31 31.7701 21.9755 23.466 19.2625C16.9801 17.2396 11.7615 27.5037 20.0289 30.7099Z" fill="#F38059"/>
<path d="M24.5915 41.3095C33.528 40.5644 39.6728 31.6279 38.3688 21.9463C37.0648 12.2647 28.3146 7.98271 19.0056 8.91151C11.7772 9.63304 5.34899 18.5302 6.15711 26.7871C6.90225 34.3933 12.3203 42.3328 24.5915 41.3095V41.3095Z" stroke="#000104" stroke-width="0.814295" stroke-linecap="round" stroke-linejoin="round"/>
<path d="M23.854 36.0567C29.8964 35.5529 34.0525 29.5104 33.1709 22.9642C32.2893 16.4179 26.3728 13.5213 20.0784 14.151C15.1904 14.639 10.8454 20.6553 11.3912 26.2386C11.8949 31.3811 15.5603 36.7493 23.854 36.0593V36.0567Z" stroke="#000104" stroke-width="0.814295" stroke-linecap="round" stroke-linejoin="round"/>
<path d="M23.0933 30.6181C26.1395 30.3636 28.2332 27.3175 27.7898 24.0194C27.3464 20.7188 24.3632 19.2599 21.1911 19.5774C18.7274 19.8241 16.5366 22.8545 16.8121 25.6698C17.0666 28.262 18.9137 30.9671 23.0933 30.6181V30.6181Z" stroke="#000104" stroke-width="0.814295" stroke-linecap="round" stroke-linejoin="round"/>
<path d="M38.8664 8.3863L22.3136 25.5638" stroke="#000104" stroke-width="0.814295" stroke-linecap="round" stroke-linejoin="round"/>
<path d="M33.7501 13.8295C35.3916 13.6539 37.0301 13.4358 38.6602 13.177C38.8357 13.1482 39.0131 13.1212 39.1725 13.0409C39.3923 12.9311 39.5559 12.7356 39.7105 12.5458L43.1293 8.37536L38.9851 8.31141C38.9112 6.86019 38.5706 5.43464 38.4967 3.98342L33.7273 8.80051C33.525 9.00635 33.3118 9.22361 33.2263 9.50056C33.165 9.70635 33.1765 9.9269 33.1896 10.1418C33.2667 11.361 33.6712 12.6122 33.7483 13.8314L33.7501 13.8295Z" stroke="#000104" stroke-width="0.814295" stroke-linecap="round" stroke-linejoin="round"/>
<path d="M41.3927 10.4204C39.9351 10.3256 38.4743 10.3182 37.0177 10.3978" stroke="#000104" stroke-width="0.814295" stroke-linecap="round" stroke-linejoin="round"/>
<path d="M40.1995 11.9574C38.7249 11.9874 37.2462 11.9377 35.7784 11.808" stroke="#000104" stroke-width="0.814295" stroke-linecap="round" stroke-linejoin="round"/>
<path d="M36.8618 5.58956L37.159 10.1231" stroke="#000104" stroke-width="0.814295" stroke-linecap="round" stroke-linejoin="round"/>
<path d="M35.1752 7.48636C34.9656 8.95071 35.7184 10.3875 35.743 11.8679" stroke="#000104" stroke-width="0.814295" stroke-linecap="round" stroke-linejoin="round"/>
</g>
<defs>
<clipPath id="clip0_4283_80078">
<rect width="48" height="48" fill="white"/>
</clipPath>
</defs>
</svg>