<svg xmlns:xlink="http://www.w3.org/1999/xlink" xmlns="http://www.w3.org/2000/svg" width="48" height="48" viewBox="0 0 48 48" fill="none">
<g clip-path="url(#clip0_222_32433)">
<path d="M38 0H10C4.47715 0 0 4.47715 0 10V38C0 43.5229 4.47715 48 10 48H38C43.5229 48 48 43.5229 48 38V10C48 4.47715 43.5229 0 38 0Z" fill="#FEF0C2"/>
<path d="M11.3267 29.0934C11.3267 29.0934 9.7 27.3534 8.65334 25.9934C8.09334 25.2667 8.03334 24.7134 7.74 24.4401C7.39334 24.1067 5.78 24.7467 5.78 24.7467C4.56667 24.7601 2.79334 24.6001 2.7 25.2601C2.61334 25.8734 6.26667 26.9467 6.49334 27.3867L8.42667 31.1734C8.42667 31.1734 10.5733 30.8267 11.3333 29.0934H11.3267Z" fill="#FEB095"/>
<path d="M34.7933 36.4467C34.7933 36.4467 35.4533 38.7334 35.76 40.4201C35.9267 41.3267 35.7333 41.8467 35.8733 42.2201C36.0333 42.6734 37.9 42.3067 37.9 42.3067C39.3 42.2267 41.1733 42.2867 41.56 41.7401C41.9133 41.2401 38.3267 40.6534 38.3267 40.1601V35.9067C38.3267 35.9067 36.26 35.2401 34.7933 36.4401V36.4467Z" fill="#FEB095"/>
<path d="M19.1934 25.18C19.1934 25.18 19.7934 23.8466 19.5267 22.4466C19.5267 21.18 24.66 19.18 25.7934 19.0466C25.7934 19.0466 25.06 22.5133 25.46 25.2466C25.5934 26.3133 20.1267 26.18 19.1934 25.18Z" fill="#FEB095"/>
<path d="M22.5266 32.5133C25.26 32.2467 31.9933 29.18 33.1266 28.78C33.1266 28.78 34.3933 35.0467 34.9266 36.8467C34.9266 36.8467 37.9266 36.3133 38.3266 36.2467C38.3266 36.2467 37.9266 27.78 37.1933 25.18C36.46 22.58 34.7266 22.4467 32.5933 22.8467C26.26 24.1133 20.9266 25.3133 20.9266 25.3133C20.9266 25.3133 19.7933 32.78 22.5266 32.5133Z" fill="#AB8DDB"/>
<path d="M19.8601 28.2466C17.5267 29.5799 16.1934 33.7132 15.3267 34.5799C15.3267 34.5799 13.0467 30.6999 10.6067 28.2932C10.6067 28.2932 8.18673 29.7866 7.85339 30.0532C7.85339 30.0532 11.3934 37.4466 13.0601 39.5132C14.7267 41.6466 17.1934 41.3799 18.6601 39.6466C22.7267 34.7132 25.0601 29.7132 25.0601 29.7132C25.0601 29.7132 22.1934 26.9132 19.8601 28.2466Z" fill="#AB8DDB"/>
<path d="M20.1266 13.5799C20.1266 13.5799 20.8866 12.1066 21.0199 11.1066C21.1533 10.1066 23.1266 10.7799 23.2599 11.3133C23.3933 11.8466 23.1933 13.4466 23.9266 15.0466C24.8599 16.3133 20.1266 13.5799 20.1266 13.5799Z" fill="#FEB095"/>
<path d="M19.5267 22.5133C19.5267 22.5133 18.46 18.2467 18.5267 16.7133C18.5267 15.0467 19.1267 12.8467 21.06 12.8467C23.7267 12.7133 26.3933 15.58 26.3267 17.1133C26.26 18.6467 25.86 19.9133 25.46 22.4467C24.1267 22.38 22.3267 22.58 19.5267 22.5133Z" fill="#AB8DDB"/>
<path d="M16.1932 19.78C15.8599 19.0466 14.7266 18.9133 13.7266 19.58C11.6599 21.1133 8.19325 26.0466 7.72658 26.9133C6.92658 28.2466 8.32658 29.3133 9.39325 28.4466C10.4599 27.58 15.4599 23.0466 15.4599 23.0466C15.4599 23.0466 17.3932 21.18 16.1932 19.78Z" fill="#FEB095"/>
<path d="M12.5934 23.1133C12.06 22.38 12.3267 21.18 14.46 18.7133C16.9267 15.98 19.06 13.98 20.3267 13.5133C21.5934 13.0467 23.9267 14.9133 21.3934 17.5133C19.66 19.2467 16.46 22.4467 15.06 23.4467C14.1934 24.3133 13.3934 24.18 12.5934 23.1133Z" fill="#FEB095"/>
<path d="M20.9932 11.4466C20.9932 11.4466 23.5266 12.38 24.5266 11.58C25.4599 10.7133 24.7932 7.77998 23.9266 6.64664C23.1266 5.64664 21.0599 5.17998 19.9932 6.44664C18.7932 7.84664 18.5266 10.0466 20.9932 11.4466Z" fill="#FEB095"/>
<path d="M20.9933 11.4466C20.9933 11.4466 22.1266 10.3799 22.9266 9.04658C23.4599 8.11325 23.9666 7.16658 23.5666 6.29991C23.5666 6.29991 20.9666 4.23325 19.1266 7.04658C17.8399 9.73325 20.7933 11.4466 20.9933 11.4466Z" fill="#000104"/>
<path d="M23.26 9.85967C23.5144 9.54447 23.3953 9.02655 22.9942 8.70285C22.593 8.37916 22.0616 8.37227 21.8073 8.68747C21.553 9.00266 21.672 9.52058 22.0732 9.84428C22.4743 10.168 23.0057 10.1749 23.26 9.85967Z" fill="#FEB095"/>
<path d="M19.5666 6.11329C17.6333 5.10663 14.6866 6.02663 13.68 8.21329C13.0066 9.39329 12.8933 10.3533 12.22 11.4466C11.7133 12.2866 10.2733 12.84 10.2333 14.1866C10.16 16.4933 13.3133 18.3333 16.1733 16.1466C18.2733 14.6333 17.4666 11.9133 17.5533 11.16C17.5533 10.1533 18.06 9.05996 18.6466 8.46663C19.9066 7.45996 21.42 7.79329 21.42 7.79329C22.0933 7.45996 20.4133 6.44663 19.5666 6.11329Z" fill="#000104"/>
<path d="M19.1933 25.1799C19.1933 25.1799 22.9933 24.7132 25.1933 24.3799C25.1933 24.3799 27.9933 27.7132 24.3933 30.9132C23.1267 32.0465 17.5267 31.1132 17.5267 31.1132C17.5267 31.1132 16.1267 27.7132 19.1933 25.1799Z" fill="#AB8DDB"/>
<path d="M17.46 30.78C18.7266 32.18 20.7266 32.7133 22.5933 32.58C24.46 32.4466 26.26 31.7133 27.9933 30.98C29.66 30.2466 31.3266 29.4466 32.9266 28.58" stroke="#000104" stroke-width="0.857143" stroke-linecap="round" stroke-linejoin="round"/>
<path d="M10.4599 27.4867C9.85992 28.18 9.15325 28.78 8.37325 29.2734C8.01992 29.4934 7.01325 29.7667 6.62659 28.58" stroke="#000104" stroke-width="0.857143" stroke-linecap="round" stroke-linejoin="round"/>
<path d="M6.85327 27.8066C7.55994 26.9866 8.21327 26.12 8.81327 25.22" stroke="#000104" stroke-width="0.857143" stroke-linecap="round" stroke-linejoin="round"/>
</g>
<defs>
<clipPath id="clip0_222_32433">
<rect width="48" height="48" fill="white"/>
</clipPath>
</defs>
</svg>