<svg xmlns:xlink="http://www.w3.org/1999/xlink" xmlns="http://www.w3.org/2000/svg" name="tiredBeforeMeals2" viewBox="0 0 24 24" class="sc-43615ed2-0 cCXfEq sc-b47950c5-6 gMyOhV" width="24"  height="24" ><defs><symbol viewBox="0 0 24 24" fill="none" id="tiredBeforeMeals2"><path fill="#C4ECE9" d="M18.14 10.51c.23.32.74.16.74-.24-.02-1.92-.06-5.46-.17-6.55-.18-1.78-1.67-2.79-4.76-3.07-3.1-.29-6.24-.54-7.87.93S4.11 7.76 8.91 8.41c4.47.62 7.96.34 7.96.34z"></path><path fill="#FBB49B" d="M23.01 11.51c-.33 2.82-1.64 6.73-3.36 8.8-2.08 2.51-5.07 3.51-8.75 3.08-3.56-.41-6.41-2.05-7.89-4.59-1.39-2.41-2.29-5.4-1.94-8.44z"></path><path stroke="#000" stroke-linecap="round" stroke-linejoin="round" stroke-miterlimit="10" d="M10.49 16.15c.64-.4 2.56-.57 4.04.12"></path><path fill="#F89879" d="M6.14 15.92c.14-.52-.26-1.08-.9-1.25s-1.27.1-1.41.62.26 1.08.9 1.25c.63.17 1.27-.1 1.41-.62M19 17.42c.66-.08 1.14-.58 1.07-1.11s-.65-.9-1.31-.81c-.66.08-1.14.58-1.07 1.11.06.53.65.9 1.31.81"></path><path fill="#FBB49B" d="m18.28 13.48-3.83-.89c.02-.68.43-1.61 2.29-1.18 1.92.44 1.77 1.66 1.54 2.07"></path><path fill="#E1A18A" d="M7.3 15.47c1.21.27 1.62-.59 1.92-1.4.13-.56.04-1.18-.83-1.5-.88-.33-1.83.05-2.13.85-.3.81.17 1.73 1.04 2.05"></path><path fill="#fff" d="M7.59 14.65c.65.15 1.3-.26 1.45-.91s-.26-1.3-.91-1.45-1.3.26-1.45.91.26 1.3.91 1.45"></path><path fill="#030000" d="M7.68 14.25c.44.1.87-.17.97-.61s-.17-.87-.61-.97-.87.17-.97.61.17.87.61.97"></path><path fill="#FBB49B" d="m5.63 13.23 3.92-.24c.1-.57-.14-1.41-2.05-1.29-1.96.12-2.02 1.16-1.87 1.53"></path><path fill="#E1A18A" d="M17.38 15.69c-1.26.24-1.64-.63-1.91-1.43-.11-.56.01-1.17.93-1.48s1.88.09 2.15.9c.27.8-.26 1.7-1.17 2.01"></path><path fill="#fff" d="M17.18 14.86c-.66.13-1.29-.3-1.42-.96s.3-1.29.96-1.42 1.29.3 1.42.96-.3 1.3-.96 1.42"></path><path fill="#030000" d="M17.11 14.47c-.44.08-.86-.2-.95-.64-.08-.44.2-.86.64-.95.44-.08.86.2.95.64.08.44-.21.86-.64.95"></path><path fill="#FBB49B" d="m19.19 13.52-3.91-.39c-.07-.58.19-1.4 2.09-1.22 1.96.2 1.99 1.24 1.82 1.61M16.507 5.953c.99-1.368-.126-2.923-1.583-3.257-.915-.209-1.843-.01-2.67.406-.506.255-1.06.591-1.476 1.027a1.4 1.4 0 0 0-.508.669.4.4 0 0 0-.064.162q-.059.345.01.624c.144.67.747 1.17 1.374 1.394.997.356 2.255.368 3.319-.016.641-.164 1.217-.484 1.598-1.009"></path><path fill="#FCF3CF" d="M9.214 6.918c.173-.179.229-.41.238-.646a39 39 0 0 0 1.68-.393c.274-.07.308-.37.184-.544-.023-.18-.174-.354-.405-.32-.303.045-1.324.277-1.627.322 0 0-.11-.436-.265-.555-.312-.237-.583-.214-.838-.065-.253.15-.404.445-.327.737.039.147.292.487.418.557a.7.7 0 0 0-.127.237c-.09.287.01.648.28.804.26.149.586.077.79-.134"></path><path stroke="#000" stroke-linecap="round" stroke-linejoin="round" stroke-miterlimit="10" stroke-width=".75" d="M11.018 5.908c-.485.113-1.235.228-1.597.285.104.242 0 .534-.19.717a.82.82 0 0 1-.712.226.67.67 0 0 1-.523-.51c-.047-.254.103-.538.35-.62M9.294 5.186c.01-.213-.447-.738-1.024-.582-.422.114-.635.744-.222 1.15M10.78 4.058c.285-.31.614-.58.975-.798a5 5 0 0 1 1.284-.544c.542-.149 1.112-.22 1.667-.13.554.089 1.092.347 1.456.775M16.816 4.915c-.005.47-.22.925-.541 1.269s-.748.578-1.195.724"></path></symbol></defs><use xlink:href="#tiredBeforeMeals2" xmlns="http://www.w3.org/2000/svg"></use></svg>