<svg xmlns:xlink="http://www.w3.org/1999/xlink" xmlns="http://www.w3.org/2000/svg" name="tired" viewBox="0 0 24 24" class="sc-43615ed2-0 cCXfEq sc-b47950c5-6 gMyOhV" width="24"  height="24" ><defs><symbol viewBox="0 0 24 24" fill="none" id="tired"><path fill="#FBB49B" d="M22.84 10.855c-.327 2.818-1.643 6.726-3.359 8.798-2.075 2.508-5.072 3.508-8.752 3.082-3.556-.41-6.413-2.052-7.885-4.595C1.45 15.732.55 12.74.903 9.696z"></path><path stroke="#000" stroke-linecap="round" stroke-linejoin="round" stroke-miterlimit="10" d="M10.324 15.491c.638-.4 2.56-.575 4.044.118"></path><path fill="#F89879" d="M5.97 15.263c.141-.517-.262-1.076-.9-1.251-.639-.175-1.271.101-1.412.617s.262 1.076.9 1.251c.639.175 1.271-.102 1.412-.618M18.83 16.765c.657-.082 1.136-.578 1.07-1.109-.065-.53-.651-.895-1.308-.813-.657.081-1.137.578-1.07 1.108.065.531.65.895 1.308.814"></path><path fill="#FBB49B" d="m18.112 12.816-3.828-.892c.024-.68.43-1.614 2.293-1.18 1.914.446 1.763 1.668 1.535 2.072"></path><path fill="#E1A18A" d="M7.134 14.815c1.213.267 1.621-.595 1.922-1.396.135-.56.044-1.175-.832-1.504-.875-.33-1.829.053-2.13.854s.164 1.717 1.04 2.046"></path><path fill="#fff" d="M7.421 13.987a1.212 1.212 0 1 0 .544-2.363 1.212 1.212 0 0 0-.544 2.362"></path><path fill="#030000" d="M7.512 13.593a.808.808 0 1 0 .362-1.575.808.808 0 0 0-.362 1.575"></path><path fill="#FBB49B" d="m5.462 12.571 3.923-.244c.096-.573-.14-1.41-2.049-1.291-1.961.121-2.028 1.166-1.874 1.535"></path><path fill="#E1A18A" d="M17.21 15.029c-1.26.237-1.636-.629-1.906-1.432-.11-.56.014-1.17.93-1.477s1.876.095 2.146.899c.27.803-.255 1.703-1.17 2.01"></path><path fill="#fff" d="M17.015 14.202a1.212 1.212 0 1 1-.459-2.38 1.212 1.212 0 0 1 .459 2.38"></path><path fill="#030000" d="M16.938 13.805a.808.808 0 1 1-.305-1.587.808.808 0 0 1 .305 1.587"></path><path fill="#FBB49B" d="m19.023 12.858-3.912-.385c-.075-.577.191-1.404 2.095-1.217 1.956.193 1.984 1.24 1.817 1.602"></path><path fill="#F38059" d="m10.573 2.761.066 2.892c.012.533-.35.977-.813.988l-1.553.033c-.474.011-.858-.444-.843-.991l.077-2.866c.015-.507.363-.914.8-.932l1.408-.06c.459-.018.847.404.858.936"></path><path stroke="#000" stroke-linecap="round" stroke-linejoin="round" stroke-miterlimit="10" stroke-width=".75" d="M6.42 7.61c4.678-.052 7.703-.104 12.381-.156.155 0 .326-.007.444-.103.14-.115.174-.31.196-.492.214-1.86.288-3.739.214-5.614-3.997-.244-6.39-.347-10.391-.114-1.21.07-2.848.17-2.848.17-.162.51 0 6.309.004 6.309"></path><path stroke="#000" stroke-linecap="round" stroke-linejoin="round" stroke-miterlimit="10" stroke-width=".75" d="M6.261 5.979c-.4.137-.832.188-1.254.144Q5.001 4.349 5 2.569h1.353M12.415 2.62a133 133 0 0 1 4.696 3.263"></path><path stroke="#000" stroke-linecap="round" stroke-linejoin="round" stroke-miterlimit="10" stroke-width=".75" d="M16.678 2.388c-1.42 1.28-2.84 2.555-4.263 3.835"></path></symbol></defs><use xlink:href="#tired" xmlns="http://www.w3.org/2000/svg"></use></svg>