<svg xmlns:xlink="http://www.w3.org/1999/xlink" xmlns="http://www.w3.org/2000/svg" name="aternoonYawns2" viewBox="0 0 24 24" class="sc-43615ed2-0 cCXfEq sc-b47950c5-6 gMyOhV" width="24"  height="24" ><defs><symbol viewBox="0 0 24 24" fill="none" id="aternoonYawns2"><path fill="#FBB49B" d="M23 6.354c-.224 2.83-1.395 6.782-3.034 8.916-1.982 2.582-4.94 3.69-8.633 3.4-3.57-.28-6.484-1.815-8.049-4.303C1.804 12.012.794 9.055 1.036 6z"></path><path stroke="#000" stroke-linecap="round" stroke-linejoin="round" stroke-miterlimit="10" d="M10.94 11.762C12 11.5 13 11.5 14.01 11.56"></path><path fill="#fff" d="M16.81 10.425a1.212 1.212 0 1 0 0-2.425 1.212 1.212 0 0 0 0 2.425"></path><path fill="#030000" d="M16.81 10.02a.808.808 0 1 0 0-1.616.808.808 0 0 0 0 1.617"></path><path fill="#fff" d="M6.664 10.425a1.212 1.212 0 1 0 0-2.425 1.212 1.212 0 0 0 0 2.425"></path><path fill="#030000" d="M6.664 10.02a.808.808 0 1 0 0-1.616.808.808 0 0 0 0 1.617"></path><path fill="#F89879" d="M6.317 11.75c.157-.512-.228-1.084-.86-1.28-.633-.194-1.274.062-1.432.573s.228 1.084.86 1.279c.634.195 1.274-.062 1.432-.573M18.346 12.61c.66-.06 1.154-.541 1.105-1.074-.05-.532-.623-.915-1.283-.854-.659.06-1.154.541-1.105 1.074.05.533.624.915 1.283.855"></path><path fill="#FBB49B" d="m18.946 9.361-3.913-.367c-.056-.808.239-1.986 2.143-1.808 1.957.184 1.95 1.656 1.77 2.175M4.183 9.285l3.92-.288c.072-.807-.2-1.99-2.107-1.85-1.96.144-1.983 1.616-1.813 2.138"></path></symbol></defs><use xlink:href="#aternoonYawns2" xmlns="http://www.w3.org/2000/svg"></use></svg>