<svg xmlns:xlink="http://www.w3.org/1999/xlink" xmlns="http://www.w3.org/2000/svg" name="chair" viewBox="0 0 24 24" class="sc-43615ed2-0 cCXfEq sc-b47950c5-6 gMyOhV" width="24"  height="24" ><defs><symbol viewBox="0 0 24 24" fill="none" id="chair"><path fill="#A0DFDA" d="M19.732 9.802a2.18 2.18 0 0 0-1.526-.582 27.5 27.5 0 0 0-.236-4.33c-.177-1.315-.538-2.426-1.815-3.023-1.811-.847-4.248-1-6.32-.508H9.82c-.4.056-1.162.38-1.472.538C6.334 3.257 6.5 7.04 6.475 9.057c-.73-.225-1.577-.032-2.187.498-1.103.962-.954 2.511-.667 3.804s.823 2.588 2.152 3.09c1.649.626 3.831.406 5.573.452 1.82.046 3.847.274 5.645-.036 1.615-.28 2.43-1.957 3-3.352.472-1.147.782-2.762-.259-3.711"></path><path stroke="#000" stroke-linecap="round" stroke-linejoin="round" stroke-miterlimit="10" d="M3.662 9.804c.47-.623 1.241-1.13 1.998-.933.618.161 1.04.749 1.246 1.354s.246 1.254.413 1.872c.036.13.082.272.195.349.092.066.215.077.328.085 2.275.153 4.558.2 6.838.135"></path><path stroke="#000" stroke-linecap="round" stroke-linejoin="round" stroke-miterlimit="10" d="M16.265 11.146c-.008-.95.672-1.86 1.585-2.126.913-.267 1.972.143 2.474.946.393.63.442 1.426.329 2.16-.239 1.554-1.118 2.93-2.057 4.195-.157.21-.323.426-.562.539-.228.108-.492.102-.743.095q-6.066-.159-12.132-.318A15.9 15.9 0 0 1 3 11.467M6.65 7.668a43 43 0 0 1-.018-3.503c.033-.965.184-2.08 1.01-2.578.313-.19.682-.256 1.041-.313a23 23 0 0 1 6.333-.105c.423.051.856.118 1.225.33.967.555 1.165 1.842 1.216 2.955q.086 1.817.026 3.635M12.225 16.87v2.452M9.296 19.917h6.335M8.514 20.974a1.05 1.05 0 0 0-1.087.551c-.195.39-.103.9.213 1.2.315.3.83.362 1.21.15.316-.178.523-.532.526-.893a1.05 1.05 0 0 0-.516-.898M16.12 20.974a1.05 1.05 0 0 0-1.087.551c-.194.39-.102.9.213 1.2.316.3.831.362 1.21.15.316-.178.524-.532.527-.893a1.05 1.05 0 0 0-.516-.898"></path></symbol></defs><use xlink:href="#chair" xmlns="http://www.w3.org/2000/svg"></use></svg>