<svg xmlns:xlink="http://www.w3.org/1999/xlink" xmlns="http://www.w3.org/2000/svg" name="cross" viewBox="0 0 24 24" class="sc-43615ed2-0 cCXfEq sc-b47950c5-6 gMyOhV" width="24"  height="24" ><defs><symbol viewBox="0 0 24 24" fill="none" id="cross"><path fill="#F38059" d="M21.6 16.567c-1.7-1.4-3.4-2.8-5.2-4.3 1.7-1.5 3.3-3 5-4.4 2.7-2.3-.9-6.5-3.6-4.2l-5.7 5.1c-1.8-1.5-3.6-2.9-5.4-4.4-1.2-.9-3-.4-3.8.7-.9 1.3-.5 2.9.7 3.8 1.4 1.2 2.9 2.3 4.3 3.5-1.7 1.5-3.3 3-5 4.5-2.6 2.4 1 6.6 3.6 4.2 1.9-1.7 3.8-3.4 5.7-5.2 2.1 1.7 4.1 3.4 6.2 5.1 1.1 1 3 .4 3.8-.7 1.1-1.2.6-2.8-.6-3.7"></path><path fill="#000" d="M6 21.968c-.1 0-.3-.1-.4-.2-.2-.2-.2-.5 0-.7 5.1-4.5 10.1-9.2 14.9-14 .2-.2.5-.2.7 0s.2.5 0 .7c-4.8 4.9-9.8 9.6-14.9 14.1 0 .1-.1.1-.3.1M8 12.968c-.1 0-.2 0-.3-.1-1.4-1.3-2.9-2.5-4.4-3.6-.2-.2-.3-.5-.1-.7s.5-.3.7-.1c1.6 1.1 3.1 2.4 4.5 3.6.2.2.2.5 0 .7-.2.1-.3.2-.4.2"></path></symbol></defs><use xlink:href="#cross" xmlns="http://www.w3.org/2000/svg"></use></svg>