<svg xmlns:xlink="http://www.w3.org/1999/xlink" xmlns="http://www.w3.org/2000/svg" name="sneakers" viewBox="0 0 24 24" class="sc-43615ed2-0 cCXfEq sc-b47950c5-6 gMyOhV" width="24"  height="24" ><defs><symbol viewBox="0 0 24 24" fill="none" id="sneakers"><path fill="#AB8DDB" d="M23.347 6.899c-.072-.38-.323-.571-.658-.713-.128-.1-.193-.113-.321-.213-.794-.377-1.814-.367-2.621-.678-1.02-.355-1.936-.83-2.902-1.456-.964-.633-1.88-1.108-2.92-.3-.519.401-.882 1.13-1.524 1.439-.883.401-1.844-.953-2.793-.928-.071-.015-.157.042-.157.042-.085.057-.17.114-.198.25-.127.992-.62 3.07.074 3.939.644.784 2.598.086 3.405.034 3.396-.258 6.81.795 10.099-.361.085-.057.156-.043.17-.114.19-.17.411-.564.346-.941"></path><path fill="#011210" d="M23.063 7.57c-4.376 2.237-9.172-.62-13.796-.03l-.07-.014c-.143-.028-.223.03-.321.151-.642.673-.41 1.664.375 2.112 1.509.81 3.84.048 5.447.008 2.041-.026 4.075.318 6.045-.087.978-.167 2.946-.565 2.908-1.813-.002-.358-.337-.5-.588-.328"></path><path stroke="#000" stroke-linecap="round" stroke-linejoin="round" stroke-miterlimit="10" d="M16.623 3.504c-.377.43-.619.894-.731 1.45M17.809 4.108c-.32.516-.575 1.044-.702 1.672"></path><path fill="#AB8DDB" d="M13.845 19.365c.073-.357 0-.714-.212-.925-.072-.146-.145-.212-.211-.357-.496-.714-1.355-1.21-1.996-1.85-.714-.787-1.282-1.712-1.778-2.704-.568-1.07-1.136-1.85-2.419-1.711-.64.072-1.354.568-1.996.495-.925-.072-1.136-1.777-1.995-2.207-.073 0-.146-.073-.212-.073-.145 0-.211 0-.357.146-.568.786-2.062 2.419-1.85 3.49.211.997 2.207 1.354 2.92 1.71 3.06 1.422 5.552 3.986 8.97 4.627h.21c.496 0 .853-.211.926-.64"></path><path fill="#011210" d="M13.35 19.795c-4.845-.146-7.76-4.983-12.036-6.695 0 0-.073 0-.073-.073-.145-.072-.211-.072-.356 0-.853.284-1.137 1.21-.641 1.996.852 1.421 3.344 1.923 4.771 2.637 1.778.925 3.417 2.207 5.34 2.921.925.357 2.849.925 3.417-.211.073-.218-.139-.575-.423-.575"></path><path stroke="#000" stroke-linecap="round" stroke-linejoin="round" stroke-miterlimit="10" d="M9.714 13.172c-.495.146-.998.496-1.355.926M10.428 14.237c-.569.284-1.07.64-1.421 1.137"></path></symbol></defs><use xlink:href="#sneakers" xmlns="http://www.w3.org/2000/svg"></use></svg>