<svg xmlns:xlink="http://www.w3.org/1999/xlink" xmlns="http://www.w3.org/2000/svg" name="lock" viewBox="0 0 24 24" class="sc-43615ed2-0 OvMPz sc-21bda34-1 kvFOnH" width="24"  height="24" ><defs><symbol viewBox="0 0 24 24" fill="none" id="lock"><path fill="currentColor" d="M17.647 9.333h-1.413V6.11c0-2.287-1.9-4.148-4.236-4.148S7.764 3.82 7.764 6.109v3.224h-1.41A2.356 2.356 0 0 0 4 11.686v8a2.356 2.356 0 0 0 2.353 2.353h11.294A2.356 2.356 0 0 0 20 19.686v-8a2.356 2.356 0 0 0-2.353-2.353M9.332 6.11c0-1.422 1.196-2.58 2.666-2.58s2.667 1.158 2.667 2.58v3.224H9.332zm9.1 13.577a.785.785 0 0 1-.785.785H6.353a.785.785 0 0 1-.784-.785v-8c0-.432.351-.784.784-.784h11.294c.433 0 .784.352.784.784z"></path><path fill="currentColor" d="M12 13.176a1.451 1.451 0 0 0-.786 2.67v1.722a.784.784 0 0 0 1.569 0v-1.72A1.45 1.45 0 0 0 12 13.176"></path></symbol></defs><use xlink:href="#lock" xmlns="http://www.w3.org/2000/svg"></use></svg>