<svg xmlns:xlink="http://www.w3.org/1999/xlink" xmlns="http://www.w3.org/2000/svg" name="stretching" viewBox="0 0 24 24" class="sc-43615ed2-0 cCXfEq sc-b47950c5-6 gMyOhV" width="24"  height="24" ><defs><symbol viewBox="0 0 24 24" fill="none" id="stretching"><path fill="#FEB095" d="M13.48 5.151s-.74 1.97-1.98 2.55-3 1.07-4.11 2.84-3.97 9.23-4.36 12.13c-.23 1.72.96 1.57 1.34.55.53-1.41 6.13-11.74 6.13-11.74s1.23 4.63 1.39 5.55c.2 1.11.42 4.8.59 5.98.15 1.08 1.42 1.14 1.57-.06.1-.76.21-4.9.12-6.06-.09-1.08-.6-4.53-.79-5.75-.09-.53.29-.95.8-1.1.41-.12.68-.17 1.22-.21 0 0 .71 1.6.63 1.94-.06.25-1.53.06-2.57.06-.32 0-.56.74.16 1 1.54.57 3.43.36 3.77-.79.42-1.44-.97-3.87-1.6-4.89-.47-.76-.4-1.53-.29-2.08.19-.93.02-1.69 3.27-3.65 1.38-.83.83-1.8-.46-1.27s-3.94 2.44-4.83 5"></path><path fill="#FEB095" d="M17.94 4.681c-.71.09-1.36.54-1.7 1.16-.24.44-.32 1.03.01 1.4.2.23.51.32.81.37.44.07.91.05 1.33-.11s.78-.49.93-.92c.1-.27.1-.57.05-.86-.03-.19-.1-.39-.21-.54-.29-.39-.83-.47-1.22-.5M15.41 5.911c.25.93.85.62 1.45.25.09.15.5.55.63.67-.28.12-.66.42-.8.68-.21.39-.13.95.1 1.51-.45-.07-1.05-.74-1.33-1.09-.31-.4-.6-.88-.54-1.39.01-.13.45-.52.49-.63"></path><path fill="#030000" d="M17 5.051c.03.28.32.44.58.54.41.16.86.28 1.27.14-.46.5-.71 1.2-.67 1.89.77-.14 1.39-.86 1.42-1.64.01-.19-.01-.38-.08-.56-.18-.47-.66-.79-1.16-.84s-1.01.15-1.36.47"></path><path fill="#030000" d="M20.24 4.781a.82.82 0 0 0-.73.06c-.21.14-.35.39-.35.64 0 .07.01.14.04.2.04.08.11.14.18.19.14.1.31.16.49.16.22 0 .44-.12.57-.31.12-.19.15-.44.06-.64-.06-.14-.19-.27-.26-.3"></path><path fill="#AB8DDB" d="M13.02 6.091c.75.38 1.78.28 2.39-.29.01-.01.14.47.28.63-.37.29-.52.72-.36 1.17s1.27.8 1.28.83c.06.23.17.51.25.74-.99 0-1.45.68-1.45.68s-1.32.16-1.68.46-.29.51-.29 1.16c-1.04-1.02-2.47-2.17-3.38-3.31 1.4-.58 2.14-.86 2.96-2.07M3.35 21.121c.64.28 1.12.51 1.68.71.96-1.8 2.6-4.99 3.39-6.47.56-1.06 1.53-2.73 2.05-3.81.3 1.15.61 2.31.91 3.46.16.62.33 1.25.44 1.89.28 1.67.51 5.26.57 5.27.62.02 1.12-.02 1.73-.12.1-1.42.24-2.85.15-4.27-.08-1.24-.19-2.62-.41-3.84-.17-.95-.28-1.77-.44-2.68-.05-.29-2.73-3.25-2.73-3.25s-2.7.21-4.14 3.8c-.42 1.04-2.3 6.06-3.2 9.31"></path><path stroke="#000" stroke-linecap="round" stroke-linejoin="round" stroke-miterlimit="10" stroke-width=".75" d="M10.39 11.531c.96 3.34 1.93 6.72 2.1 10.19M3.45 20.481c.49-2.69 1.29-5.32 2.39-7.82.58-1.3 1.27-2.63 2.43-3.46.77-.55 1.68-.85 2.54-1.25s1.7-.94 2.12-1.79"></path></symbol></defs><use xlink:href="#stretching" xmlns="http://www.w3.org/2000/svg"></use></svg>