<svg xmlns:xlink="http://www.w3.org/1999/xlink" xmlns="http://www.w3.org/2000/svg" name="fire2" viewBox="0 0 18 24" class="sc-43615ed2-0 itkxch sc-b47950c5-6 gMyOhV" width="24"  height="32" ><defs><symbol viewBox="0 0 18 24" fill="none" id="fire2"><path fill="#F38059" d="M16.01 8.6c-1.59-3.16-2.15 1.34-3.96 2.7-.68-1.91.32-4.22-.3-6.19C11.18 3.26 9.76 1.89 8 1.19c-.28-.12-.68.15-.62.49.23 2.23-1.2 3.98-2.02 5.91-.53 1.26-.78 2.49-.76 3.82-1.86-1.72-.83-3.08-1.72-3.39C1.39 7.6.91 11.48.83 12.38c-.59 4 .58 8.58 4.72 10.13h.11c1.05.58 2.32.67 3.61.53 3.24-.31 5.45-2.21 6.57-4.86 1.12-2.82 1.54-6.82.17-9.58"></path><path fill="#FEDB72" d="M14.67 13.53c-.05-.45-.46-1.35-.92-1.3-.22.05-.51.38-.68.54-.63.66-1.04 1.48-1.65 1.69-.65-.79-1.18-2.09-1.38-3.21-.2-.89-.35-1.73-.77-2.58-.1-.22-.44-.34-.67-.18-1.53 1.14-2.18 2.79-2.11 4.69-.02.55.34 2.51.34 2.51-.67-.12-.83-.3-1.32-.75-.39-.29-.86-1.25-1.43-1.04-1.41.58-.71 4.1-.4 5.23.41 1.46 1.34 2.53 2.49 3.34.28.23.55.4.82.47.11.06.22.12.33.17.11.06.22.06.33.01 2.27.27 4.67-1.96 5.66-4.05.71-1.44 1.59-3.53 1.36-5.54"></path><path stroke="#000" stroke-linecap="round" stroke-linejoin="round" stroke-miterlimit="10" d="M4.75 12.02c-.48-1.19-.26-2.56.23-3.75s1.23-2.26 1.81-3.4 1.02-2.43.83-3.7M7.01 22.95c2.29.35 4.72-.34 6.49-1.84A8.21 8.21 0 0 0 16.36 15M1.4 9.99c-1.18 2.9-1.09 6.3.24 9.14M9.02 1.7c1.57 1.19 2.29 2.2 2.49 3.14.23 1.05.07 2.13-.01 3.2s-.05 2.2.51 3.12M15.43 7.99a10.3 10.3 0 0 1 1.32 4.07"></path></symbol></defs><use xlink:href="#fire2" xmlns="http://www.w3.org/2000/svg"></use></svg>