<svg xmlns:xlink="http://www.w3.org/1999/xlink" xmlns="http://www.w3.org/2000/svg" name="walkingSport" viewBox="0 0 24 24" class="sc-43615ed2-0 cCXfEq sc-b47950c5-6 gMyOhV" width="24"  height="24" ><defs><symbol viewBox="0 0 24 24" fill="none" id="walkingSport"><path fill="#FEB095" d="M10.86 9.945s.635-.53.847-1.272c.318-.635 3.39-.317 4.026-.106 0 0-1.06 1.272-1.589 2.755-.212.742-3.073-.635-3.285-1.377"></path><path fill="#AB8DDB" d="m3.453 21.282 1.06 1.696s3.92-2.437 4.767-3.709c1.484-2.119 3.18-5.192 3.285-6.251.318-2.12-.742-2.65-1.695-3.073 0 0-1.59.848-2.437 3.496-.212.636-1.06 3.815-1.59 4.557-.212.635-3.39 3.284-3.39 3.284"></path><path fill="#AB8DDB" d="M11.294 13.866c1.271.847 3.602 1.271 4.238 1.483 0 0-1.696 3.179-2.12 4.132 0 0 1.484.848 1.696.954 0 0 2.86-3.815 3.497-5.192.635-1.377-.106-2.013-1.166-2.649s-6.463-2.755-6.463-2.755-.954 3.179.317 4.027"></path><path fill="#FEB095" d="M3.453 21.283s-1.06.847-1.484 1.377c-.53.742.53 1.59 1.166 1.271.636-.318 1.59-1.165 1.59-1.165s-.319-1.166-1.272-1.483M13.508 19.269s-.741 1.166-.953 1.801c-.318.848.953 1.484 1.483.848s1.166-1.59 1.166-1.59-.636-1.059-1.696-1.059M17.545 9.203c0 .424.53.742.953.742 1.06.106 4.45-.636 4.98-.848.742-.318.53-1.377-.211-1.377-.742 0-4.557.318-4.557.318s-1.271.106-1.165 1.165"></path><path fill="#FEB095" d="M19.028 9.839c-.423.212-1.165.212-2.437-1.06-1.483-1.377-2.755-2.543-2.755-3.178 0-.424.954-1.908 2.332-.53.953.953 2.86 2.755 3.072 3.39.212.53.424 1.06-.212 1.378"></path><path fill="#FEB095" d="M14.472 4.54s.424-.529.636-1.059 1.377-.106 1.377.212-.317 1.166-.106 2.12c.318.847-1.907-1.272-1.907-1.272"></path><path fill="#AB8DDB" d="M11.707 8.673s.636-2.225 1.06-2.966c.423-.848 1.589-1.696 2.755-1.166 1.377.636 1.589 2.225 1.165 2.967s-1.377 1.907-2.013 2.649c.106-.106-1.59-.742-2.967-1.484"></path><path fill="#FEB095" d="M9.8 5.707c-.318-.318-.742-.212-1.166.318-.742.953-1.695 3.92-1.801 4.45-.212.847.741 1.165 1.165.53.424-.636 2.331-3.92 2.331-3.92s.318-.849-.53-1.378"></path><path fill="#FEB095" d="M8.645 6.342c0-.53.53-.953 2.33-1.377 2.014-.424 3.71-.742 4.239-.424.53.318 1.06 1.907-.954 2.225-1.377.212-3.602.53-4.556.53-.742.106-1.06-.212-1.06-.954M15.214 3.482s1.272.847 1.908.53c.635-.319.635-2.014.317-2.756C17.122.621 16.062.091 15.32.621c-.848.635-1.271 1.8-.106 2.86"></path><path fill="#000104" d="M15.214 3.481s.742-.423 1.377-1.06c.424-.423.742-.953.636-1.483 0 0-1.06-1.483-2.437-.106-.954 1.166.318 2.65.424 2.65"></path><path fill="#FEB095" d="M16.66 2.92c.186-.142.192-.446.013-.678s-.474-.304-.66-.16c-.185.142-.19.446-.011.677.178.232.473.304.659.161"></path><path fill="#000104" d="M14.684.409c-.742-.636-2.119-.53-2.755.318-.424.423-.636 1.377-1.06 1.8-.317.319-.741.319-.953.319H9.81v.106c.212.424.848 1.59 2.331.953 1.06-.424 1.06-1.165 1.166-1.483.106-.424.423-.848.741-1.06.636-.318 1.272 0 1.272 0 .318-.106-.318-.741-.636-.953"></path><path stroke="#000104" stroke-linecap="round" stroke-linejoin="round" stroke-width=".75" d="M9.27 11.429c-.212.953.318 2.013 1.165 2.543.848.53 1.802.741 2.755.953.954.212 1.908.424 2.861.53M.38 13.548c2.119 0 4.344.106 6.463.106M.486 15.984c1.377 0 2.86.106 4.238.106M.486 18.104h2.543"></path></symbol></defs><use xlink:href="#walkingSport" xmlns="http://www.w3.org/2000/svg"></use></svg>