<svg xmlns:xlink="http://www.w3.org/1999/xlink" xmlns="http://www.w3.org/2000/svg" name="house" viewBox="0 0 24 24" class="sc-43615ed2-0 cCXfEq sc-b47950c5-6 gMyOhV" width="24"  height="24" ><defs><symbol viewBox="0 0 24 24" fill="none" id="house"><path fill="#F8CD3D" d="M22.8 10.777a.64.64 0 0 0-.197-.462.64.64 0 0 0-.588-.38 189 189 0 0 0-9.553-.07 64 64 0 0 0-3.99-7.589.62.62 0 0 0-.226-.351c-.403-.516-1.205-.167-1.235.378a242 242 0 0 1-5.625 7.808.57.57 0 0 0-.12.446c-.006.032-.014.064-.014.102q-.213 5.319.05 10.638.01.154.068.271l.013.637c.008.362.31.692.685.684q1.538-.033 3.074-.067c-.22-2.328-.188-4.669-.185-7.008-.118-.263.008-.639.379-.63.883.018 1.75.077 2.634-.044.279-.037.55.108.555.422.035 2.4.384 4.78.422 7.177q6.292-.14 12.585-.28c.39.242 1.063.057 1.098-.555q.31-5.561.17-11.127m-3.534 7.255c-.876-.054-1.754-.005-2.632 0a.5.5 0 0 1-.14-.021.45.45 0 0 1-.418-.416c-.073-.873-.06-1.754-.06-2.632 0-.11.033-.196.087-.263a.4.4 0 0 1 .236-.158c.9-.245 1.828-.143 2.747-.135a.445.445 0 0 1 .437.438c.008.921.11 1.834.18 2.75.016.225-.215.45-.437.437"></path><path fill="#011210" d="M23.433 10.358a.73.73 0 0 0 .467-.335.8.8 0 0 0-.027-.22.7.7 0 0 0-.083-.307 72 72 0 0 0-5.013-8.106.7.7 0 0 0-.19-.182 61 61 0 0 0-3.268-.17C12.472.99 9.65.98 6.812 1.053q-.066.023-.128.051c-.092.04-.24.107-.282.207-.022.05-.025.118-.022.188 1.26 2.806 2.975 5.378 4.342 8.135.392.363.953.422 1.517.427.08 0 .147.02.204.051 3.635.172 7.282.108 10.92.247z"></path><path stroke="#000" stroke-linecap="round" stroke-linejoin="round" stroke-miterlimit="10" d="M.5 10.777C2.616 7.37 4.396 4.626 6.813 1.45M12.865 12.708l.322 9.583"></path></symbol></defs><use xlink:href="#house" xmlns="http://www.w3.org/2000/svg"></use></svg>