<svg xmlns:xlink="http://www.w3.org/1999/xlink" xmlns="http://www.w3.org/2000/svg" name="walking" viewBox="0 0 24 24" class="sc-43615ed2-0 cCXfEq sc-b47950c5-6 gMyOhV" width="24"  height="24" ><defs><symbol viewBox="0 0 24 24" fill="none" id="walking"><path fill="#F89879" d="M14.169 14.603c-.598-3.986-.798-8.073-.698-12.06v-.099c0-.399-.2-.698-.498-.897-.1-.1-.1-.1-.2-.1-.299-.199-.797-.199-1.196-.199h-.199c-1.296.2-2.691.498-3.389 1.595-.1.1-.1.1-.1.2-.498.996-.398 2.391-.298 3.587 0 2.691.697 5.282 1.993 7.774.1.299.299.598.399.897v.1c.199.398.299.697.598 1.096.199.598.697 1.096 1.295 1.395.3.2.698.3 1.097.3.398 0 .697-.1.996-.3.2-.2.3-.398.399-.598.2-.797-.1-1.893-.2-2.69"></path><path fill="#F8CD3D" d="M22.242 18.89c-.1-.3-.3-.4-.599-.5-.1-.099-.199-.099-.299-.099-.697-.2-1.495-.1-2.192-.299-.897-.2-1.695-.498-2.492-.897-.897-.399-1.694-.698-2.392.1-.399.398-.598.996-1.096 1.295-.698.4-1.595-.598-2.392-.498-.1 0-.1 0-.1.1-.1 0-.1.1-.1.299 0 .797-.199 2.591.499 3.189.598.498 2.093-.2 2.79-.299 2.692-.498 5.582-.1 8.173-1.296.1 0 .1-.1.1-.1.1-.298.299-.697.1-.996"></path><path fill="#011210" d="M22.142 19.488c-3.29 2.292-7.575.498-11.163 1.395h-.1c-.1 0-.199.1-.199.1-.398.598-.2 1.395.499 1.694 1.295.498 3.09-.399 4.385-.598 1.595-.3 3.289-.2 4.884-.698.797-.2 2.292-.797 2.192-1.794 0-.2-.299-.299-.498-.1"></path><path fill="#000" d="M16.062 18.59c-.299 0-.498-.199-.498-.498 0-.498.2-1.096.498-1.495.2-.2.498-.299.698-.1.199.2.299.499.1.698-.2.299-.3.598-.4.997.1.199-.099.398-.398.398M17.159 19.189c-.3 0-.499-.3-.499-.498 0-.598.2-1.097.498-1.595.1-.2.4-.3.698-.2.2.1.3.4.2.698q-.3.598-.3 1.196c-.1.2-.299.399-.598.399"></path><path fill="#F8CD3D" d="M9.584 21.977c.2-.2.199-.498.199-.797v-.3c-.2-.697-.598-1.394-.797-2.092-.3-.897-.399-1.694-.399-2.591-.1-.997-.2-1.794-1.196-2.093-.498-.2-1.196 0-1.694-.3-.698-.398-.3-1.694-.698-2.292l-.1-.1q-.15-.149-.299 0c-.697.4-2.392 1.097-2.59 1.994-.2.797 1.195 1.794 1.594 2.292 1.794 2.093 2.79 4.884 5.182 6.479.1 0 .1.1.2.1s.398 0 .598-.3"></path><path fill="#011210" d="M9.086 22.176c-3.588-1.794-4.087-6.378-6.678-9.07v-.099c-.1-.1-.2-.1-.2-.1-.797-.1-1.295.499-1.195 1.296.199 1.395 1.893 2.591 2.69 3.588.997 1.296 1.795 2.79 2.99 3.987.599.598 1.795 1.694 2.592.996.1-.2 0-.498-.2-.598"></path><path fill="#000" d="M7.292 16.694c-.2 0-.399-.1-.399-.299-.1-.2 0-.498.2-.698a4.5 4.5 0 0 1 1.594-.299c.3 0 .498.3.399.598 0 .3-.3.499-.598.4-.3 0-.698 0-.997.198-.1.1-.2.1-.2.1"></path><path fill="#000" d="M7.292 17.891c-.2 0-.4-.1-.499-.299-.1-.199 0-.498.2-.697.498-.2 1.096-.399 1.694-.399.2 0 .498.2.498.498 0 .3-.2.499-.498.499-.399 0-.897.1-1.296.299.1.1 0 .1-.1.1"></path><path fill="#FBB49B" d="M22.142 1.447s-.1 0-.1-.1c-1.295-.299-2.591-.498-3.887-.2-1.295.2-2.491.798-3.687 1.496 0 0-.1 0-.1.1-1.894 1.096-3.588 2.491-4.784 3.986-.698.698-1.296 1.495-1.894 2.293-.598.697-1.096 1.395-1.594 2.092-.399.499-.698 1.196-.499 1.794.1.499.4.898.897.997 1.196.698 2.392-.498 3.29-1.196a79.5 79.5 0 0 1 10.265-6.777c.598-.2 1.096-.399 1.595-.897.299-.3.498-.797.598-1.196.1-.3.199-.598.199-.997.1-.398.1-.797.1-1.096-.2-.2-.3-.3-.4-.3"></path></symbol></defs><use xlink:href="#walking" xmlns="http://www.w3.org/2000/svg"></use></svg>