<svg xmlns:xlink="http://www.w3.org/1999/xlink" xmlns="http://www.w3.org/2000/svg" name="ballOfFire2" viewBox="0 0 24 24" class="sc-43615ed2-0 cCXfEq sc-b47950c5-6 gMyOhV" width="24"  height="24" ><defs><symbol viewBox="0 0 24 24" fill="none" id="ballOfFire2"><path fill="#FBB49B" d="M23 11.354c-.224 2.83-1.395 6.782-3.034 8.916-1.982 2.582-4.94 3.69-8.633 3.4-3.57-.28-6.484-1.815-8.049-4.303C1.804 17.012.794 14.055 1.036 11z"></path><path stroke="#000" stroke-linecap="round" stroke-linejoin="round" stroke-miterlimit="10" d="M13.76 16.274c-.305 1-1.389 1.54-2.594.763"></path><path fill="#fff" d="M16.81 15.59a1.212 1.212 0 1 0 0-2.425 1.212 1.212 0 0 0 0 2.425M6.664 15.366a1.212 1.212 0 1 0 0-2.424 1.212 1.212 0 0 0 0 2.424"></path><path fill="#030000" d="M16.81 15.186a.808.808 0 1 0 0-1.617.808.808 0 0 0 0 1.616M6.664 14.962a.808.808 0 1 0 0-1.616.808.808 0 0 0 0 1.616"></path><path fill="#F89879" d="M6.317 16.75c.157-.512-.228-1.084-.86-1.28-.633-.194-1.274.062-1.432.573s.228 1.084.86 1.279c.634.195 1.274-.062 1.432-.573M18.346 17.61c.66-.06 1.154-.541 1.105-1.074-.05-.532-.623-.915-1.283-.854-.659.06-1.154.541-1.105 1.074.05.533.624.915 1.283.855"></path><path fill="#F38059" d="M15.487 3.55c-.802-1.421-.961.664-1.77 1.33-.354-.865.058-1.954-.273-2.848-.301-.844-.985-1.445-1.813-1.73-.132-.049-.309.085-.277.238.155 1.025-.468 1.862-.807 2.771a4.3 4.3 0 0 0-.27 1.778c-.89-.75-.441-1.402-.858-1.523-.699-.164-.836 1.638-.852 2.054-.188 1.857.45 3.948 2.395 4.572l.051-.001c.495.247 1.086.259 1.678.166 1.486-.214 2.47-1.137 2.926-2.383.456-1.323.564-3.179-.13-4.424"></path><path fill="#FEDB72" d="M14.975 5.853c-.033-.207-.244-.61-.451-.579-.101.028-.226.186-.302.264-.275.318-.447.703-.726.813-.319-.352-.587-.937-.704-1.45-.113-.405-.2-.79-.413-1.172-.053-.101-.21-.15-.311-.068-.68.557-.947 1.334-.875 2.207.005.254.209 1.151.209 1.151-.31-.042-.388-.12-.625-.318-.184-.124-.424-.557-.681-.448-.636.298-.238 1.91-.073 2.42.222.663.67 1.14 1.219 1.488.132.1.261.175.389.198l.154.073a.16.16 0 0 0 .153-.002c1.054.077 2.111-1.004 2.525-1.99.299-.678.661-1.664.512-2.587"></path></symbol></defs><use xlink:href="#ballOfFire2" xmlns="http://www.w3.org/2000/svg"></use></svg>