<svg xmlns:xlink="http://www.w3.org/1999/xlink" xmlns="http://www.w3.org/2000/svg" name="salt" viewBox="0 0 24 24" class="sc-43615ed2-0 cCXfEq sc-b47950c5-6 gMyOhV" width="24"  height="24" ><defs><symbol viewBox="0 0 24 24" fill="none" id="salt"><path fill="#FCF3CF" d="M21.43 9.219c-.29-1.446-2.313-1.735-3.47-1.927-1.83-.29-3.565-.097-5.396.289-.193 0-.289.096-.385.192-1.253.193-2.506.675-2.699 1.831-.289 1.35.868 2.41 2.12 3.18.482.386.964.771 1.35.964 1.445.675 3.18-.289 4.432-.867.482-.29 1.253-.578 1.928-.964 1.253-.482 2.409-1.253 2.12-2.698"></path><path fill="#000" d="M2.638 19.82c-.385 0-.867-.192-1.156-.481-.29-.29-.482-.771-.482-1.253v-.096c0-.482.193-.867.482-1.157.289-.289.674-.481 1.156-.481.386 0 .868.192 1.253.481.29.29.482.771.482 1.253v.097c0 .481-.193.867-.482 1.156-.29.289-.675.482-1.253.482m.097-2.601c-.29 0-.482.096-.579.193-.192.192-.192.385-.192.578v.096c0 .193.096.386.192.482.097.096.386.193.482.193.097 0 .386 0 .578-.193.193-.193.193-.386.193-.578v-.097a.74.74 0 0 0-.193-.481c-.096-.097-.385-.193-.481-.193M6.01 21.94c-.963 0-1.445-.771-1.445-1.446 0-.385.097-.77.386-.963.289-.29.674-.482 1.06-.482.964 0 1.445.77 1.445 1.445 0 .386-.096.771-.385.964-.29.386-.675.482-1.06.482m0-1.928c-.192 0-.288 0-.385.097-.096.096-.096.193-.096.385 0 .097 0 .482.482.482s.482-.385.482-.482-.097-.482-.482-.482M2.735 23c-.771 0-1.253-.578-1.253-1.253 0-.771.578-1.253 1.253-1.253s1.252.578 1.252 1.253S3.506 23 2.735 23m0-1.639c-.29 0-.29.193-.29.29s0 .289.29.289c.289 0 .289-.193.289-.29s0-.289-.29-.289M13.046 16.062c-.097 0-.29-.097-.386-.097l-5.203-5.3c-.193-.193-.193-.385-.097-.578.675-1.06 1.35-2.217 2.024-3.373s1.349-2.313 2.024-3.373c.674-.963 1.349-1.927 2.409-2.216 1.252-.386 2.602.193 3.469.77q1.88 1.158 3.47 2.603c.577.578 1.541 1.542 1.927 2.794.481 1.253.385 2.602-.193 3.566-.482.674-1.157 1.253-1.735 1.638-1.927 1.253-5.204 2.891-7.71 3.758.097-.192.097-.192 0-.192M8.42 10.28l4.722 4.818c2.313-.867 5.3-2.313 7.131-3.566.482-.385 1.157-.77 1.446-1.349.482-.674.482-1.734.096-2.698-.289-.77-.867-1.542-1.734-2.41-.964-.963-2.024-1.83-3.277-2.505-1.156-.674-2.024-.867-2.698-.674-.771.289-1.35 1.06-1.831 1.83-.675 1.06-1.35 2.217-2.024 3.374-.578 1.06-1.156 2.12-1.83 3.18"></path><path fill="#000" d="M10.444 17.893a2.88 2.88 0 0 1-1.831-.675c-.386-.29-.771-.675-1.157-1.06l-.385-.386-.193-.192c-.385-.386-.77-.771-.963-1.253-.29-.675-.29-1.638.096-2.41.289-.577.77-1.156 1.542-1.734.193-.193.482-.096.674.097.193.192.097.481-.096.674-.578.386-.964.867-1.156 1.35-.29.577-.29 1.156-.097 1.541.193.386.482.675.771.964l.193.193.385.385c.29.385.675.674.964.964.29.192.867.578 1.445.482.675-.097 1.157-.771 1.639-1.446.192-.193.482-.29.674-.096.193.192.29.481.097.674-.578.771-1.253 1.638-2.217 1.735-.193.192-.289.192-.385.192"></path></symbol></defs><use xlink:href="#salt" xmlns="http://www.w3.org/2000/svg"></use></svg>