<svg xmlns:xlink="http://www.w3.org/1999/xlink" xmlns="http://www.w3.org/2000/svg" name="softDrinks" viewBox="0 0 24 24" class="sc-43615ed2-0 cCXfEq sc-b47950c5-6 gMyOhV" width="24"  height="24" ><defs><symbol viewBox="0 0 24 24" fill="none" id="softDrinks"><path fill="#F8CD3D" d="M15.775 10.393q-4.397.44-8.795.586a.75.75 0 0 0-.489.196c-.293.195-.39.489-.39.782.488 3.03.88 6.059 1.465 8.99.098.294.391.587.782.587 1.368-.098 3.714 0 5.082-.098.489 0 1.27 0 1.759-.293.39-.293.489-.782.586-1.27.782-2.737.489-5.669 1.173-8.307 0-.489-.88-1.27-1.173-1.173"></path><path fill="#F38059" d="M19.098 1.11c-1.27.88-2.932 1.661-4.007 2.834-.489.586-.684 1.27-.782 1.954l-.586 2.932c-.782 3.714-1.564 7.525-2.346 11.238-.195.88 1.173 1.27 1.369.391.684-3.322 1.465-6.743 2.15-10.065.293-1.564.586-3.323 1.074-4.887.294-.879 1.075-1.172 1.76-1.66.684-.49 1.465-.978 2.15-1.467.781-.488 0-1.759-.782-1.27"></path><path fill="#000" d="M8.543 22.707c-.195 0-.39-.196-.488-.391L5.025 6.68c-.097-.293.098-.489.391-.586.293-.098.489.097.587.39l3.03 15.636c.097.294-.099.49-.49.587.098 0 0 0 0 0"></path><path fill="#000" d="M8.543 23c-.293 0-.488-.196-.488-.489s.195-.488.488-.488c.489 0 .978-.098 1.466-.098 1.368-.098 2.834-.293 4.202-.293l2.346-14.854c0-.294.293-.489.586-.391.293 0 .489.293.39.586l-2.442 15.245c0 .195-.196.39-.489.39-1.466 0-3.03.196-4.593.294-.39 0-.977 0-1.466.098"></path><path fill="#000" d="M6.296 6.876c-.293 0-.489-.196-.489-.489s.196-.488.489-.488c3.42-.196 6.84-.196 10.359-.196.293 0 .488.196.488.489s-.195.488-.489.488c-3.518 0-6.938 0-10.358.196M12.843 15.572c-.88 0-1.368-.684-1.368-1.368s.489-1.368 1.368-1.368 1.368.684 1.368 1.368q0 .586-.293.88c-.293.39-.684.488-1.075.488m0-1.759c-.098 0-.195 0-.293.098s-.098.195-.098.293 0 .391.391.391c.098 0 .196 0 .293-.098.098-.098.098-.195.098-.293s0-.39-.39-.39M8.837 12.348c-.88 0-1.368-.684-1.368-1.369q0-.586.293-.88c.293-.292.586-.488.977-.488.88 0 1.368.684 1.368 1.368q0 .587-.293.88c-.195.293-.586.489-.977.489m0-1.76c-.293 0-.391.294-.391.392 0 .097 0 .39.39.39.392 0 .392-.293.392-.39s-.098-.391-.391-.391M9.618 20.459c-.88 0-1.368-.684-1.368-1.368q0-.586.293-.88c.293-.293.587-.488.977-.488.88 0 1.369.684 1.369 1.368.097.684-.391 1.368-1.27 1.368m0-1.76c-.098 0-.195 0-.293.099-.098.097-.098.195-.098.293s0 .39.391.39c.098 0 .196 0 .293-.097.098-.098.098-.195.098-.293s0-.391-.39-.391"></path></symbol></defs><use xlink:href="#softDrinks" xmlns="http://www.w3.org/2000/svg"></use></svg>