<svg xmlns:xlink="http://www.w3.org/1999/xlink" xmlns="http://www.w3.org/2000/svg" name="water10glass" viewBox="0 0 24 24" class="sc-43615ed2-0 cCXfEq sc-b47950c5-6 gMyOhV" width="24"  height="24" ><defs><symbol viewBox="0 0 24 24" fill="none" id="water10glass"><path fill="#B0E7FF" d="M14.057 11.94c-1.175-.878-3.135-3.832-5.135-3.932-1.477-.071-2.994.27-3.78 4.895-.772 4.533 1.53 11.037 8.315 9.983 4.033-.629 5.594-3.945 5.542-8.033-.016-1.675-2.407-1.017-4.942-2.912"></path><path fill="#7DD5F4" d="M14.142 14.35c-1.903.659-2.949 2.24-5.044 2.06-1.495-.126-3.95-3.41-3.95-3.41-.784 4.752 1.475 10.98 8.365 9.87 4.093-.66 5.535-3.581 5.486-7.861-.025-1.756-1.842-1.708-4.857-.66"></path><path fill="#65BEE5" d="M13.632 19.254c-1.904.617-2.5-1.642-4.591-1.81-1.495-.118-3.64 1.357-2.929 2.55 1.234 2.062 3.631 3.345 7.226 2.805 2.52-.38 3.733-1.372 4.603-3.116.286-.572-1.295-1.405-4.31-.429"></path><path stroke="#000" stroke-linecap="round" stroke-linejoin="round" stroke-miterlimit="10" d="M13.045.746a.82.82 0 0 0-1.215.047c-1.57 1.872-5.873 7.361-6.683 12.053-.794 4.606 1.573 11.212 8.547 10.138 8.786-1.352 6.504-14.992-.649-22.238"></path></symbol></defs><use xlink:href="#water10glass" xmlns="http://www.w3.org/2000/svg"></use></svg>