<svg xmlns:xlink="http://www.w3.org/1999/xlink" xmlns="http://www.w3.org/2000/svg" name="coffeeCup" viewBox="0 0 24 24" class="sc-43615ed2-0 cCXfEq sc-b47950c5-6 gMyOhV" width="24"  height="24" ><defs><symbol viewBox="0 0 24 24" fill="none" id="coffeeCup"><path fill="#A0E0DB" d="M17.816 9.679s2.567-3.771 4.413-1.525c3.21 3.851-1.364 6.98-5.376 7.462v-1.123s5.215-2.568 4.413-4.413-3.049.963-3.049.963z"></path><path fill="#A0E0DB" d="M1 6.4c2.754-4.82 17.211-4.131 18.087-.337-.511 9.592-2.253 14.794-9.137 14.794-5.508 0-7.816-5.171-8.95-14.457"></path><path fill="#C6896B" d="M3.084 7.289c.148 1.244 3.104 2.985 6.948 2.902 3.917-.166 6.43-.995 6.8-3.068.517-2.653-8.353-2.985-11.457-1.741-1.921.746-2.291 1.907-2.291 1.907"></path><path stroke="#000" stroke-linecap="round" stroke-linejoin="round" stroke-miterlimit="10" d="M18.23 6.949c-.253.492-.59.787-.927 1.083-3.12 2.56-7.335 2.56-11.044 1.476-1.854-.492-3.793-1.476-4.552-3.445"></path></symbol></defs><use xlink:href="#coffeeCup" xmlns="http://www.w3.org/2000/svg"></use></svg>