<svg xmlns:xlink="http://www.w3.org/1999/xlink" xmlns="http://www.w3.org/2000/svg" name="dontCount" viewBox="0 0 24 24" class="sc-43615ed2-0 cCXfEq sc-b47950c5-6 gMyOhV" width="24"  height="24" ><defs><symbol viewBox="0 0 24 24" fill="none" id="dontCount"><path fill="#F8CD3E" d="M14.811 1.166c-4.003-.852-12.234 1.47-12.864 9.41-.63 7.955 5.487 11.747 11.338 11.129S23.28 17.102 23 11.415c-.266-5.688-2.772-9.109-8.189-10.249"></path><path stroke="#000" stroke-linecap="round" stroke-linejoin="round" stroke-width="1.108" d="M10.737 12.46s2.772-.358 4.662 1.236M7.266 4.614s2.156-1.36 4.801 0M14.476 7.032s2.281-1.112 4.745.234"></path><path fill="#000" d="M9.59 8.653c.714 0 1.302-.563 1.302-1.277 0-.715-.574-1.278-1.302-1.278S8.29 6.661 8.29 7.376c0 .714.573 1.277 1.301 1.277M16.701 9.134c.714 0 1.302-.563 1.302-1.277 0-.715-.574-1.278-1.302-1.278S15.4 7.142 15.4 7.857c0 .714.574 1.277 1.302 1.277"></path><path fill="#FCDB6F" d="M5.306 15.948s5.516-1.168 6.425-1.277c1.022-.124 1.54-.028 1.638.48.084.509-.014.948-1.19 1.25-.798.207-2.631.742-2.631.742s1.274 1.374 0 2.034c0 0 .896 1.167-.14 1.662 0 0 .532 1.127-.602 1.525-1.12.398-6.397 1.896-7.657-1.814s.868-4.066 1.666-4.945c.812-.88 1.302-1.992.952-3.146-.364-1.14 1.175-1.278 1.75-.344.587.934.853 2.693-.225 3.847z"></path><path stroke="#000" stroke-linecap="round" stroke-linejoin="round" stroke-width="1.108" d="M1.402 16.773c.476-.674 1.218-.99 1.624-1.43.811-.878 1.301-1.991.951-3.145-.364-1.14 1.176-1.278 1.75-.344.588.935.854 2.693-.224 3.847M7.728 15.234c1.638-.344 3.682-.742 4.2-.81 1.021-.124 1.511.027 1.637.48.126.495-.014.948-1.19 1.25-.797.206-2.63.742-2.63.742s1.287 1.017 0 2.033c0 0 .95 1.14-.225 1.731 0 0 .224 1.086-.896 1.484-.742.261-3.681 1.553-7.208-1.044"></path></symbol></defs><use xlink:href="#dontCount" xmlns="http://www.w3.org/2000/svg"></use></svg>